<?xml version="1.0" encoding="utf-8" standalone="no"?>
<!DOCTYPE svg PUBLIC "-//W3C//DTD SVG 1.1//EN"
  "http://www.w3.org/Graphics/SVG/1.1/DTD/svg11.dtd">
<!-- Created with matplotlib (http://matplotlib.org/) -->
<svg height="345.6pt" version="1.1" viewBox="0 0 460.8 345.6" width="460.8pt" xmlns="http://www.w3.org/2000/svg" xmlns:xlink="http://www.w3.org/1999/xlink">
 <defs>
  <style type="text/css">
*{stroke-linecap:butt;stroke-linejoin:round;}
  </style>
 </defs>
 <g id="figure_1">
  <g id="patch_1">
   <path d="M 0 345.6 
L 460.8 345.6 
L 460.8 0 
L 0 0 
z
" style="fill:#ffffff;"/>
  </g>
  <g id="axes_1">
   <g id="patch_2">
    <path d="M 57.6 307.584 
L 414.72 307.584 
L 414.72 41.472 
L 57.6 41.472 
z
" style="fill:#ffffff;"/>
   </g>
   <g id="matplotlib.axis_1">
    <g id="xtick_1">
     <g id="line2d_1">
      <defs>
       <path d="M 0 0 
L 0 3.5 
" id="mced1afae73" style="stroke:#000000;stroke-width:0.8;"/>
      </defs>
      <g>
       <use style="stroke:#000000;stroke-width:0.8;" x="73.832727" xlink:href="#mced1afae73" y="307.584"/>
      </g>
     </g>
     <g id="text_1">
      <!-- 0 -->
      <defs>
       <path d="M 31.78125 66.40625 
Q 24.171875 66.40625 20.328125 58.90625 
Q 16.5 51.421875 16.5 36.375 
Q 16.5 21.390625 20.328125 13.890625 
Q 24.171875 6.390625 31.78125 6.390625 
Q 39.453125 6.390625 43.28125 13.890625 
Q 47.125 21.390625 47.125 36.375 
Q 47.125 51.421875 43.28125 58.90625 
Q 39.453125 66.40625 31.78125 66.40625 
z
M 31.78125 74.21875 
Q 44.046875 74.21875 50.515625 64.515625 
Q 56.984375 54.828125 56.984375 36.375 
Q 56.984375 17.96875 50.515625 8.265625 
Q 44.046875 -1.421875 31.78125 -1.421875 
Q 19.53125 -1.421875 13.0625 8.265625 
Q 6.59375 17.96875 6.59375 36.375 
Q 6.59375 54.828125 13.0625 64.515625 
Q 19.53125 74.21875 31.78125 74.21875 
z
" id="DejaVuSans-30"/>
      </defs>
      <g transform="translate(70.651477 322.182437)scale(0.1 -0.1)">
       <use xlink:href="#DejaVuSans-30"/>
      </g>
     </g>
    </g>
    <g id="xtick_2">
     <g id="line2d_2">
      <g>
       <use style="stroke:#000000;stroke-width:0.8;" x="139.024403" xlink:href="#mced1afae73" y="307.584"/>
      </g>
     </g>
     <g id="text_2">
      <!-- 100 -->
      <defs>
       <path d="M 12.40625 8.296875 
L 28.515625 8.296875 
L 28.515625 63.921875 
L 10.984375 60.40625 
L 10.984375 69.390625 
L 28.421875 72.90625 
L 38.28125 72.90625 
L 38.28125 8.296875 
L 54.390625 8.296875 
L 54.390625 0 
L 12.40625 0 
z
" id="DejaVuSans-31"/>
      </defs>
      <g transform="translate(129.480653 322.182437)scale(0.1 -0.1)">
       <use xlink:href="#DejaVuSans-31"/>
       <use x="63.623047" xlink:href="#DejaVuSans-30"/>
       <use x="127.246094" xlink:href="#DejaVuSans-30"/>
      </g>
     </g>
    </g>
    <g id="xtick_3">
     <g id="line2d_3">
      <g>
       <use style="stroke:#000000;stroke-width:0.8;" x="204.216079" xlink:href="#mced1afae73" y="307.584"/>
      </g>
     </g>
     <g id="text_3">
      <!-- 200 -->
      <defs>
       <path d="M 19.1875 8.296875 
L 53.609375 8.296875 
L 53.609375 0 
L 7.328125 0 
L 7.328125 8.296875 
Q 12.9375 14.109375 22.625 23.890625 
Q 32.328125 33.6875 34.8125 36.53125 
Q 39.546875 41.84375 41.421875 45.53125 
Q 43.3125 49.21875 43.3125 52.78125 
Q 43.3125 58.59375 39.234375 62.25 
Q 35.15625 65.921875 28.609375 65.921875 
Q 23.96875 65.921875 18.8125 64.3125 
Q 13.671875 62.703125 7.8125 59.421875 
L 7.8125 69.390625 
Q 13.765625 71.78125 18.9375 73 
Q 24.125 74.21875 28.421875 74.21875 
Q 39.75 74.21875 46.484375 68.546875 
Q 53.21875 62.890625 53.21875 53.421875 
Q 53.21875 48.921875 51.53125 44.890625 
Q 49.859375 40.875 45.40625 35.40625 
Q 44.1875 33.984375 37.640625 27.21875 
Q 31.109375 20.453125 19.1875 8.296875 
z
" id="DejaVuSans-32"/>
      </defs>
      <g transform="translate(194.672329 322.182437)scale(0.1 -0.1)">
       <use xlink:href="#DejaVuSans-32"/>
       <use x="63.623047" xlink:href="#DejaVuSans-30"/>
       <use x="127.246094" xlink:href="#DejaVuSans-30"/>
      </g>
     </g>
    </g>
    <g id="xtick_4">
     <g id="line2d_4">
      <g>
       <use style="stroke:#000000;stroke-width:0.8;" x="269.407755" xlink:href="#mced1afae73" y="307.584"/>
      </g>
     </g>
     <g id="text_4">
      <!-- 300 -->
      <defs>
       <path d="M 40.578125 39.3125 
Q 47.65625 37.796875 51.625 33 
Q 55.609375 28.21875 55.609375 21.1875 
Q 55.609375 10.40625 48.1875 4.484375 
Q 40.765625 -1.421875 27.09375 -1.421875 
Q 22.515625 -1.421875 17.65625 -0.515625 
Q 12.796875 0.390625 7.625 2.203125 
L 7.625 11.71875 
Q 11.71875 9.328125 16.59375 8.109375 
Q 21.484375 6.890625 26.8125 6.890625 
Q 36.078125 6.890625 40.9375 10.546875 
Q 45.796875 14.203125 45.796875 21.1875 
Q 45.796875 27.640625 41.28125 31.265625 
Q 36.765625 34.90625 28.71875 34.90625 
L 20.21875 34.90625 
L 20.21875 43.015625 
L 29.109375 43.015625 
Q 36.375 43.015625 40.234375 45.921875 
Q 44.09375 48.828125 44.09375 54.296875 
Q 44.09375 59.90625 40.109375 62.90625 
Q 36.140625 65.921875 28.71875 65.921875 
Q 24.65625 65.921875 20.015625 65.03125 
Q 15.375 64.15625 9.8125 62.3125 
L 9.8125 71.09375 
Q 15.4375 72.65625 20.34375 73.4375 
Q 25.25 74.21875 29.59375 74.21875 
Q 40.828125 74.21875 47.359375 69.109375 
Q 53.90625 64.015625 53.90625 55.328125 
Q 53.90625 49.265625 50.4375 45.09375 
Q 46.96875 40.921875 40.578125 39.3125 
z
" id="DejaVuSans-33"/>
      </defs>
      <g transform="translate(259.864005 322.182437)scale(0.1 -0.1)">
       <use xlink:href="#DejaVuSans-33"/>
       <use x="63.623047" xlink:href="#DejaVuSans-30"/>
       <use x="127.246094" xlink:href="#DejaVuSans-30"/>
      </g>
     </g>
    </g>
    <g id="xtick_5">
     <g id="line2d_5">
      <g>
       <use style="stroke:#000000;stroke-width:0.8;" x="334.59943" xlink:href="#mced1afae73" y="307.584"/>
      </g>
     </g>
     <g id="text_5">
      <!-- 400 -->
      <defs>
       <path d="M 37.796875 64.3125 
L 12.890625 25.390625 
L 37.796875 25.390625 
z
M 35.203125 72.90625 
L 47.609375 72.90625 
L 47.609375 25.390625 
L 58.015625 25.390625 
L 58.015625 17.1875 
L 47.609375 17.1875 
L 47.609375 0 
L 37.796875 0 
L 37.796875 17.1875 
L 4.890625 17.1875 
L 4.890625 26.703125 
z
" id="DejaVuSans-34"/>
      </defs>
      <g transform="translate(325.05568 322.182437)scale(0.1 -0.1)">
       <use xlink:href="#DejaVuSans-34"/>
       <use x="63.623047" xlink:href="#DejaVuSans-30"/>
       <use x="127.246094" xlink:href="#DejaVuSans-30"/>
      </g>
     </g>
    </g>
    <g id="xtick_6">
     <g id="line2d_6">
      <g>
       <use style="stroke:#000000;stroke-width:0.8;" x="399.791106" xlink:href="#mced1afae73" y="307.584"/>
      </g>
     </g>
     <g id="text_6">
      <!-- 500 -->
      <defs>
       <path d="M 10.796875 72.90625 
L 49.515625 72.90625 
L 49.515625 64.59375 
L 19.828125 64.59375 
L 19.828125 46.734375 
Q 21.96875 47.46875 24.109375 47.828125 
Q 26.265625 48.1875 28.421875 48.1875 
Q 40.625 48.1875 47.75 41.5 
Q 54.890625 34.8125 54.890625 23.390625 
Q 54.890625 11.625 47.5625 5.09375 
Q 40.234375 -1.421875 26.90625 -1.421875 
Q 22.3125 -1.421875 17.546875 -0.640625 
Q 12.796875 0.140625 7.71875 1.703125 
L 7.71875 11.625 
Q 12.109375 9.234375 16.796875 8.0625 
Q 21.484375 6.890625 26.703125 6.890625 
Q 35.15625 6.890625 40.078125 11.328125 
Q 45.015625 15.765625 45.015625 23.390625 
Q 45.015625 31 40.078125 35.4375 
Q 35.15625 39.890625 26.703125 39.890625 
Q 22.75 39.890625 18.8125 39.015625 
Q 14.890625 38.140625 10.796875 36.28125 
z
" id="DejaVuSans-35"/>
      </defs>
      <g transform="translate(390.247356 322.182437)scale(0.1 -0.1)">
       <use xlink:href="#DejaVuSans-35"/>
       <use x="63.623047" xlink:href="#DejaVuSans-30"/>
       <use x="127.246094" xlink:href="#DejaVuSans-30"/>
      </g>
     </g>
    </g>
   </g>
   <g id="matplotlib.axis_2">
    <g id="ytick_1">
     <g id="line2d_7">
      <defs>
       <path d="M 0 0 
L -3.5 0 
" id="m2aafe244ce" style="stroke:#000000;stroke-width:0.8;"/>
      </defs>
      <g>
       <use style="stroke:#000000;stroke-width:0.8;" x="57.6" xlink:href="#m2aafe244ce" y="279.191217"/>
      </g>
     </g>
     <g id="text_7">
      <!-- 1.225 -->
      <defs>
       <path d="M 10.6875 12.40625 
L 21 12.40625 
L 21 0 
L 10.6875 0 
z
" id="DejaVuSans-2e"/>
      </defs>
      <g transform="translate(21.971875 282.990436)scale(0.1 -0.1)">
       <use xlink:href="#DejaVuSans-31"/>
       <use x="63.623047" xlink:href="#DejaVuSans-2e"/>
       <use x="95.410156" xlink:href="#DejaVuSans-32"/>
       <use x="159.033203" xlink:href="#DejaVuSans-32"/>
       <use x="222.65625" xlink:href="#DejaVuSans-35"/>
      </g>
     </g>
    </g>
    <g id="ytick_2">
     <g id="line2d_8">
      <g>
       <use style="stroke:#000000;stroke-width:0.8;" x="57.6" xlink:href="#m2aafe244ce" y="244.954404"/>
      </g>
     </g>
     <g id="text_8">
      <!-- 1.250 -->
      <g transform="translate(21.971875 248.753623)scale(0.1 -0.1)">
       <use xlink:href="#DejaVuSans-31"/>
       <use x="63.623047" xlink:href="#DejaVuSans-2e"/>
       <use x="95.410156" xlink:href="#DejaVuSans-32"/>
       <use x="159.033203" xlink:href="#DejaVuSans-35"/>
       <use x="222.65625" xlink:href="#DejaVuSans-30"/>
      </g>
     </g>
    </g>
    <g id="ytick_3">
     <g id="line2d_9">
      <g>
       <use style="stroke:#000000;stroke-width:0.8;" x="57.6" xlink:href="#m2aafe244ce" y="210.717591"/>
      </g>
     </g>
     <g id="text_9">
      <!-- 1.275 -->
      <defs>
       <path d="M 8.203125 72.90625 
L 55.078125 72.90625 
L 55.078125 68.703125 
L 28.609375 0 
L 18.3125 0 
L 43.21875 64.59375 
L 8.203125 64.59375 
z
" id="DejaVuSans-37"/>
      </defs>
      <g transform="translate(21.971875 214.516809)scale(0.1 -0.1)">
       <use xlink:href="#DejaVuSans-31"/>
       <use x="63.623047" xlink:href="#DejaVuSans-2e"/>
       <use x="95.410156" xlink:href="#DejaVuSans-32"/>
       <use x="159.033203" xlink:href="#DejaVuSans-37"/>
       <use x="222.65625" xlink:href="#DejaVuSans-35"/>
      </g>
     </g>
    </g>
    <g id="ytick_4">
     <g id="line2d_10">
      <g>
       <use style="stroke:#000000;stroke-width:0.8;" x="57.6" xlink:href="#m2aafe244ce" y="176.480777"/>
      </g>
     </g>
     <g id="text_10">
      <!-- 1.300 -->
      <g transform="translate(21.971875 180.279996)scale(0.1 -0.1)">
       <use xlink:href="#DejaVuSans-31"/>
       <use x="63.623047" xlink:href="#DejaVuSans-2e"/>
       <use x="95.410156" xlink:href="#DejaVuSans-33"/>
       <use x="159.033203" xlink:href="#DejaVuSans-30"/>
       <use x="222.65625" xlink:href="#DejaVuSans-30"/>
      </g>
     </g>
    </g>
    <g id="ytick_5">
     <g id="line2d_11">
      <g>
       <use style="stroke:#000000;stroke-width:0.8;" x="57.6" xlink:href="#m2aafe244ce" y="142.243964"/>
      </g>
     </g>
     <g id="text_11">
      <!-- 1.325 -->
      <g transform="translate(21.971875 146.043183)scale(0.1 -0.1)">
       <use xlink:href="#DejaVuSans-31"/>
       <use x="63.623047" xlink:href="#DejaVuSans-2e"/>
       <use x="95.410156" xlink:href="#DejaVuSans-33"/>
       <use x="159.033203" xlink:href="#DejaVuSans-32"/>
       <use x="222.65625" xlink:href="#DejaVuSans-35"/>
      </g>
     </g>
    </g>
    <g id="ytick_6">
     <g id="line2d_12">
      <g>
       <use style="stroke:#000000;stroke-width:0.8;" x="57.6" xlink:href="#m2aafe244ce" y="108.007151"/>
      </g>
     </g>
     <g id="text_12">
      <!-- 1.350 -->
      <g transform="translate(21.971875 111.806369)scale(0.1 -0.1)">
       <use xlink:href="#DejaVuSans-31"/>
       <use x="63.623047" xlink:href="#DejaVuSans-2e"/>
       <use x="95.410156" xlink:href="#DejaVuSans-33"/>
       <use x="159.033203" xlink:href="#DejaVuSans-35"/>
       <use x="222.65625" xlink:href="#DejaVuSans-30"/>
      </g>
     </g>
    </g>
    <g id="ytick_7">
     <g id="line2d_13">
      <g>
       <use style="stroke:#000000;stroke-width:0.8;" x="57.6" xlink:href="#m2aafe244ce" y="73.770337"/>
      </g>
     </g>
     <g id="text_13">
      <!-- 1.375 -->
      <g transform="translate(21.971875 77.569556)scale(0.1 -0.1)">
       <use xlink:href="#DejaVuSans-31"/>
       <use x="63.623047" xlink:href="#DejaVuSans-2e"/>
       <use x="95.410156" xlink:href="#DejaVuSans-33"/>
       <use x="159.033203" xlink:href="#DejaVuSans-37"/>
       <use x="222.65625" xlink:href="#DejaVuSans-35"/>
      </g>
     </g>
    </g>
   </g>
   <g id="line2d_14">
    <path clip-path="url(#p5e1795c949)" d="M 73.832727 175.541806 
L 74.484644 175.779504 
L 75.136561 175.434875 
L 75.788478 174.48033 
L 77.092311 170.782957 
L 77.744228 167.411112 
L 79.048061 159.741283 
L 79.699978 156.430658 
L 80.351895 153.89402 
L 81.003812 153.09179 
L 81.655728 153.262391 
L 82.307645 153.29749 
L 83.611479 150.843132 
L 84.915312 149.32781 
L 86.871062 144.374851 
L 87.522979 143.452793 
L 88.174896 143.023925 
L 88.826813 142.906872 
L 90.130646 142.927606 
L 90.782563 143.291825 
L 91.43448 142.066115 
L 92.086396 137.953098 
L 92.738313 132.875087 
L 94.694064 111.552828 
L 96.649814 94.246288 
L 98.605564 81.222059 
L 99.257481 77.907353 
L 99.909398 75.710283 
L 101.213231 73.004024 
L 101.865148 71.859614 
L 102.517065 71.68983 
L 103.168981 72.085884 
L 103.820898 73.150136 
L 105.124732 77.060718 
L 106.428565 79.235423 
L 107.732399 81.830833 
L 108.384315 79.561278 
L 109.036232 76.398887 
L 111.643899 62.035487 
L 112.295816 59.671572 
L 114.251566 54.067883 
L 114.903483 53.568 
L 115.5554 53.990501 
L 116.207317 54.941291 
L 116.859233 55.274656 
L 117.51115 56.770877 
L 118.163067 60.03171 
L 119.4669 65.21257 
L 120.118817 67.542856 
L 120.770734 69.007896 
L 122.074567 75.745382 
L 122.726484 78.743213 
L 123.378401 82.422138 
L 124.030318 85.161864 
L 124.682234 86.440795 
L 125.334151 86.952106 
L 125.986068 88.581706 
L 127.289901 92.701906 
L 127.941818 94.145397 
L 128.593735 95.190385 
L 129.245652 96.477315 
L 131.201402 103.418542 
L 131.853319 106.627133 
L 132.505235 108.906157 
L 133.809069 110.700317 
L 134.460986 110.660809 
L 135.112903 110.402052 
L 135.764819 109.732058 
L 136.416736 109.291599 
L 137.068653 109.363268 
L 137.72057 109.890088 
L 138.372486 109.736139 
L 140.328237 108.363828 
L 140.980153 108.971132 
L 142.935904 111.249176 
L 143.58782 110.796147 
L 144.239737 109.061574 
L 145.543571 104.494548 
L 146.195487 102.668717 
L 148.151238 95.757039 
L 148.803154 94.557939 
L 149.455071 93.712611 
L 150.106988 93.277376 
L 150.758905 94.04418 
L 151.410821 96.639752 
L 154.018488 112.469009 
L 155.974239 121.487478 
L 156.626156 122.994964 
L 157.278072 123.840129 
L 157.929989 123.561944 
L 158.581906 122.508141 
L 159.885739 118.605884 
L 161.189573 113.771611 
L 162.493406 108.838896 
L 163.145323 107.521111 
L 163.79724 107.646653 
L 164.449157 108.37297 
L 165.75299 111.454549 
L 167.056824 112.795516 
L 167.70874 113.105536 
L 168.360657 113.9316 
L 169.012574 115.053317 
L 169.664491 115.288076 
L 170.316407 114.69775 
L 171.620241 112.720093 
L 172.924074 111.255053 
L 174.227908 108.808531 
L 174.879825 107.315085 
L 176.183658 103.620977 
L 176.835575 102.419102 
L 177.487492 102.005253 
L 178.139409 102.888783 
L 178.791325 104.708737 
L 179.443242 107.16734 
L 180.095159 108.397784 
L 180.747076 110.489229 
L 182.050909 115.223917 
L 183.354743 120.075495 
L 184.658576 125.06992 
L 187.266243 132.018004 
L 188.570077 135.313283 
L 189.221993 136.615559 
L 189.87391 137.460071 
L 190.525827 138.030643 
L 191.177744 138.131208 
L 191.82966 138.726594 
L 192.481577 140.789144 
L 193.785411 142.669828 
L 194.437327 143.115348 
L 195.089244 142.525675 
L 196.393078 140.572179 
L 197.044995 140.379866 
L 197.696911 140.565159 
L 198.348828 141.403305 
L 199.652662 144.48668 
L 200.304578 146.306634 
L 200.956495 147.107884 
L 201.608412 147.523855 
L 202.260329 147.266077 
L 202.912245 146.827414 
L 203.564162 146.645222 
L 204.216079 146.781703 
L 204.867996 147.099068 
L 205.519912 148.593004 
L 206.171829 150.767545 
L 207.475663 158.386113 
L 210.08333 176.192699 
L 210.735246 180.17593 
L 211.387163 183.416519 
L 212.690997 187.756623 
L 213.99483 191.488442 
L 214.646747 192.693909 
L 215.298664 193.487812 
L 215.950581 193.645679 
L 216.602497 192.93128 
L 217.906331 190.405253 
L 219.210164 187.345549 
L 219.862081 186.25485 
L 221.817831 184.781484 
L 222.469748 184.738875 
L 223.121665 185.281531 
L 223.773582 186.555074 
L 225.077415 189.826028 
L 225.729332 191.675694 
L 227.033165 197.254568 
L 227.685082 200.397694 
L 228.336999 202.834095 
L 230.292749 208.62879 
L 230.944666 210.499516 
L 231.596583 212.807762 
L 234.20425 226.203557 
L 234.856166 227.73651 
L 235.508083 228.369935 
L 236.16 228.693504 
L 238.11575 227.937476 
L 239.419584 225.620087 
L 240.071501 223.209971 
L 240.723417 219.683851 
L 243.983001 198.764176 
L 245.286835 193.926638 
L 245.938751 191.809399 
L 246.590668 190.114824 
L 247.242585 189.924307 
L 247.894502 190.530469 
L 248.546418 191.455138 
L 249.850252 193.781179 
L 250.502169 193.983451 
L 251.154085 193.826401 
L 251.806002 193.883866 
L 252.457919 193.199832 
L 253.109836 191.70508 
L 253.761752 189.763339 
L 254.413669 187.369548 
L 255.065586 184.413837 
L 256.369419 177.053211 
L 257.021336 174.24051 
L 257.673253 172.021564 
L 258.977087 169.018346 
L 260.28092 167.152844 
L 260.932837 167.025343 
L 261.584754 167.273815 
L 262.23667 167.874426 
L 262.888587 168.200444 
L 264.192421 169.702216 
L 264.844337 170.916009 
L 266.800088 175.72661 
L 268.103921 180.577535 
L 270.059671 190.178167 
L 270.711588 192.503718 
L 271.363505 193.973656 
L 272.015422 194.957587 
L 272.667338 195.529301 
L 273.319255 195.82626 
L 273.971172 195.410616 
L 274.623089 194.427338 
L 275.926922 191.553744 
L 276.578839 189.641551 
L 277.230756 188.241323 
L 277.882673 187.335428 
L 278.534589 186.997655 
L 279.186506 187.663568 
L 279.838423 188.514773 
L 281.142256 191.109204 
L 283.098007 194.781109 
L 283.749923 196.653141 
L 284.40184 199.37344 
L 286.35759 210.456254 
L 288.313341 221.362264 
L 288.965257 224.08142 
L 289.617174 225.529155 
L 290.269091 226.488435 
L 290.921008 227.687861 
L 292.224841 231.654113 
L 293.528675 237.536965 
L 295.484425 247.258895 
L 296.136342 249.774311 
L 296.788258 253.185336 
L 298.092092 262.39922 
L 298.744009 265.985744 
L 300.699759 273.311434 
L 301.351676 274.390052 
L 302.003593 273.397142 
L 302.655509 271.406425 
L 303.307426 268.577562 
L 305.263176 255.610636 
L 305.915093 252.559258 
L 306.56701 251.079852 
L 307.218927 251.236085 
L 307.870843 252.300501 
L 308.52276 253.800314 
L 309.174677 254.358968 
L 309.826594 254.06201 
L 310.47851 253.05408 
L 311.130427 252.312745 
L 311.782344 251.76715 
L 312.434261 250.544705 
L 313.086177 248.691285 
L 314.390011 244.098464 
L 315.041928 242.288632 
L 316.345761 240.861956 
L 316.997678 239.675591 
L 317.649595 239.097019 
L 318.301512 238.936541 
L 319.605345 239.767992 
L 320.257262 239.612575 
L 320.909179 238.826997 
L 323.516846 234.331476 
L 324.168762 234.144387 
L 324.820679 235.087178 
L 326.124513 238.0073 
L 327.428346 239.537968 
L 328.73218 240.837632 
L 329.384096 241.283478 
L 330.036013 241.434814 
L 331.339847 241.302579 
L 331.991763 241.603782 
L 332.64368 242.315895 
L 333.947514 243.27795 
L 334.59943 243.724776 
L 335.903264 245.151615 
L 336.555181 245.461797 
L 337.207097 244.70332 
L 338.510931 239.359858 
L 341.118598 224.413805 
L 343.726265 209.766506 
L 345.030099 204.067641 
L 345.682015 201.666014 
L 346.333932 200.948023 
L 346.985849 201.442682 
L 347.637766 202.298949 
L 348.289682 201.985175 
L 348.941599 201.005489 
L 349.593516 199.288711 
L 350.897349 194.374607 
L 352.8531 191.021373 
L 354.156933 189.660652 
L 354.80885 187.646753 
L 356.112683 184.623455 
L 356.7646 183.805226 
L 357.416517 183.53749 
L 358.068434 182.816235 
L 358.72035 182.719752 
L 359.372267 182.267865 
L 360.024184 181.398375 
L 361.979934 179.349049 
L 362.631851 177.86948 
L 363.283768 174.855814 
L 366.543352 154.900806 
L 369.151019 143.517279 
L 369.802935 141.599209 
L 370.454852 139.042001 
L 371.106769 137.798007 
L 371.758686 137.180907 
L 372.410602 137.451745 
L 373.062519 138.571993 
L 374.366353 142.002446 
L 375.018269 142.924504 
L 375.670186 143.627638 
L 376.322103 143.276153 
L 376.97402 143.087594 
L 377.625936 142.626892 
L 378.277853 141.598719 
L 378.92977 139.348592 
L 380.233604 136.426184 
L 380.88552 135.753252 
L 381.537437 136.101146 
L 382.189354 136.722164 
L 382.841271 137.597531 
L 384.145104 140.275384 
L 384.797021 141.063083 
L 386.100854 140.720087 
L 386.752771 140.204205 
L 387.404688 140.146576 
L 388.056605 139.935816 
L 388.708521 139.144198 
L 389.360438 136.535238 
L 391.968105 121.751459 
L 392.620022 119.227555 
L 393.271939 117.692316 
L 393.923855 117.14264 
L 394.575772 117.423273 
L 395.227689 117.181658 
L 395.879606 117.742598 
L 397.183439 120.355965 
L 397.835356 121.106443 
L 398.487273 120.792833 
L 398.487273 120.792833 
" style="fill:none;opacity:0.6;stroke:#1f77b4;stroke-linecap:square;stroke-width:0.6;"/>
   </g>
   <g id="line2d_15">
    <path clip-path="url(#p5e1795c949)" d="M 73.832727 153.062731 
L 74.484644 152.241074 
L 75.136561 147.858851 
L 75.788478 134.574886 
L 76.440394 134.574886 
L 77.092311 144.298122 
L 77.744228 138.546362 
L 79.048061 153.336671 
L 80.351895 162.10128 
L 81.003812 162.10128 
L 81.655728 149.502165 
L 82.307645 132.109916 
L 82.959562 123.482113 
L 83.611479 130.877349 
L 84.915312 123.756053 
L 85.567229 124.029993 
L 86.219146 121.291083 
L 86.871062 124.85165 
L 87.522979 123.482113 
L 88.174896 123.893023 
L 88.826813 119.921547 
L 89.478729 124.44074 
L 90.130646 130.603409 
L 91.43448 111.567848 
L 92.086396 111.567848 
L 92.738313 96.914345 
L 93.39023 112.389504 
L 94.042147 119.647607 
L 94.694064 117.730354 
L 95.34598 105.542148 
L 95.997897 117.319607 
L 96.649814 115.676131 
L 97.301731 112.526474 
L 97.953647 112.526474 
L 98.605564 106.363805 
L 99.257481 121.56486 
L 99.909398 116.908697 
L 100.561314 118.278234 
L 101.213231 131.288259 
L 102.517065 139.368019 
L 103.168981 138.272422 
L 104.472815 146.352345 
L 105.124732 154.295298 
L 105.776648 157.719057 
L 106.428565 160.184027 
L 107.080482 159.636311 
L 107.732399 122.11274 
L 108.384315 130.055693 
L 109.036232 122.38668 
L 109.688149 124.98862 
L 110.340066 121.56486 
L 111.643899 103.487925 
L 112.295816 103.487925 
L 112.947733 100.749015 
L 113.59965 100.475075 
L 114.903483 118.141264 
L 115.5554 118.141264 
L 116.207317 116.634757 
L 116.859233 136.355169 
L 117.51115 146.900225 
L 118.163067 146.900225 
L 118.814984 146.352345 
L 119.4669 147.995821 
L 120.118817 146.489315 
L 120.770734 158.677684 
L 121.422651 158.129804 
L 122.074567 158.129804 
L 122.726484 168.26395 
L 123.378401 152.515014 
L 124.030318 131.699006 
L 124.682234 131.699006 
L 125.334151 137.724706 
L 125.986068 155.664834 
L 126.637985 166.346697 
L 127.289901 162.23825 
L 127.941818 161.690534 
L 128.593735 163.881564 
L 129.245652 172.372396 
L 129.897568 164.429443 
L 130.549485 174.015709 
L 131.201402 176.069933 
L 131.853319 160.594937 
L 132.505235 153.747581 
L 133.157152 155.116954 
L 133.809069 157.445117 
L 134.460986 166.483667 
L 135.112903 166.620637 
L 135.764819 163.881564 
L 136.416736 165.2511 
L 137.068653 168.811667 
L 137.72057 160.868714 
L 138.372486 160.868714 
L 139.67632 150.734731 
L 140.328237 161.553564 
L 140.980153 161.96431 
L 141.63207 162.78613 
L 142.283987 142.654809 
L 142.935904 129.234036 
L 144.239737 119.09989 
L 144.891654 120.332457 
L 145.543571 119.921547 
L 146.195487 110.882998 
L 146.847404 107.459401 
L 147.499321 112.389504 
L 148.151238 114.443727 
L 148.803154 113.211161 
L 149.455071 114.717504 
L 150.106988 133.205513 
L 150.758905 126.358156 
L 151.410821 127.59056 
L 152.062738 132.520663 
L 152.714655 128.960096 
L 153.366572 131.014319 
L 154.018488 125.39953 
L 154.670405 126.221186 
L 155.322322 126.768903 
L 155.974239 125.536337 
L 156.626156 138.409392 
L 157.278072 132.520663 
L 157.929989 123.345307 
L 158.581906 119.921547 
L 159.233823 120.332457 
L 159.885739 120.469427 
L 160.537656 122.24971 
L 161.189573 128.960096 
L 161.84149 130.877349 
L 163.145323 140.052869 
L 163.79724 133.205513 
L 164.449157 138.546362 
L 165.101073 124.303933 
L 165.75299 112.526474 
L 166.404907 110.882998 
L 167.056824 107.733178 
L 167.70874 105.679118 
L 168.360657 92.395152 
L 169.012574 95.544972 
L 169.664491 85.547796 
L 170.316407 84.86311 
L 170.968324 87.05414 
L 171.620241 74.865934 
L 172.272158 79.933007 
L 172.924074 74.455024 
L 173.575991 80.754663 
L 174.227908 78.97438 
L 174.879825 78.56347 
L 175.531742 87.191109 
L 176.183658 81.57632 
L 176.835575 78.28953 
L 178.139409 95.681942 
L 178.791325 95.134062 
L 179.443242 93.764689 
L 180.095159 102.940045 
L 180.747076 107.596371 
L 181.398992 109.102714 
L 182.050909 114.306757 
L 182.702826 113.895847 
L 183.354743 114.306757 
L 184.006659 114.306757 
L 184.658576 113.211161 
L 185.310493 108.281058 
L 185.96241 110.198311 
L 186.614326 108.007118 
L 187.266243 110.198311 
L 187.91816 114.717504 
L 188.570077 106.089865 
L 189.221993 108.828774 
L 189.87391 117.045667 
L 190.525827 115.265384 
L 191.177744 145.530688 
L 191.82966 148.954448 
L 192.481577 137.313796 
L 193.133494 144.298122 
L 193.785411 148.817478 
L 195.089244 132.246886 
L 195.741161 144.161152 
L 196.393078 140.463615 
L 197.044995 145.256748 
L 197.696911 152.378044 
L 198.348828 170.592113 
L 199.652662 178.945812 
L 200.304578 176.480843 
L 200.956495 176.480843 
L 201.608412 176.754619 
L 202.912245 194.284001 
L 203.564162 192.503555 
L 204.216079 187.299675 
L 204.867996 208.25249 
L 205.519912 212.223966 
L 206.171829 223.727649 
L 206.823746 221.262516 
L 207.475663 222.632052 
L 208.127579 233.176945 
L 208.779496 233.724662 
L 209.431413 238.791734 
L 210.08333 242.352464 
L 211.387163 244.132747 
L 212.03908 240.982928 
L 212.690997 253.719013 
L 213.99483 239.476584 
L 214.646747 238.928704 
L 215.298664 236.326765 
L 215.950581 225.918679 
L 216.602497 219.756173 
L 217.254414 223.316739 
L 217.906331 216.058473 
L 218.558248 216.880293 
L 219.210164 219.071323 
L 219.862081 217.838919 
L 220.513998 211.40231 
L 221.165915 216.469383 
L 222.469748 233.313915 
L 223.121665 233.039975 
L 223.773582 236.874481 
L 224.425498 237.011451 
L 225.729332 245.776061 
L 226.381249 246.050001 
L 227.033165 242.626241 
L 227.685082 230.164095 
L 228.336999 242.900181 
L 228.988916 262.483623 
L 229.640832 262.483623 
L 230.292749 264.811786 
L 230.944666 284.669168 
L 231.596583 295.35103 
L 232.248499 295.488 
L 232.900416 294.80315 
L 233.552333 292.33818 
L 234.20425 287.134137 
L 234.856166 285.079914 
L 235.508083 288.366704 
L 236.16 281.793288 
L 236.811917 277.547871 
L 237.463834 276.863185 
L 238.11575 268.509322 
L 238.767667 271.659142 
L 239.419584 265.907382 
L 240.071501 261.524996 
L 240.723417 258.375176 
L 241.375334 248.65194 
L 242.027251 243.721837 
L 242.679168 243.995777 
L 243.331084 245.228344 
L 243.983001 247.830284 
L 244.634918 238.380988 
L 245.286835 239.065674 
L 245.938751 239.065674 
L 246.590668 245.639091 
L 247.242585 243.448061 
L 247.894502 249.06285 
L 248.546418 245.776061 
L 249.850252 235.778885 
L 250.502169 248.65194 
L 251.154085 246.734687 
L 251.806002 228.794559 
L 252.457919 225.233992 
L 253.109836 223.042799 
L 253.761752 204.007237 
L 254.413669 200.994387 
L 255.065586 194.147031 
L 255.717503 199.077134 
L 256.369419 190.997211 
L 257.021336 191.544928 
L 257.673253 202.774671 
L 258.32517 208.11552 
L 258.977087 212.086997 
L 259.629003 205.102834 
L 260.28092 213.867443 
L 260.932837 218.523606 
L 261.584754 218.523606 
L 262.23667 212.771846 
L 262.888587 213.319563 
L 263.540504 206.198267 
L 264.192421 212.634876 
L 264.844337 205.92449 
L 265.496254 204.554954 
L 266.148171 208.25249 
L 266.800088 213.730473 
L 267.452004 213.730473 
L 268.103921 216.880293 
L 268.755838 211.40231 
L 269.407755 203.322387 
L 270.059671 197.022911 
L 270.711588 192.366585 
L 271.363505 216.880293 
L 272.015422 218.112696 
L 272.667338 218.934353 
L 273.319255 205.51358 
L 273.971172 199.487881 
L 274.623089 194.694748 
L 275.275005 197.707598 
L 275.926922 192.366585 
L 276.578839 194.010061 
L 277.230756 197.159881 
L 277.882673 197.570628 
L 278.534589 196.201254 
L 279.186506 190.175555 
L 279.838423 197.570628 
L 280.49034 215.236816 
L 281.142256 210.991563 
L 281.794173 210.991563 
L 282.44609 219.619203 
L 283.098007 225.097022 
L 284.40184 242.626241 
L 285.053757 242.626241 
L 285.705674 243.995777 
L 286.35759 240.298241 
L 287.009507 241.941554 
L 287.661424 259.196996 
L 288.313341 255.362326 
L 290.269091 241.393838 
L 290.921008 242.626241 
L 291.572924 242.626241 
L 292.224841 255.636266 
L 292.876758 252.760387 
L 293.528675 252.897357 
L 294.180591 250.980103 
L 294.832508 250.432224 
L 295.484425 251.117073 
L 296.136342 264.537846 
L 296.788258 270.289605 
L 297.440175 269.604919 
L 298.092092 267.002979 
L 298.744009 266.866009 
L 299.395926 273.302455 
L 300.047842 275.082738 
L 300.699759 259.607743 
L 301.351676 247.282567 
L 302.003593 239.887331 
L 302.655509 238.791734 
L 303.307426 230.848782 
L 303.959343 231.396662 
L 304.61126 229.616378 
L 305.263176 231.259692 
L 305.915093 236.189795 
L 306.56701 242.626241 
L 307.218927 240.572018 
L 307.870843 240.572018 
L 308.52276 227.972902 
L 309.174677 220.577829 
L 309.826594 216.880293 
L 310.47851 223.179769 
L 311.130427 218.797546 
L 312.434261 203.04861 
L 313.086177 198.392284 
L 313.738094 192.640525 
L 314.390011 178.945812 
L 315.041928 191.271151 
L 315.693844 177.439469 
L 316.345761 185.245452 
L 316.997678 200.857417 
L 317.649595 199.077134 
L 318.301512 186.751795 
L 318.953428 183.875915 
L 319.605345 169.222576 
L 320.257262 163.333847 
L 321.561095 165.11413 
L 322.213012 182.369572 
L 322.864929 186.067108 
L 323.516846 194.284001 
L 324.168762 194.831718 
L 324.820679 198.255314 
L 325.472596 192.092808 
L 326.124513 190.038585 
L 326.776429 191.407958 
L 327.428346 187.710422 
L 328.080263 203.870267 
L 328.73218 203.733297 
L 329.384096 207.020087 
L 330.036013 208.93734 
L 330.68793 217.564979 
L 331.339847 230.027125 
L 331.991763 233.861631 
L 332.64368 233.587855 
L 333.295597 230.711812 
L 333.947514 233.998601 
L 334.59943 238.380988 
L 335.251347 226.329589 
L 335.903264 226.055649 
L 337.207097 197.707598 
L 337.859014 200.720447 
L 338.510931 194.147031 
L 339.814765 195.379434 
L 340.466681 201.405134 
L 341.118598 193.873091 
L 341.770515 197.296688 
L 342.422432 193.188405 
L 343.074348 197.296688 
L 343.726265 197.022911 
L 344.378182 181.000036 
L 345.030099 196.748971 
L 345.682015 205.65055 
L 346.333932 206.472207 
L 346.985849 209.211117 
L 347.637766 194.557778 
L 348.289682 200.035761 
L 348.941599 201.816044 
L 349.593516 191.271151 
L 350.897349 207.293864 
L 351.549266 192.640525 
L 352.201183 189.216928 
L 352.8531 180.315349 
L 353.505016 180.315349 
L 354.156933 172.783143 
L 354.80885 198.118508 
L 355.460767 180.589126 
L 356.112683 183.601975 
L 356.7646 187.162705 
L 357.416517 175.385246 
L 358.068434 189.216928 
L 358.72035 178.124156 
L 359.372267 182.506379 
L 360.024184 179.219752 
L 360.676101 178.261126 
L 361.328018 181.547752 
L 362.631851 153.610611 
L 363.283768 145.119778 
L 363.935685 140.463615 
L 365.239518 132.794603 
L 365.891435 132.931573 
L 366.543352 133.616259 
L 367.195268 136.355169 
L 367.847185 135.396542 
L 368.499102 141.833152 
L 369.151019 157.308147 
L 369.802935 147.310972 
L 370.454852 155.938611 
L 371.106769 155.938611 
L 372.410602 164.155504 
L 373.062519 161.279624 
L 373.714436 160.047057 
L 374.366353 159.088431 
L 375.018269 154.843178 
L 375.670186 153.473641 
L 376.322103 158.540714 
L 376.97402 149.365195 
L 377.625936 148.680508 
L 378.277853 139.368019 
L 378.92977 155.253924 
L 379.581687 155.938611 
L 380.233604 153.884551 
L 380.88552 162.23825 
L 382.189354 168.67486 
L 382.841271 174.700396 
L 383.493187 174.152679 
L 384.145104 175.659023 
L 384.797021 175.932963 
L 385.448938 179.904439 
L 386.752771 174.152679 
L 387.404688 168.12698 
L 388.056605 170.181203 
L 388.708521 159.225401 
L 389.360438 157.582087 
L 390.012355 161.82734 
L 390.664272 155.253924 
L 391.316188 156.760431 
L 391.968105 165.52504 
L 392.620022 164.84019 
L 393.923855 174.563589 
L 394.575772 168.67486 
L 395.227689 173.467993 
L 395.879606 181.137006 
L 396.531522 186.751795 
L 397.183439 184.560602 
L 397.835356 177.713246 
L 398.487273 166.620637 
L 398.487273 166.620637 
" style="fill:none;opacity:0.6;stroke:#ff7f0e;stroke-linecap:square;stroke-width:0.6;"/>
   </g>
   <g id="patch_3">
    <path d="M 57.6 307.584 
L 57.6 41.472 
" style="fill:none;stroke:#000000;stroke-linecap:square;stroke-linejoin:miter;stroke-width:0.8;"/>
   </g>
   <g id="patch_4">
    <path d="M 414.72 307.584 
L 414.72 41.472 
" style="fill:none;stroke:#000000;stroke-linecap:square;stroke-linejoin:miter;stroke-width:0.8;"/>
   </g>
   <g id="patch_5">
    <path d="M 57.6 307.584 
L 414.72 307.584 
" style="fill:none;stroke:#000000;stroke-linecap:square;stroke-linejoin:miter;stroke-width:0.8;"/>
   </g>
   <g id="patch_6">
    <path d="M 57.6 41.472 
L 414.72 41.472 
" style="fill:none;stroke:#000000;stroke-linecap:square;stroke-linejoin:miter;stroke-width:0.8;"/>
   </g>
   <g id="legend_1">
    <g id="patch_7">
     <path d="M 344.929375 78.82825 
L 407.72 78.82825 
Q 409.72 78.82825 409.72 76.82825 
L 409.72 48.472 
Q 409.72 46.472 407.72 46.472 
L 344.929375 46.472 
Q 342.929375 46.472 342.929375 48.472 
L 342.929375 76.82825 
Q 342.929375 78.82825 344.929375 78.82825 
z
" style="fill:#ffffff;opacity:0.8;stroke:#cccccc;stroke-linejoin:miter;"/>
    </g>
    <g id="line2d_16">
     <path d="M 346.929375 54.570437 
L 366.929375 54.570437 
" style="fill:none;opacity:0.6;stroke:#1f77b4;stroke-linecap:square;stroke-width:0.6;"/>
    </g>
    <g id="line2d_17"/>
    <g id="text_14">
     <!-- yhat -->
     <defs>
      <path d="M 32.171875 -5.078125 
Q 28.375 -14.84375 24.75 -17.8125 
Q 21.140625 -20.796875 15.09375 -20.796875 
L 7.90625 -20.796875 
L 7.90625 -13.28125 
L 13.1875 -13.28125 
Q 16.890625 -13.28125 18.9375 -11.515625 
Q 21 -9.765625 23.484375 -3.21875 
L 25.09375 0.875 
L 2.984375 54.6875 
L 12.5 54.6875 
L 29.59375 11.921875 
L 46.6875 54.6875 
L 56.203125 54.6875 
z
" id="DejaVuSans-79"/>
      <path d="M 54.890625 33.015625 
L 54.890625 0 
L 45.90625 0 
L 45.90625 32.71875 
Q 45.90625 40.484375 42.875 44.328125 
Q 39.84375 48.1875 33.796875 48.1875 
Q 26.515625 48.1875 22.3125 43.546875 
Q 18.109375 38.921875 18.109375 30.90625 
L 18.109375 0 
L 9.078125 0 
L 9.078125 75.984375 
L 18.109375 75.984375 
L 18.109375 46.1875 
Q 21.34375 51.125 25.703125 53.5625 
Q 30.078125 56 35.796875 56 
Q 45.21875 56 50.046875 50.171875 
Q 54.890625 44.34375 54.890625 33.015625 
z
" id="DejaVuSans-68"/>
      <path d="M 34.28125 27.484375 
Q 23.390625 27.484375 19.1875 25 
Q 14.984375 22.515625 14.984375 16.5 
Q 14.984375 11.71875 18.140625 8.90625 
Q 21.296875 6.109375 26.703125 6.109375 
Q 34.1875 6.109375 38.703125 11.40625 
Q 43.21875 16.703125 43.21875 25.484375 
L 43.21875 27.484375 
z
M 52.203125 31.203125 
L 52.203125 0 
L 43.21875 0 
L 43.21875 8.296875 
Q 40.140625 3.328125 35.546875 0.953125 
Q 30.953125 -1.421875 24.3125 -1.421875 
Q 15.921875 -1.421875 10.953125 3.296875 
Q 6 8.015625 6 15.921875 
Q 6 25.140625 12.171875 29.828125 
Q 18.359375 34.515625 30.609375 34.515625 
L 43.21875 34.515625 
L 43.21875 35.40625 
Q 43.21875 41.609375 39.140625 45 
Q 35.0625 48.390625 27.6875 48.390625 
Q 23 48.390625 18.546875 47.265625 
Q 14.109375 46.140625 10.015625 43.890625 
L 10.015625 52.203125 
Q 14.9375 54.109375 19.578125 55.046875 
Q 24.21875 56 28.609375 56 
Q 40.484375 56 46.34375 49.84375 
Q 52.203125 43.703125 52.203125 31.203125 
z
" id="DejaVuSans-61"/>
      <path d="M 18.3125 70.21875 
L 18.3125 54.6875 
L 36.8125 54.6875 
L 36.8125 47.703125 
L 18.3125 47.703125 
L 18.3125 18.015625 
Q 18.3125 11.328125 20.140625 9.421875 
Q 21.96875 7.515625 27.59375 7.515625 
L 36.8125 7.515625 
L 36.8125 0 
L 27.59375 0 
Q 17.1875 0 13.234375 3.875 
Q 9.28125 7.765625 9.28125 18.015625 
L 9.28125 47.703125 
L 2.6875 47.703125 
L 2.6875 54.6875 
L 9.28125 54.6875 
L 9.28125 70.21875 
z
" id="DejaVuSans-74"/>
     </defs>
     <g transform="translate(374.929375 58.070437)scale(0.1 -0.1)">
      <use xlink:href="#DejaVuSans-79"/>
      <use x="59.179688" xlink:href="#DejaVuSans-68"/>
      <use x="122.558594" xlink:href="#DejaVuSans-61"/>
      <use x="183.837891" xlink:href="#DejaVuSans-74"/>
     </g>
    </g>
    <g id="line2d_18">
     <path d="M 346.929375 69.248562 
L 366.929375 69.248562 
" style="fill:none;opacity:0.6;stroke:#ff7f0e;stroke-linecap:square;stroke-width:0.6;"/>
    </g>
    <g id="line2d_19"/>
    <g id="text_15">
     <!-- actual -->
     <defs>
      <path d="M 48.78125 52.59375 
L 48.78125 44.1875 
Q 44.96875 46.296875 41.140625 47.34375 
Q 37.3125 48.390625 33.40625 48.390625 
Q 24.65625 48.390625 19.8125 42.84375 
Q 14.984375 37.3125 14.984375 27.296875 
Q 14.984375 17.28125 19.8125 11.734375 
Q 24.65625 6.203125 33.40625 6.203125 
Q 37.3125 6.203125 41.140625 7.25 
Q 44.96875 8.296875 48.78125 10.40625 
L 48.78125 2.09375 
Q 45.015625 0.34375 40.984375 -0.53125 
Q 36.96875 -1.421875 32.421875 -1.421875 
Q 20.0625 -1.421875 12.78125 6.34375 
Q 5.515625 14.109375 5.515625 27.296875 
Q 5.515625 40.671875 12.859375 48.328125 
Q 20.21875 56 33.015625 56 
Q 37.15625 56 41.109375 55.140625 
Q 45.0625 54.296875 48.78125 52.59375 
z
" id="DejaVuSans-63"/>
      <path d="M 8.5 21.578125 
L 8.5 54.6875 
L 17.484375 54.6875 
L 17.484375 21.921875 
Q 17.484375 14.15625 20.5 10.265625 
Q 23.53125 6.390625 29.59375 6.390625 
Q 36.859375 6.390625 41.078125 11.03125 
Q 45.3125 15.671875 45.3125 23.6875 
L 45.3125 54.6875 
L 54.296875 54.6875 
L 54.296875 0 
L 45.3125 0 
L 45.3125 8.40625 
Q 42.046875 3.421875 37.71875 1 
Q 33.40625 -1.421875 27.6875 -1.421875 
Q 18.265625 -1.421875 13.375 4.4375 
Q 8.5 10.296875 8.5 21.578125 
z
M 31.109375 56 
z
" id="DejaVuSans-75"/>
      <path d="M 9.421875 75.984375 
L 18.40625 75.984375 
L 18.40625 0 
L 9.421875 0 
z
" id="DejaVuSans-6c"/>
     </defs>
     <g transform="translate(374.929375 72.748562)scale(0.1 -0.1)">
      <use xlink:href="#DejaVuSans-61"/>
      <use x="61.279297" xlink:href="#DejaVuSans-63"/>
      <use x="116.259766" xlink:href="#DejaVuSans-74"/>
      <use x="155.46875" xlink:href="#DejaVuSans-75"/>
      <use x="218.847656" xlink:href="#DejaVuSans-61"/>
      <use x="280.126953" xlink:href="#DejaVuSans-6c"/>
     </g>
    </g>
   </g>
  </g>
 </g>
 <defs>
  <clipPath id="p5e1795c949">
   <rect height="266.112" width="357.12" x="57.6" y="41.472"/>
  </clipPath>
 </defs>
</svg>
