<?xml version="1.0" encoding="utf-8" standalone="no"?>
<!DOCTYPE svg PUBLIC "-//W3C//DTD SVG 1.1//EN"
  "http://www.w3.org/Graphics/SVG/1.1/DTD/svg11.dtd">
<!-- Created with matplotlib (https://matplotlib.org/) -->
<svg height="576pt" version="1.1" viewBox="0 0 2304 576" width="2304pt" xmlns="http://www.w3.org/2000/svg" xmlns:xlink="http://www.w3.org/1999/xlink">
 <defs>
  <style type="text/css">
*{stroke-linecap:butt;stroke-linejoin:round;}
  </style>
 </defs>
 <g id="figure_1">
  <g id="patch_1">
   <path d="M 0 576 
L 2304 576 
L 2304 0 
L 0 0 
z
" style="fill:#ffffff;"/>
  </g>
  <g id="axes_1">
   <g id="patch_2">
    <path d="M 288 504 
L 2073.6 504 
L 2073.6 69.12 
L 288 69.12 
z
" style="fill:#ffffff;"/>
   </g>
   <g id="matplotlib.axis_1">
    <g id="xtick_1">
     <g id="line2d_1">
      <path clip-path="url(#p593c16f614)" d="M 405.750304 504 
L 405.750304 69.12 
" style="fill:none;stroke:#b0b0b0;stroke-linecap:square;stroke-width:0.8;"/>
     </g>
     <g id="line2d_2">
      <defs>
       <path d="M 0 0 
L 0 3.5 
" id="mdedaa74d44" style="stroke:#000000;stroke-width:0.8;"/>
      </defs>
      <g>
       <use style="stroke:#000000;stroke-width:0.8;" x="405.750304" xlink:href="#mdedaa74d44" y="504"/>
      </g>
     </g>
     <g id="text_1">
      <!-- 1950 -->
      <defs>
       <path d="M 12.40625 8.296875 
L 28.515625 8.296875 
L 28.515625 63.921875 
L 10.984375 60.40625 
L 10.984375 69.390625 
L 28.421875 72.90625 
L 38.28125 72.90625 
L 38.28125 8.296875 
L 54.390625 8.296875 
L 54.390625 0 
L 12.40625 0 
z
" id="DejaVuSans-49"/>
       <path d="M 10.984375 1.515625 
L 10.984375 10.5 
Q 14.703125 8.734375 18.5 7.8125 
Q 22.3125 6.890625 25.984375 6.890625 
Q 35.75 6.890625 40.890625 13.453125 
Q 46.046875 20.015625 46.78125 33.40625 
Q 43.953125 29.203125 39.59375 26.953125 
Q 35.25 24.703125 29.984375 24.703125 
Q 19.046875 24.703125 12.671875 31.3125 
Q 6.296875 37.9375 6.296875 49.421875 
Q 6.296875 60.640625 12.9375 67.421875 
Q 19.578125 74.21875 30.609375 74.21875 
Q 43.265625 74.21875 49.921875 64.515625 
Q 56.59375 54.828125 56.59375 36.375 
Q 56.59375 19.140625 48.40625 8.859375 
Q 40.234375 -1.421875 26.421875 -1.421875 
Q 22.703125 -1.421875 18.890625 -0.6875 
Q 15.09375 0.046875 10.984375 1.515625 
z
M 30.609375 32.421875 
Q 37.25 32.421875 41.125 36.953125 
Q 45.015625 41.5 45.015625 49.421875 
Q 45.015625 57.28125 41.125 61.84375 
Q 37.25 66.40625 30.609375 66.40625 
Q 23.96875 66.40625 20.09375 61.84375 
Q 16.21875 57.28125 16.21875 49.421875 
Q 16.21875 41.5 20.09375 36.953125 
Q 23.96875 32.421875 30.609375 32.421875 
z
" id="DejaVuSans-57"/>
       <path d="M 10.796875 72.90625 
L 49.515625 72.90625 
L 49.515625 64.59375 
L 19.828125 64.59375 
L 19.828125 46.734375 
Q 21.96875 47.46875 24.109375 47.828125 
Q 26.265625 48.1875 28.421875 48.1875 
Q 40.625 48.1875 47.75 41.5 
Q 54.890625 34.8125 54.890625 23.390625 
Q 54.890625 11.625 47.5625 5.09375 
Q 40.234375 -1.421875 26.90625 -1.421875 
Q 22.3125 -1.421875 17.546875 -0.640625 
Q 12.796875 0.140625 7.71875 1.703125 
L 7.71875 11.625 
Q 12.109375 9.234375 16.796875 8.0625 
Q 21.484375 6.890625 26.703125 6.890625 
Q 35.15625 6.890625 40.078125 11.328125 
Q 45.015625 15.765625 45.015625 23.390625 
Q 45.015625 31 40.078125 35.4375 
Q 35.15625 39.890625 26.703125 39.890625 
Q 22.75 39.890625 18.8125 39.015625 
Q 14.890625 38.140625 10.796875 36.28125 
z
" id="DejaVuSans-53"/>
       <path d="M 31.78125 66.40625 
Q 24.171875 66.40625 20.328125 58.90625 
Q 16.5 51.421875 16.5 36.375 
Q 16.5 21.390625 20.328125 13.890625 
Q 24.171875 6.390625 31.78125 6.390625 
Q 39.453125 6.390625 43.28125 13.890625 
Q 47.125 21.390625 47.125 36.375 
Q 47.125 51.421875 43.28125 58.90625 
Q 39.453125 66.40625 31.78125 66.40625 
z
M 31.78125 74.21875 
Q 44.046875 74.21875 50.515625 64.515625 
Q 56.984375 54.828125 56.984375 36.375 
Q 56.984375 17.96875 50.515625 8.265625 
Q 44.046875 -1.421875 31.78125 -1.421875 
Q 19.53125 -1.421875 13.0625 8.265625 
Q 6.59375 17.96875 6.59375 36.375 
Q 6.59375 54.828125 13.0625 64.515625 
Q 19.53125 74.21875 31.78125 74.21875 
z
" id="DejaVuSans-48"/>
      </defs>
      <g transform="translate(393.025304 518.598438)scale(0.1 -0.1)">
       <use xlink:href="#DejaVuSans-49"/>
       <use x="63.623047" xlink:href="#DejaVuSans-57"/>
       <use x="127.246094" xlink:href="#DejaVuSans-53"/>
       <use x="190.869141" xlink:href="#DejaVuSans-48"/>
      </g>
     </g>
    </g>
    <g id="xtick_2">
     <g id="line2d_3">
      <path clip-path="url(#p593c16f614)" d="M 636.518026 504 
L 636.518026 69.12 
" style="fill:none;stroke:#b0b0b0;stroke-linecap:square;stroke-width:0.8;"/>
     </g>
     <g id="line2d_4">
      <g>
       <use style="stroke:#000000;stroke-width:0.8;" x="636.518026" xlink:href="#mdedaa74d44" y="504"/>
      </g>
     </g>
     <g id="text_2">
      <!-- 1960 -->
      <defs>
       <path d="M 33.015625 40.375 
Q 26.375 40.375 22.484375 35.828125 
Q 18.609375 31.296875 18.609375 23.390625 
Q 18.609375 15.53125 22.484375 10.953125 
Q 26.375 6.390625 33.015625 6.390625 
Q 39.65625 6.390625 43.53125 10.953125 
Q 47.40625 15.53125 47.40625 23.390625 
Q 47.40625 31.296875 43.53125 35.828125 
Q 39.65625 40.375 33.015625 40.375 
z
M 52.59375 71.296875 
L 52.59375 62.3125 
Q 48.875 64.0625 45.09375 64.984375 
Q 41.3125 65.921875 37.59375 65.921875 
Q 27.828125 65.921875 22.671875 59.328125 
Q 17.53125 52.734375 16.796875 39.40625 
Q 19.671875 43.65625 24.015625 45.921875 
Q 28.375 48.1875 33.59375 48.1875 
Q 44.578125 48.1875 50.953125 41.515625 
Q 57.328125 34.859375 57.328125 23.390625 
Q 57.328125 12.15625 50.6875 5.359375 
Q 44.046875 -1.421875 33.015625 -1.421875 
Q 20.359375 -1.421875 13.671875 8.265625 
Q 6.984375 17.96875 6.984375 36.375 
Q 6.984375 53.65625 15.1875 63.9375 
Q 23.390625 74.21875 37.203125 74.21875 
Q 40.921875 74.21875 44.703125 73.484375 
Q 48.484375 72.75 52.59375 71.296875 
z
" id="DejaVuSans-54"/>
      </defs>
      <g transform="translate(623.793026 518.598438)scale(0.1 -0.1)">
       <use xlink:href="#DejaVuSans-49"/>
       <use x="63.623047" xlink:href="#DejaVuSans-57"/>
       <use x="127.246094" xlink:href="#DejaVuSans-54"/>
       <use x="190.869141" xlink:href="#DejaVuSans-48"/>
      </g>
     </g>
    </g>
    <g id="xtick_3">
     <g id="line2d_5">
      <path clip-path="url(#p593c16f614)" d="M 867.348937 504 
L 867.348937 69.12 
" style="fill:none;stroke:#b0b0b0;stroke-linecap:square;stroke-width:0.8;"/>
     </g>
     <g id="line2d_6">
      <g>
       <use style="stroke:#000000;stroke-width:0.8;" x="867.348937" xlink:href="#mdedaa74d44" y="504"/>
      </g>
     </g>
     <g id="text_3">
      <!-- 1970 -->
      <defs>
       <path d="M 8.203125 72.90625 
L 55.078125 72.90625 
L 55.078125 68.703125 
L 28.609375 0 
L 18.3125 0 
L 43.21875 64.59375 
L 8.203125 64.59375 
z
" id="DejaVuSans-55"/>
      </defs>
      <g transform="translate(854.623937 518.598438)scale(0.1 -0.1)">
       <use xlink:href="#DejaVuSans-49"/>
       <use x="63.623047" xlink:href="#DejaVuSans-57"/>
       <use x="127.246094" xlink:href="#DejaVuSans-55"/>
       <use x="190.869141" xlink:href="#DejaVuSans-48"/>
      </g>
     </g>
    </g>
    <g id="xtick_4">
     <g id="line2d_7">
      <path clip-path="url(#p593c16f614)" d="M 1098.116658 504 
L 1098.116658 69.12 
" style="fill:none;stroke:#b0b0b0;stroke-linecap:square;stroke-width:0.8;"/>
     </g>
     <g id="line2d_8">
      <g>
       <use style="stroke:#000000;stroke-width:0.8;" x="1098.116658" xlink:href="#mdedaa74d44" y="504"/>
      </g>
     </g>
     <g id="text_4">
      <!-- 1980 -->
      <defs>
       <path d="M 31.78125 34.625 
Q 24.75 34.625 20.71875 30.859375 
Q 16.703125 27.09375 16.703125 20.515625 
Q 16.703125 13.921875 20.71875 10.15625 
Q 24.75 6.390625 31.78125 6.390625 
Q 38.8125 6.390625 42.859375 10.171875 
Q 46.921875 13.96875 46.921875 20.515625 
Q 46.921875 27.09375 42.890625 30.859375 
Q 38.875 34.625 31.78125 34.625 
z
M 21.921875 38.8125 
Q 15.578125 40.375 12.03125 44.71875 
Q 8.5 49.078125 8.5 55.328125 
Q 8.5 64.0625 14.71875 69.140625 
Q 20.953125 74.21875 31.78125 74.21875 
Q 42.671875 74.21875 48.875 69.140625 
Q 55.078125 64.0625 55.078125 55.328125 
Q 55.078125 49.078125 51.53125 44.71875 
Q 48 40.375 41.703125 38.8125 
Q 48.828125 37.15625 52.796875 32.3125 
Q 56.78125 27.484375 56.78125 20.515625 
Q 56.78125 9.90625 50.3125 4.234375 
Q 43.84375 -1.421875 31.78125 -1.421875 
Q 19.734375 -1.421875 13.25 4.234375 
Q 6.78125 9.90625 6.78125 20.515625 
Q 6.78125 27.484375 10.78125 32.3125 
Q 14.796875 37.15625 21.921875 38.8125 
z
M 18.3125 54.390625 
Q 18.3125 48.734375 21.84375 45.5625 
Q 25.390625 42.390625 31.78125 42.390625 
Q 38.140625 42.390625 41.71875 45.5625 
Q 45.3125 48.734375 45.3125 54.390625 
Q 45.3125 60.0625 41.71875 63.234375 
Q 38.140625 66.40625 31.78125 66.40625 
Q 25.390625 66.40625 21.84375 63.234375 
Q 18.3125 60.0625 18.3125 54.390625 
z
" id="DejaVuSans-56"/>
      </defs>
      <g transform="translate(1085.391658 518.598438)scale(0.1 -0.1)">
       <use xlink:href="#DejaVuSans-49"/>
       <use x="63.623047" xlink:href="#DejaVuSans-57"/>
       <use x="127.246094" xlink:href="#DejaVuSans-56"/>
       <use x="190.869141" xlink:href="#DejaVuSans-48"/>
      </g>
     </g>
    </g>
    <g id="xtick_5">
     <g id="line2d_9">
      <path clip-path="url(#p593c16f614)" d="M 1328.947569 504 
L 1328.947569 69.12 
" style="fill:none;stroke:#b0b0b0;stroke-linecap:square;stroke-width:0.8;"/>
     </g>
     <g id="line2d_10">
      <g>
       <use style="stroke:#000000;stroke-width:0.8;" x="1328.947569" xlink:href="#mdedaa74d44" y="504"/>
      </g>
     </g>
     <g id="text_5">
      <!-- 1990 -->
      <g transform="translate(1316.222569 518.598438)scale(0.1 -0.1)">
       <use xlink:href="#DejaVuSans-49"/>
       <use x="63.623047" xlink:href="#DejaVuSans-57"/>
       <use x="127.246094" xlink:href="#DejaVuSans-57"/>
       <use x="190.869141" xlink:href="#DejaVuSans-48"/>
      </g>
     </g>
    </g>
    <g id="xtick_6">
     <g id="line2d_11">
      <path clip-path="url(#p593c16f614)" d="M 1559.715291 504 
L 1559.715291 69.12 
" style="fill:none;stroke:#b0b0b0;stroke-linecap:square;stroke-width:0.8;"/>
     </g>
     <g id="line2d_12">
      <g>
       <use style="stroke:#000000;stroke-width:0.8;" x="1559.715291" xlink:href="#mdedaa74d44" y="504"/>
      </g>
     </g>
     <g id="text_6">
      <!-- 2000 -->
      <defs>
       <path d="M 19.1875 8.296875 
L 53.609375 8.296875 
L 53.609375 0 
L 7.328125 0 
L 7.328125 8.296875 
Q 12.9375 14.109375 22.625 23.890625 
Q 32.328125 33.6875 34.8125 36.53125 
Q 39.546875 41.84375 41.421875 45.53125 
Q 43.3125 49.21875 43.3125 52.78125 
Q 43.3125 58.59375 39.234375 62.25 
Q 35.15625 65.921875 28.609375 65.921875 
Q 23.96875 65.921875 18.8125 64.3125 
Q 13.671875 62.703125 7.8125 59.421875 
L 7.8125 69.390625 
Q 13.765625 71.78125 18.9375 73 
Q 24.125 74.21875 28.421875 74.21875 
Q 39.75 74.21875 46.484375 68.546875 
Q 53.21875 62.890625 53.21875 53.421875 
Q 53.21875 48.921875 51.53125 44.890625 
Q 49.859375 40.875 45.40625 35.40625 
Q 44.1875 33.984375 37.640625 27.21875 
Q 31.109375 20.453125 19.1875 8.296875 
z
" id="DejaVuSans-50"/>
      </defs>
      <g transform="translate(1546.990291 518.598438)scale(0.1 -0.1)">
       <use xlink:href="#DejaVuSans-50"/>
       <use x="63.623047" xlink:href="#DejaVuSans-48"/>
       <use x="127.246094" xlink:href="#DejaVuSans-48"/>
       <use x="190.869141" xlink:href="#DejaVuSans-48"/>
      </g>
     </g>
    </g>
    <g id="xtick_7">
     <g id="line2d_13">
      <path clip-path="url(#p593c16f614)" d="M 1790.546202 504 
L 1790.546202 69.12 
" style="fill:none;stroke:#b0b0b0;stroke-linecap:square;stroke-width:0.8;"/>
     </g>
     <g id="line2d_14">
      <g>
       <use style="stroke:#000000;stroke-width:0.8;" x="1790.546202" xlink:href="#mdedaa74d44" y="504"/>
      </g>
     </g>
     <g id="text_7">
      <!-- 2010 -->
      <g transform="translate(1777.821202 518.598438)scale(0.1 -0.1)">
       <use xlink:href="#DejaVuSans-50"/>
       <use x="63.623047" xlink:href="#DejaVuSans-48"/>
       <use x="127.246094" xlink:href="#DejaVuSans-49"/>
       <use x="190.869141" xlink:href="#DejaVuSans-48"/>
      </g>
     </g>
    </g>
    <g id="xtick_8">
     <g id="line2d_15">
      <path clip-path="url(#p593c16f614)" d="M 2021.313924 504 
L 2021.313924 69.12 
" style="fill:none;stroke:#b0b0b0;stroke-linecap:square;stroke-width:0.8;"/>
     </g>
     <g id="line2d_16">
      <g>
       <use style="stroke:#000000;stroke-width:0.8;" x="2021.313924" xlink:href="#mdedaa74d44" y="504"/>
      </g>
     </g>
     <g id="text_8">
      <!-- 2020 -->
      <g transform="translate(2008.588924 518.598438)scale(0.1 -0.1)">
       <use xlink:href="#DejaVuSans-50"/>
       <use x="63.623047" xlink:href="#DejaVuSans-48"/>
       <use x="127.246094" xlink:href="#DejaVuSans-50"/>
       <use x="190.869141" xlink:href="#DejaVuSans-48"/>
      </g>
     </g>
    </g>
   </g>
   <g id="matplotlib.axis_2">
    <g id="ytick_1">
     <g id="line2d_17">
      <path clip-path="url(#p593c16f614)" d="M 288 456.493595 
L 2073.6 456.493595 
" style="fill:none;stroke:#b0b0b0;stroke-linecap:square;stroke-width:0.8;"/>
     </g>
     <g id="line2d_18">
      <defs>
       <path d="M 0 0 
L -3.5 0 
" id="m5a05f356fc" style="stroke:#000000;stroke-width:0.8;"/>
      </defs>
      <g>
       <use style="stroke:#000000;stroke-width:0.8;" x="288" xlink:href="#m5a05f356fc" y="456.493595"/>
      </g>
     </g>
     <g id="text_9">
      <!-- −6 -->
      <defs>
       <path d="M 10.59375 35.5 
L 73.1875 35.5 
L 73.1875 27.203125 
L 10.59375 27.203125 
z
" id="DejaVuSans-8722"/>
      </defs>
      <g transform="translate(266.257812 460.292813)scale(0.1 -0.1)">
       <use xlink:href="#DejaVuSans-8722"/>
       <use x="83.789062" xlink:href="#DejaVuSans-54"/>
      </g>
     </g>
    </g>
    <g id="ytick_2">
     <g id="line2d_19">
      <path clip-path="url(#p593c16f614)" d="M 288 395.003942 
L 2073.6 395.003942 
" style="fill:none;stroke:#b0b0b0;stroke-linecap:square;stroke-width:0.8;"/>
     </g>
     <g id="line2d_20">
      <g>
       <use style="stroke:#000000;stroke-width:0.8;" x="288" xlink:href="#m5a05f356fc" y="395.003942"/>
      </g>
     </g>
     <g id="text_10">
      <!-- −4 -->
      <defs>
       <path d="M 37.796875 64.3125 
L 12.890625 25.390625 
L 37.796875 25.390625 
z
M 35.203125 72.90625 
L 47.609375 72.90625 
L 47.609375 25.390625 
L 58.015625 25.390625 
L 58.015625 17.1875 
L 47.609375 17.1875 
L 47.609375 0 
L 37.796875 0 
L 37.796875 17.1875 
L 4.890625 17.1875 
L 4.890625 26.703125 
z
" id="DejaVuSans-52"/>
      </defs>
      <g transform="translate(266.257812 398.803161)scale(0.1 -0.1)">
       <use xlink:href="#DejaVuSans-8722"/>
       <use x="83.789062" xlink:href="#DejaVuSans-52"/>
      </g>
     </g>
    </g>
    <g id="ytick_3">
     <g id="line2d_21">
      <path clip-path="url(#p593c16f614)" d="M 288 333.51429 
L 2073.6 333.51429 
" style="fill:none;stroke:#b0b0b0;stroke-linecap:square;stroke-width:0.8;"/>
     </g>
     <g id="line2d_22">
      <g>
       <use style="stroke:#000000;stroke-width:0.8;" x="288" xlink:href="#m5a05f356fc" y="333.51429"/>
      </g>
     </g>
     <g id="text_11">
      <!-- −2 -->
      <g transform="translate(266.257812 337.313509)scale(0.1 -0.1)">
       <use xlink:href="#DejaVuSans-8722"/>
       <use x="83.789062" xlink:href="#DejaVuSans-50"/>
      </g>
     </g>
    </g>
    <g id="ytick_4">
     <g id="line2d_23">
      <path clip-path="url(#p593c16f614)" d="M 288 272.024637 
L 2073.6 272.024637 
" style="fill:none;stroke:#b0b0b0;stroke-linecap:square;stroke-width:0.8;"/>
     </g>
     <g id="line2d_24">
      <g>
       <use style="stroke:#000000;stroke-width:0.8;" x="288" xlink:href="#m5a05f356fc" y="272.024637"/>
      </g>
     </g>
     <g id="text_12">
      <!-- 0 -->
      <g transform="translate(274.6375 275.823856)scale(0.1 -0.1)">
       <use xlink:href="#DejaVuSans-48"/>
      </g>
     </g>
    </g>
    <g id="ytick_5">
     <g id="line2d_25">
      <path clip-path="url(#p593c16f614)" d="M 288 210.534985 
L 2073.6 210.534985 
" style="fill:none;stroke:#b0b0b0;stroke-linecap:square;stroke-width:0.8;"/>
     </g>
     <g id="line2d_26">
      <g>
       <use style="stroke:#000000;stroke-width:0.8;" x="288" xlink:href="#m5a05f356fc" y="210.534985"/>
      </g>
     </g>
     <g id="text_13">
      <!-- 2 -->
      <g transform="translate(274.6375 214.334204)scale(0.1 -0.1)">
       <use xlink:href="#DejaVuSans-50"/>
      </g>
     </g>
    </g>
    <g id="ytick_6">
     <g id="line2d_27">
      <path clip-path="url(#p593c16f614)" d="M 288 149.045332 
L 2073.6 149.045332 
" style="fill:none;stroke:#b0b0b0;stroke-linecap:square;stroke-width:0.8;"/>
     </g>
     <g id="line2d_28">
      <g>
       <use style="stroke:#000000;stroke-width:0.8;" x="288" xlink:href="#m5a05f356fc" y="149.045332"/>
      </g>
     </g>
     <g id="text_14">
      <!-- 4 -->
      <g transform="translate(274.6375 152.844551)scale(0.1 -0.1)">
       <use xlink:href="#DejaVuSans-52"/>
      </g>
     </g>
    </g>
    <g id="ytick_7">
     <g id="line2d_29">
      <path clip-path="url(#p593c16f614)" d="M 288 87.55568 
L 2073.6 87.55568 
" style="fill:none;stroke:#b0b0b0;stroke-linecap:square;stroke-width:0.8;"/>
     </g>
     <g id="line2d_30">
      <g>
       <use style="stroke:#000000;stroke-width:0.8;" x="288" xlink:href="#m5a05f356fc" y="87.55568"/>
      </g>
     </g>
     <g id="text_15">
      <!-- 6 -->
      <g transform="translate(274.6375 91.354899)scale(0.1 -0.1)">
       <use xlink:href="#DejaVuSans-54"/>
      </g>
     </g>
    </g>
   </g>
   <g id="line2d_31">
    <path clip-path="url(#p593c16f614)" d="M 369.163636 265.865774 
L 371.059319 276.199477 
L 373.01819 286.138166 
L 374.977062 277.712548 
L 376.872744 264.635447 
L 378.831616 268.826047 
L 380.727298 270.685275 
L 382.68617 277.397157 
L 384.645042 267.215804 
L 388.373217 238.628951 
L 390.268899 241.507866 
L 392.227771 241.129122 
L 394.123453 229.660557 
L 396.082325 240.124109 
L 398.041196 240.291045 
L 399.936879 254.053822 
L 401.89575 259.490746 
L 403.791432 481.754686 
L 405.750304 244.480431 
L 407.709176 285.931355 
L 409.478479 292.719361 
L 411.437351 273.811591 
L 413.333033 278.476378 
L 415.291905 278.962035 
L 417.187587 283.802672 
L 419.146459 290.854376 
L 421.105331 281.244037 
L 423.001013 281.661793 
L 424.959884 291.07802 
L 428.814438 280.739389 
L 430.77331 275.990353 
L 432.542614 277.392372 
L 434.501485 281.693318 
L 436.397168 294.423189 
L 438.356039 279.526694 
L 440.251721 280.937733 
L 442.210593 283.142065 
L 444.169465 270.721058 
L 446.065147 272.398418 
L 448.024019 272.218762 
L 449.919701 260.562573 
L 453.837444 276.195096 
L 455.669937 283.88382 
L 457.628809 278.195925 
L 459.524491 276.553309 
L 461.483363 280.739385 
L 465.337917 270.926452 
L 467.296789 267.525953 
L 469.192471 260.562573 
L 471.151342 275.783387 
L 473.047025 276.782408 
L 475.005896 282.020889 
L 476.964768 280.729136 
L 478.734072 279.828056 
L 480.692943 273.919552 
L 482.588625 276.530505 
L 484.547497 278.740745 
L 486.443179 274.572907 
L 488.402051 276.775952 
L 490.360923 275.990352 
L 492.256605 268.346478 
L 494.215477 263.574571 
L 496.111159 259.646643 
L 498.070031 244.7009 
L 500.028902 233.954918 
L 501.798206 202.546044 
L 503.757077 207.631319 
L 505.65276 224.679618 
L 507.611631 247.423907 
L 509.507314 255.043911 
L 511.466185 275.411839 
L 513.425057 281.691533 
L 515.320739 266.638653 
L 517.279611 263.837168 
L 519.175293 276.501546 
L 521.134165 279.752682 
L 523.093037 287.429823 
L 524.86234 288.85065 
L 526.821212 282.020888 
L 528.716894 280.729139 
L 530.675766 279.935278 
L 532.571448 276.292692 
L 534.53032 280.786871 
L 536.489191 283.985007 
L 538.384874 280.878313 
L 540.343745 271.16021 
L 542.239428 268.57688 
L 544.198299 270.721056 
L 546.157171 272.398416 
L 547.989664 276.816684 
L 549.948535 279.046117 
L 551.844218 279.998187 
L 553.803089 270.211458 
L 555.698772 267.234196 
L 557.657643 264.8259 
L 559.616515 264.939558 
L 561.512197 275.740692 
L 563.471069 279.142018 
L 565.366751 285.427926 
L 567.325623 274.015271 
L 569.284495 266.243769 
L 571.053798 263.829365 
L 573.01267 277.35836 
L 574.908352 280.763234 
L 576.867224 287.135682 
L 578.762906 263.836924 
L 580.721778 258.399473 
L 582.680649 271.481481 
L 586.535203 276.395272 
L 588.430886 260.757813 
L 590.389757 240.604735 
L 592.348629 248.65511 
L 594.117932 242.133878 
L 596.076804 199.163727 
L 597.972486 221.726001 
L 599.931358 246.674628 
L 601.82704 253.843909 
L 603.785912 231.875878 
L 605.744784 274.079468 
L 607.640466 270.721056 
L 609.599338 275.669535 
L 611.49502 281.415592 
L 613.453891 283.84385 
L 615.412763 292.865311 
L 617.182067 283.493727 
L 619.140938 279.046117 
L 622.995492 281.415592 
L 624.891175 288.225638 
L 626.850046 284.569448 
L 628.808918 277.397156 
L 630.7046 269.669561 
L 632.663472 259.286068 
L 634.559154 255.620434 
L 636.518026 261.848664 
L 638.476897 277.184625 
L 640.30939 282.282682 
L 642.268262 284.261746 
L 644.163944 302.085771 
L 646.122816 256.86648 
L 648.018498 247.132079 
L 649.97737 279.998209 
L 651.936242 260.757813 
L 653.831924 263.231586 
L 655.790795 272.735396 
L 657.686478 271.411364 
L 659.645349 249.10028 
L 661.604221 239.134401 
L 663.373525 257.763758 
L 665.332396 244.69291 
L 667.228079 265.355615 
L 669.18695 264.939558 
L 671.082632 268.346482 
L 673.041504 274.568332 
L 675.000376 276.076372 
L 676.896058 276.496057 
L 678.85493 281.63565 
L 680.750612 278.494999 
L 682.709484 278.258238 
L 684.668355 286.256267 
L 686.437659 283.985004 
L 688.396531 280.522365 
L 690.292213 286.227481 
L 692.251084 275.202163 
L 694.146767 274.111396 
L 696.105638 276.20427 
L 698.06451 276.028023 
L 699.960192 273.075656 
L 701.919064 267.779197 
L 703.814746 271.86304 
L 705.773618 281.346513 
L 707.73249 269.701587 
L 709.501793 268.404963 
L 711.460665 263.836918 
L 713.356347 273.970256 
L 715.315219 274.378648 
L 717.210901 275.088058 
L 719.169773 274.661127 
L 721.128644 276.530496 
L 723.024327 279.534039 
L 724.983198 278.381734 
L 728.837752 267.525962 
L 730.796624 273.087515 
L 732.629117 273.396314 
L 734.587988 275.414349 
L 736.483671 276.775948 
L 738.442542 277.4827 
L 740.338225 277.670496 
L 742.297096 280.749737 
L 744.255968 276.083811 
L 746.15165 278.964634 
L 748.110522 274.098899 
L 750.006204 270.333642 
L 751.965076 276.452321 
L 753.923948 281.691511 
L 755.693251 272.402904 
L 757.652123 268.57689 
L 759.547805 274.885075 
L 761.506677 279.037105 
L 763.402359 278.494989 
L 765.361231 276.775952 
L 767.320102 277.948302 
L 769.215785 278.739736 
L 771.174656 277.4827 
L 773.070339 277.040228 
L 775.02921 278.476387 
L 776.988082 278.476383 
L 778.757385 277.991139 
L 780.716257 276.816684 
L 782.611939 278.739745 
L 784.570811 276.81949 
L 786.466493 271.820005 
L 788.425365 272.988471 
L 790.384237 274.513536 
L 792.279919 274.977751 
L 794.238791 275.003719 
L 796.134473 276.20427 
L 798.093345 276.028025 
L 800.052216 274.079474 
L 801.82152 265.383204 
L 803.780391 271.995743 
L 805.676074 274.513536 
L 807.634945 274.977751 
L 809.530628 273.58022 
L 811.489499 271.820005 
L 813.448371 272.988471 
L 815.344053 274.513536 
L 817.302925 274.977751 
L 819.198607 269.776201 
L 821.157479 270.975124 
L 823.11635 273.811588 
L 824.948843 278.476383 
L 826.907715 277.397157 
L 828.803397 273.440368 
L 830.762269 276.553311 
L 832.657951 280.739384 
L 834.616823 275.088055 
L 836.575695 268.229889 
L 838.471377 274.285818 
L 840.430249 279.046124 
L 842.325931 280.10625 
L 844.284802 274.977748 
L 846.243674 273.58022 
L 855.722086 273.58022 
L 857.680957 271.820012 
L 859.639829 270.926452 
L 861.535511 272.349347 
L 863.494383 269.776201 
L 865.390065 268.229889 
L 867.348937 274.285818 
L 869.307808 278.739745 
L 871.077112 274.015279 
L 873.035984 242.626112 
L 874.931666 249.599195 
L 876.890538 255.951947 
L 878.78622 258.399455 
L 880.745091 263.837175 
L 882.703963 265.866241 
L 884.599645 267.288994 
L 886.558517 259.286068 
L 888.454199 261.600955 
L 890.413071 246.831822 
L 892.371943 251.233127 
L 894.141246 268.368705 
L 896.100118 274.378653 
L 897.9958 275.990349 
L 899.954672 272.988471 
L 901.850354 274.513537 
L 903.809226 274.977748 
L 905.768097 271.820012 
L 907.66378 268.346482 
L 909.622651 272.735396 
L 911.518334 276.553311 
L 913.477205 280.878298 
L 915.436077 269.184719 
L 917.26857 274.285815 
L 919.227442 279.046119 
L 921.123124 279.935286 
L 923.081995 273.440359 
L 924.977678 274.513536 
L 926.936549 274.977754 
L 928.895421 275.003719 
L 930.791103 276.20427 
L 932.749975 276.028023 
L 934.645657 275.188403 
L 936.604529 275.66262 
L 938.563401 279.110321 
L 940.332704 281.666353 
L 942.291576 283.677505 
L 944.187258 276.079984 
L 946.14613 273.097857 
L 948.041812 273.440368 
L 950.000684 274.513537 
L 951.959555 276.028023 
L 953.855238 276.20427 
L 955.814109 274.977748 
L 957.709792 276.094267 
L 959.668663 278.082633 
L 961.627535 266.733285 
L 963.396838 261.572974 
L 965.35571 264.498249 
L 967.251392 271.995743 
L 969.210264 274.513537 
L 971.105946 274.977748 
L 973.064818 267.613688 
L 975.02369 260.978599 
L 976.919372 266.991023 
L 980.773926 256.705425 
L 982.732798 237.915787 
L 984.691669 199.163764 
L 986.460973 265.94734 
L 988.419844 222.435108 
L 990.315527 254.155084 
L 992.274398 244.158323 
L 994.170081 244.518827 
L 996.128952 273.970248 
L 998.087824 275.806429 
L 999.983506 282.279678 
L 1001.942378 282.974771 
L 1003.83806 276.819502 
L 1005.796932 275.003712 
L 1009.588296 278.996676 
L 1011.547168 282.29931 
L 1013.44285 284.762175 
L 1015.401722 279.935278 
L 1017.297404 275.66262 
L 1019.256276 279.029776 
L 1021.215148 266.638658 
L 1023.11083 268.157816 
L 1025.069702 274.285815 
L 1026.965384 278.381749 
L 1028.924256 271.576688 
L 1030.883127 270.333634 
L 1032.652431 276.452313 
L 1034.611302 281.308321 
L 1036.506985 276.709612 
L 1038.465856 277.808408 
L 1040.361539 282.279687 
L 1042.32041 283.910665 
L 1044.279282 273.796615 
L 1046.174964 276.252251 
L 1048.133836 276.709597 
L 1051.98839 276.819486 
L 1053.947261 277.411091 
L 1055.716565 283.193891 
L 1057.675437 281.626027 
L 1059.571119 276.20427 
L 1061.529991 276.816685 
L 1063.425673 279.046127 
L 1065.384544 280.229415 
L 1067.343416 276.395259 
L 1069.239098 272.04992 
L 1071.19797 272.577417 
L 1073.093652 276.709597 
L 1075.052524 276.076372 
L 1077.011396 271.576686 
L 1078.780699 272.735396 
L 1080.739571 274.513537 
L 1082.635253 276.028023 
L 1084.594125 276.20427 
L 1086.489807 276.816685 
L 1088.448679 278.381749 
L 1090.40755 273.168428 
L 1092.303233 264.635447 
L 1094.262104 268.82604 
L 1096.157787 267.103067 
L 1098.116658 273.440368 
L 1100.07553 273.097857 
L 1101.908023 264.544507 
L 1103.866895 266.41438 
L 1105.762577 267.822292 
L 1107.721449 266.167202 
L 1109.617131 197.690201 
L 1111.576002 234.184249 
L 1113.534874 236.863821 
L 1115.430556 271.48704 
L 1117.389428 274.889106 
L 1119.28511 280.739391 
L 1121.243982 276.819486 
L 1123.202854 276.882745 
L 1124.972157 282.478427 
L 1126.931029 268.350069 
L 1128.826711 269.109051 
L 1130.785583 276.816685 
L 1132.681265 278.062032 
L 1134.640137 264.825904 
L 1136.599008 272.862774 
L 1138.494691 281.691533 
L 1142.349245 251.880022 
L 1144.308116 238.628907 
L 1146.266988 250.837974 
L 1148.036291 257.601128 
L 1149.995163 256.51927 
L 1151.890845 261.600961 
L 1153.849717 252.82458 
L 1155.745399 261.600973 
L 1157.704271 258.477505 
L 1159.663143 259.646621 
L 1161.558825 268.157802 
L 1163.517697 261.382887 
L 1165.413379 249.316321 
L 1167.372251 235.957372 
L 1169.331122 264.922118 
L 1171.100426 268.532545 
L 1173.059297 283.193898 
L 1174.95498 281.62604 
L 1176.913851 277.040218 
L 1178.809534 278.476377 
L 1180.768405 277.991131 
L 1182.727277 277.700421 
L 1184.622959 289.012633 
L 1188.477513 279.002667 
L 1190.436385 285.900802 
L 1192.395257 287.646204 
L 1194.227749 283.463579 
L 1196.186621 283.969275 
L 1198.082303 285.427926 
L 1200.041175 277.482703 
L 1201.936857 278.101273 
L 1203.895729 282.29931 
L 1205.854601 288.521067 
L 1207.750283 264.825904 
L 1211.604837 278.381734 
L 1213.563709 275.414353 
L 1215.52258 276.076382 
L 1217.291884 273.168412 
L 1219.250755 274.111392 
L 1221.146438 276.204284 
L 1223.105309 273.682611 
L 1225.000992 272.988471 
L 1226.959863 271.48926 
L 1228.918735 268.346009 
L 1230.814417 275.411839 
L 1232.773289 281.098724 
L 1234.668971 279.116876 
L 1236.627843 275.003719 
L 1240.356018 277.358362 
L 1242.31489 287.135599 
L 1244.210572 254.427333 
L 1246.169444 257.164939 
L 1248.065126 275.188403 
L 1250.023998 271.758356 
L 1253.878551 279.046117 
L 1255.837423 279.935267 
L 1257.733105 271.758356 
L 1259.691977 274.111396 
L 1261.650849 278.101265 
L 1263.420152 283.15643 
L 1265.379024 279.116876 
L 1267.274706 273.58022 
L 1269.233578 276.882745 
L 1271.12926 281.098709 
L 1273.088132 279.395316 
L 1275.047003 277.040235 
L 1276.942686 278.476383 
L 1278.901557 278.476378 
L 1280.79724 277.397156 
L 1282.756111 274.728612 
L 1284.714983 277.365484 
L 1286.547476 280.106265 
L 1288.506348 274.977754 
L 1290.40203 273.58022 
L 1292.360902 276.882745 
L 1294.256584 281.691511 
L 1296.215456 273.590977 
L 1300.070009 275.08805 
L 1302.028881 273.087515 
L 1303.924563 274.378653 
L 1305.883435 277.4827 
L 1307.842307 276.20427 
L 1309.61161 273.682611 
L 1311.570482 274.572916 
L 1313.466164 277.808411 
L 1315.425036 283.910665 
L 1317.320718 269.184719 
L 1319.27959 268.108555 
L 1321.238461 272.988471 
L 1323.134144 274.513536 
L 1325.093015 273.682611 
L 1326.988698 270.926438 
L 1328.947569 270.145935 
L 1330.906441 270.926452 
L 1332.675744 272.349347 
L 1334.634616 275.003719 
L 1336.530298 277.040228 
L 1338.48917 276.796026 
L 1340.384852 268.346009 
L 1342.343724 274.285815 
L 1344.302596 278.062032 
L 1346.198278 257.384149 
L 1348.15715 255.951906 
L 1350.052832 268.157816 
L 1352.011704 261.382887 
L 1353.970575 260.978599 
L 1355.739879 263.231596 
L 1357.69875 263.574578 
L 1359.594433 259.646625 
L 1361.553304 271.481481 
L 1363.448987 268.576877 
L 1365.407858 268.346009 
L 1367.36673 272.74104 
L 1369.262412 275.188403 
L 1371.221284 271.758356 
L 1373.116966 270.14595 
L 1375.075838 270.926452 
L 1377.03471 264.635447 
L 1378.867202 265.355615 
L 1380.826074 264.939558 
L 1382.721756 270.926452 
L 1384.680628 272.349347 
L 1386.57631 269.776206 
L 1388.535182 260.56257 
L 1390.494054 271.481481 
L 1392.389736 273.811582 
L 1394.348608 277.991149 
L 1396.24429 277.358355 
L 1398.203162 281.308304 
L 1400.162033 275.202145 
L 1401.931337 274.111396 
L 1403.890208 277.670496 
L 1405.785891 280.729139 
L 1407.744762 279.935278 
L 1409.640445 271.758356 
L 1411.599316 274.111396 
L 1413.558188 277.040224 
L 1415.45387 278.476378 
L 1417.412742 278.476382 
L 1419.308424 277.397166 
L 1421.267296 274.728601 
L 1423.226168 277.365482 
L 1424.995471 279.935278 
L 1426.954343 271.758356 
L 1428.850025 274.111396 
L 1430.808897 277.040224 
L 1432.704579 278.996678 
L 1434.663451 283.15643 
L 1438.518005 275.003719 
L 1440.476876 277.040224 
L 1442.372558 278.476378 
L 1444.33143 278.813251 
L 1446.290302 280.729139 
L 1448.059605 279.935278 
L 1450.018477 274.728612 
L 1451.914159 276.775948 
L 1453.873031 274.015271 
L 1455.768713 269.549094 
L 1457.727585 265.439865 
L 1459.686457 275.990356 
L 1461.582139 270.926452 
L 1465.436693 277.040224 
L 1467.395564 277.397156 
L 1469.354436 271.758356 
L 1471.186929 272.349347 
L 1473.145801 275.003719 
L 1475.041483 276.20427 
L 1477.000355 273.682611 
L 1478.896037 270.926452 
L 1482.81378 281.691511 
L 1484.709462 274.982714 
L 1486.668334 279.037103 
L 1488.564016 277.712548 
L 1490.522888 267.525945 
L 1492.48176 268.229884 
L 1494.251063 272.74104 
L 1496.209935 277.040228 
L 1498.105617 277.991151 
L 1500.064489 276.028027 
L 1501.960171 277.670495 
L 1503.919043 280.749724 
L 1505.877914 274.450216 
L 1507.773597 275.667938 
L 1509.732468 277.397156 
L 1511.628151 274.728618 
L 1515.545894 279.935278 
L 1517.315198 273.440368 
L 1519.274069 274.513537 
L 1521.169751 273.682611 
L 1523.128623 276.558158 
L 1525.024305 281.635635 
L 1526.983177 277.078509 
L 1528.942049 270.333642 
L 1530.837731 272.349347 
L 1532.796603 271.820012 
L 1534.692285 272.988471 
L 1536.651157 275.667938 
L 1538.610028 277.991139 
L 1540.379332 276.028023 
L 1542.338203 275.188403 
L 1544.233886 274.728618 
L 1546.192757 276.076382 
L 1548.08844 274.450208 
L 1552.006183 271.758343 
L 1553.901865 274.111392 
L 1555.860737 276.204284 
L 1557.756419 276.028027 
L 1559.715291 276.20427 
L 1561.674163 276.028023 
L 1563.506655 276.20427 
L 1565.465527 273.682611 
L 1567.361209 272.988471 
L 1569.320081 276.553311 
L 1571.215763 280.878307 
L 1573.174635 269.184712 
L 1575.133507 270.701701 
L 1577.029189 271.820012 
L 1578.988061 274.572907 
L 1580.883743 276.775948 
L 1582.842615 276.819486 
L 1584.801486 273.58022 
L 1586.57079 267.613703 
L 1588.529661 265.355633 
L 1590.425344 264.939562 
L 1592.384215 268.34647 
L 1594.279898 272.735391 
L 1596.238769 271.489258 
L 1598.197641 265.383216 
L 1600.093323 256.519244 
L 1602.052195 261.600955 
L 1603.947877 252.824547 
L 1605.906749 255.620434 
L 1607.865621 255.951939 
L 1609.634924 268.157822 
L 1611.593796 270.70171 
L 1613.489478 273.58022 
L 1615.44835 269.776195 
L 1617.344032 270.975121 
L 1619.302904 272.398409 
L 1621.261775 274.977748 
L 1623.157458 275.003726 
L 1625.116329 276.204284 
L 1627.012012 274.977754 
L 1630.929755 264.771023 
L 1632.699058 274.008255 
L 1634.65793 276.076372 
L 1638.512484 270.14595 
L 1640.408166 268.346482 
L 1642.367038 263.574569 
L 1644.32591 271.48704 
L 1646.221592 273.811582 
L 1648.180464 277.991149 
L 1650.076146 276.028023 
L 1652.035017 277.670495 
L 1653.993889 280.729131 
L 1655.826382 280.106265 
L 1657.785254 276.028027 
L 1659.680936 274.079459 
L 1661.639808 272.556139 
L 1663.53549 274.378648 
L 1665.494362 276.819491 
L 1665.494362 276.819491 
" style="fill:none;stroke:#1f77b4;stroke-linecap:square;stroke-opacity:0.8;stroke-width:1.2;"/>
   </g>
   <g id="line2d_32">
    <path clip-path="url(#p593c16f614)" d="M 369.163636 328.918458 
L 371.059319 258.321061 
L 373.01819 272.440528 
L 374.977062 230.082062 
L 376.872744 286.560027 
L 378.831616 286.559994 
L 380.727298 258.321061 
L 384.645042 230.082062 
L 386.414345 215.962662 
L 388.373217 230.082062 
L 390.268899 230.082062 
L 392.227771 159.484731 
L 394.123453 258.321061 
L 396.082325 201.843127 
L 398.041196 258.320994 
L 399.936879 300.679528 
L 401.89575 88.887273 
L 403.791432 484.232727 
L 405.750304 244.201597 
L 407.709176 286.559994 
L 411.437351 286.559994 
L 413.333033 343.03792 
L 417.187587 286.559994 
L 419.146459 328.918458 
L 421.105331 343.03792 
L 423.001013 286.559994 
L 424.959884 300.679528 
L 426.855567 272.440528 
L 428.814438 258.320994 
L 430.77331 357.157422 
L 432.542614 314.79896 
L 434.501485 272.440528 
L 436.397168 314.798993 
L 438.356039 286.559994 
L 440.251721 244.201562 
L 442.210593 286.560027 
L 444.169465 272.440528 
L 446.065147 244.201562 
L 448.024019 244.201562 
L 449.919701 272.440528 
L 451.878573 328.918458 
L 453.837444 258.321027 
L 455.669937 286.560027 
L 457.628809 300.67946 
L 459.524491 272.440528 
L 461.483363 258.321061 
L 463.379045 272.440528 
L 465.337917 244.201562 
L 467.296789 244.201562 
L 469.192471 314.798993 
L 471.151342 286.559994 
L 473.047025 300.679495 
L 475.005896 286.559994 
L 476.964768 244.201562 
L 478.734072 314.798993 
L 480.692943 272.440528 
L 482.588625 258.321027 
L 484.547497 300.679495 
L 486.443179 272.440528 
L 488.402051 258.321061 
L 490.360923 258.321027 
L 492.256605 244.201562 
L 494.215477 244.201597 
L 496.111159 215.962596 
L 498.070031 131.245735 
L 500.028902 215.962596 
L 501.798206 230.082131 
L 503.757077 201.843127 
L 505.65276 244.201529 
L 507.611631 272.440528 
L 509.507314 314.798993 
L 511.466185 244.201529 
L 513.425057 244.201597 
L 515.320739 258.321061 
L 517.279611 328.918458 
L 519.175293 328.918392 
L 521.134165 314.798993 
L 523.093037 286.559994 
L 524.86234 300.679528 
L 526.821212 286.559994 
L 528.716894 258.321061 
L 530.675766 328.918392 
L 532.571448 286.56006 
L 534.53032 300.67946 
L 536.489191 244.201597 
L 538.384874 286.559994 
L 540.343745 244.201529 
L 542.239428 286.56006 
L 544.198299 272.440528 
L 546.157171 300.67946 
L 547.989664 286.559994 
L 549.948535 230.082131 
L 551.844218 300.67946 
L 553.803089 230.082062 
L 555.698772 272.440528 
L 557.657643 258.321061 
L 559.616515 314.798993 
L 561.512197 300.67946 
L 563.471069 272.440528 
L 565.366751 215.962596 
L 567.325623 286.56006 
L 569.284495 272.440528 
L 571.053798 314.798927 
L 573.01267 300.679495 
L 574.908352 244.201562 
L 578.762906 244.201529 
L 580.721778 286.56006 
L 582.680649 286.559994 
L 584.576332 230.082062 
L 586.535203 258.321061 
L 588.430886 187.723662 
L 590.389757 258.321061 
L 592.348629 187.723596 
L 594.117932 187.723662 
L 596.076804 230.082131 
L 597.972486 173.604123 
L 599.931358 272.440528 
L 601.82704 286.559994 
L 603.785912 244.201597 
L 605.744784 286.559994 
L 607.640466 314.798993 
L 611.49502 343.03792 
L 613.453891 272.440528 
L 615.412763 300.67946 
L 617.182067 286.559994 
L 619.140938 314.798993 
L 621.036621 328.918458 
L 622.995492 286.559994 
L 624.891175 286.559994 
L 626.850046 258.321061 
L 628.808918 258.321061 
L 630.7046 230.082062 
L 634.559154 258.320994 
L 636.518026 343.03792 
L 638.476897 286.56006 
L 640.30939 328.918392 
L 642.268262 187.723662 
L 644.163944 300.679528 
L 646.122816 286.559994 
L 648.018498 230.082062 
L 649.97737 258.321061 
L 651.936242 258.321061 
L 653.831924 286.559994 
L 655.790795 187.723662 
L 657.686478 272.440528 
L 659.645349 201.843127 
L 661.604221 272.440528 
L 663.373525 230.082062 
L 665.332396 272.440528 
L 667.228079 258.321061 
L 669.18695 258.321061 
L 671.082632 300.67946 
L 673.041504 258.321061 
L 675.000376 328.918458 
L 676.896058 258.321061 
L 678.85493 300.67946 
L 680.750612 328.918458 
L 682.709484 286.559994 
L 684.668355 300.67946 
L 686.437659 314.798993 
L 688.396531 258.321061 
L 692.251084 286.559994 
L 694.146767 272.440528 
L 696.105638 286.559994 
L 698.06451 230.082131 
L 699.960192 286.559994 
L 701.919064 300.67946 
L 703.814746 230.082131 
L 705.773618 300.67946 
L 707.73249 244.201597 
L 709.501793 244.201529 
L 711.460665 300.679528 
L 715.315219 244.201529 
L 717.210901 314.798993 
L 719.169773 272.440528 
L 721.128644 300.67946 
L 723.024327 258.321061 
L 724.983198 272.440528 
L 726.878881 244.201597 
L 728.837752 300.67946 
L 730.796624 258.321061 
L 732.629117 300.67946 
L 734.587988 272.440528 
L 738.442542 300.679528 
L 740.338225 258.321061 
L 742.297096 314.798927 
L 744.255968 258.321061 
L 746.15165 258.321061 
L 748.110522 272.440528 
L 750.006204 314.798927 
L 751.965076 244.201597 
L 753.923948 286.559994 
L 755.693251 244.201597 
L 757.652123 328.918458 
L 759.547805 258.320994 
L 761.506677 300.679528 
L 763.402359 272.440528 
L 765.361231 300.67946 
L 767.320102 272.440528 
L 769.215785 286.559994 
L 775.02921 286.559994 
L 776.988082 272.440528 
L 778.757385 300.679495 
L 780.716257 272.440528 
L 782.611939 272.440528 
L 784.570811 258.321027 
L 786.466493 286.560027 
L 788.425365 272.440528 
L 790.384237 272.440528 
L 792.279919 286.559994 
L 794.238791 272.440528 
L 796.134473 286.560027 
L 798.093345 244.201562 
L 800.052216 258.321027 
L 801.82152 286.560027 
L 803.780391 272.440528 
L 807.634945 272.440528 
L 809.530628 258.321027 
L 811.489499 286.560027 
L 813.448371 272.440528 
L 815.344053 272.440528 
L 817.302925 244.201562 
L 819.198607 286.559994 
L 823.11635 286.559994 
L 824.948843 258.321061 
L 826.907715 286.559994 
L 828.803397 300.679495 
L 832.657951 244.201562 
L 836.575695 300.679495 
L 840.430249 272.440528 
L 853.826403 272.440528 
L 855.722086 258.321061 
L 857.680957 272.440528 
L 859.639829 272.440528 
L 861.535511 244.201562 
L 865.390065 300.679495 
L 867.348937 272.440528 
L 869.307808 215.962596 
L 871.077112 230.082131 
L 873.035984 244.201529 
L 876.890538 244.201529 
L 878.78622 258.321061 
L 882.703963 258.321061 
L 884.599645 230.082062 
L 886.558517 258.321061 
L 888.454199 215.962596 
L 890.413071 244.201597 
L 892.371943 300.67946 
L 894.141246 272.440528 
L 896.100118 258.321061 
L 897.9958 286.559994 
L 899.954672 272.440528 
L 901.850354 272.440528 
L 903.809226 258.321061 
L 905.768097 258.321061 
L 907.66378 286.559994 
L 909.622651 300.67946 
L 911.518334 244.201597 
L 915.436077 300.67946 
L 917.26857 286.56006 
L 919.227442 258.320994 
L 921.123124 286.56006 
L 923.081995 272.440528 
L 924.977678 272.440528 
L 926.936549 286.559994 
L 928.895421 272.440528 
L 930.791103 286.559994 
L 932.749975 258.321061 
L 934.645657 314.798927 
L 936.604529 286.56006 
L 938.563401 314.798927 
L 940.332704 258.321061 
L 942.291576 286.559994 
L 944.187258 258.321061 
L 946.14613 286.559994 
L 948.041812 272.440528 
L 950.000684 286.559994 
L 951.959555 272.440528 
L 953.855238 272.440528 
L 955.814109 300.679528 
L 957.709792 244.201529 
L 959.668663 258.321061 
L 961.627535 244.201597 
L 963.396838 258.321061 
L 965.35571 286.559994 
L 967.251392 272.440528 
L 969.210264 272.440528 
L 971.105946 230.082062 
L 973.064818 258.321061 
L 975.02369 272.440528 
L 976.919372 215.962596 
L 978.878244 258.321061 
L 980.773926 187.723662 
L 982.732798 187.723662 
L 984.691669 145.365134 
L 986.460973 272.440528 
L 988.419844 201.843127 
L 990.315527 244.201597 
L 992.274398 244.201597 
L 994.170081 300.67946 
L 998.087824 300.679595 
L 999.983506 272.440528 
L 1001.942378 272.440528 
L 1003.83806 286.559926 
L 1005.796932 286.56006 
L 1007.755804 314.798927 
L 1009.588296 300.679528 
L 1011.547168 286.559994 
L 1013.44285 258.321061 
L 1015.401722 314.798927 
L 1017.297404 244.201597 
L 1019.256276 244.201529 
L 1023.11083 300.679528 
L 1025.069702 258.321061 
L 1026.965384 258.320994 
L 1028.924256 272.440528 
L 1030.883127 314.798993 
L 1032.652431 258.321061 
L 1034.611302 300.67946 
L 1038.465856 300.67946 
L 1040.361539 244.201597 
L 1042.32041 314.798927 
L 1044.279282 258.321061 
L 1046.174964 300.67946 
L 1048.133836 272.440528 
L 1050.029518 272.440528 
L 1051.98839 328.918458 
L 1053.947261 272.440528 
L 1055.716565 286.559994 
L 1057.675437 272.440528 
L 1059.571119 300.679528 
L 1061.529991 286.559994 
L 1063.425673 286.559994 
L 1065.384544 230.082131 
L 1067.343416 314.798927 
L 1069.239098 258.321061 
L 1071.19797 300.67946 
L 1073.093652 258.321061 
L 1075.052524 258.321061 
L 1077.011396 286.559994 
L 1078.780699 272.440528 
L 1080.739571 286.559994 
L 1082.635253 272.440528 
L 1084.594125 300.679528 
L 1086.489807 258.321061 
L 1088.448679 272.440528 
L 1090.40755 230.082062 
L 1092.303233 286.559994 
L 1094.262104 258.321061 
L 1096.157787 286.559994 
L 1100.07553 230.082062 
L 1101.908023 272.440528 
L 1103.866895 272.440528 
L 1105.762577 187.723662 
L 1107.721449 187.723662 
L 1109.617131 258.321061 
L 1111.576002 244.201529 
L 1113.534874 286.56006 
L 1115.430556 300.67946 
L 1117.389428 272.440528 
L 1119.28511 272.440528 
L 1121.243982 314.798993 
L 1123.202854 230.082062 
L 1124.972157 286.559994 
L 1126.931029 272.440528 
L 1128.826711 300.679528 
L 1130.785583 230.082062 
L 1134.640137 314.798993 
L 1136.599008 244.201529 
L 1138.494691 244.201597 
L 1142.349245 215.962596 
L 1144.308116 244.201597 
L 1146.266988 258.320994 
L 1148.036291 230.082197 
L 1149.995163 258.320994 
L 1151.890845 230.082062 
L 1153.849717 258.321129 
L 1155.745399 244.201461 
L 1157.704271 244.201597 
L 1159.663143 272.440528 
L 1161.558825 230.082062 
L 1163.517697 230.082197 
L 1165.413379 215.96253 
L 1169.331122 328.918528 
L 1171.100426 272.440528 
L 1173.059297 286.559926 
L 1176.913851 286.559926 
L 1178.809534 272.440528 
L 1180.768405 371.27699 
L 1182.727277 258.320994 
L 1184.622959 314.798993 
L 1186.581831 328.918392 
L 1190.436385 300.67946 
L 1192.395257 314.798993 
L 1194.227749 300.67946 
L 1196.186621 272.440528 
L 1198.082303 286.56006 
L 1200.041175 314.798927 
L 1201.936857 300.679528 
L 1203.895729 230.082062 
L 1205.854601 272.440528 
L 1207.750283 300.67946 
L 1209.709155 258.321061 
L 1211.604837 300.679528 
L 1213.563709 258.320994 
L 1215.52258 272.440528 
L 1217.291884 286.56006 
L 1221.146438 258.320994 
L 1223.105309 286.56006 
L 1225.000992 244.201529 
L 1226.959863 272.440528 
L 1228.918735 314.798993 
L 1230.814417 272.440528 
L 1232.773289 272.440528 
L 1234.668971 286.559994 
L 1236.627843 272.440528 
L 1238.586715 314.798993 
L 1240.356018 201.843127 
L 1242.31489 272.440528 
L 1244.210572 286.559994 
L 1246.169444 258.321061 
L 1248.065126 272.440528 
L 1250.023998 300.67946 
L 1251.982869 286.559994 
L 1253.878551 258.321061 
L 1257.733105 286.559994 
L 1259.691977 314.798993 
L 1261.650849 272.440528 
L 1265.379024 272.440528 
L 1267.274706 314.798927 
L 1269.233578 272.440528 
L 1271.12926 286.56006 
L 1276.942686 286.559994 
L 1278.901557 258.321061 
L 1280.79724 300.67946 
L 1284.714983 272.440528 
L 1288.506348 272.440528 
L 1290.40203 314.798927 
L 1292.360902 244.201597 
L 1294.256584 300.67946 
L 1298.174327 244.201597 
L 1300.070009 300.67946 
L 1302.028881 272.440528 
L 1303.924563 286.559994 
L 1307.842307 258.321061 
L 1309.61161 300.679528 
L 1311.570482 300.67946 
L 1313.466164 244.201597 
L 1315.425036 272.440528 
L 1317.320718 258.320994 
L 1319.27959 286.56006 
L 1323.134144 258.320994 
L 1325.093015 272.440528 
L 1326.988698 258.321061 
L 1328.947569 272.440528 
L 1330.906441 272.440528 
L 1332.675744 286.559994 
L 1334.634616 286.56006 
L 1336.530298 244.201529 
L 1340.384852 300.679528 
L 1342.343724 230.082062 
L 1344.302596 244.201597 
L 1346.198278 244.201529 
L 1348.15715 272.440528 
L 1350.052832 230.082131 
L 1352.011704 258.320994 
L 1353.970575 258.321061 
L 1355.739879 244.201597 
L 1357.69875 244.201529 
L 1359.594433 286.56006 
L 1361.553304 244.201529 
L 1363.448987 272.440528 
L 1365.407858 286.559994 
L 1367.36673 258.321061 
L 1369.262412 272.440528 
L 1371.221284 258.321061 
L 1373.116966 272.440528 
L 1375.075838 230.082062 
L 1377.03471 272.440528 
L 1378.867202 258.321061 
L 1380.826074 272.440528 
L 1382.721756 272.440528 
L 1384.680628 244.201597 
L 1386.57631 244.201529 
L 1388.535182 286.56006 
L 1390.494054 286.559994 
L 1392.389736 272.440528 
L 1394.348608 314.798927 
L 1396.24429 258.321061 
L 1400.162033 286.559994 
L 1401.931337 300.679528 
L 1403.890208 286.559994 
L 1405.785891 258.321061 
L 1409.640445 286.559994 
L 1415.45387 286.56006 
L 1417.412742 258.320994 
L 1419.308424 300.679528 
L 1421.267296 286.559994 
L 1423.226168 258.321061 
L 1424.995471 272.440528 
L 1426.954343 286.559994 
L 1428.850025 286.559994 
L 1430.808897 314.798993 
L 1432.704579 272.440528 
L 1434.663451 272.440528 
L 1436.622322 286.559994 
L 1440.476876 286.559994 
L 1442.372558 300.679528 
L 1444.33143 286.559994 
L 1446.290302 258.321061 
L 1448.059605 300.67946 
L 1450.018477 272.440528 
L 1451.914159 215.962596 
L 1453.873031 300.679528 
L 1455.768713 272.440528 
L 1457.727585 258.321061 
L 1461.582139 286.559994 
L 1463.54101 286.559994 
L 1465.436693 258.321061 
L 1467.395564 272.440528 
L 1469.354436 272.440528 
L 1471.186929 286.559994 
L 1475.041483 258.321061 
L 1477.000355 272.440528 
L 1478.896037 314.798927 
L 1480.854909 244.201597 
L 1482.81378 328.918458 
L 1484.709462 258.321061 
L 1486.668334 272.440528 
L 1488.564016 244.201529 
L 1490.522888 272.440528 
L 1492.48176 286.559994 
L 1494.251063 286.56006 
L 1496.209935 272.440528 
L 1500.064489 300.67946 
L 1501.960171 258.321061 
L 1503.919043 286.559994 
L 1505.877914 286.559994 
L 1507.773597 258.321061 
L 1509.732468 300.679528 
L 1511.628151 286.559994 
L 1513.587022 258.321061 
L 1515.545894 286.559994 
L 1517.315198 272.440528 
L 1519.274069 258.321061 
L 1521.169751 328.918392 
L 1523.128623 258.321061 
L 1525.024305 258.321061 
L 1526.983177 272.440528 
L 1528.942049 272.440528 
L 1530.837731 258.321061 
L 1532.796603 286.559994 
L 1534.692285 286.559994 
L 1536.651157 272.440528 
L 1538.610028 286.559994 
L 1540.379332 258.321061 
L 1542.338203 300.679528 
L 1544.233886 258.320994 
L 1546.192757 286.56006 
L 1548.08844 258.320994 
L 1552.006183 286.56006 
L 1553.901865 272.440528 
L 1555.860737 286.559994 
L 1557.756419 272.440528 
L 1559.715291 286.559994 
L 1561.674163 272.440528 
L 1563.506655 258.321061 
L 1565.465527 286.559994 
L 1567.361209 300.679495 
L 1569.320081 244.201562 
L 1571.215763 272.440528 
L 1573.174635 272.440528 
L 1575.133507 258.321061 
L 1577.029189 300.67946 
L 1578.988061 272.440528 
L 1582.842615 272.440528 
L 1584.801486 230.082131 
L 1586.57079 272.440528 
L 1588.529661 258.320994 
L 1590.425344 258.321061 
L 1592.384215 286.559994 
L 1594.279898 244.201597 
L 1596.238769 258.321061 
L 1598.197641 230.082062 
L 1600.093323 258.321061 
L 1602.052195 230.082062 
L 1603.947877 244.201597 
L 1605.906749 244.201597 
L 1607.865621 272.440528 
L 1611.593796 272.440528 
L 1613.489478 244.201529 
L 1615.44835 286.559994 
L 1617.344032 272.440528 
L 1619.302904 272.440528 
L 1621.261775 286.56006 
L 1623.157458 272.440528 
L 1625.116329 272.440528 
L 1627.012012 244.201529 
L 1628.970883 258.321061 
L 1630.929755 300.67946 
L 1632.699058 258.321061 
L 1634.65793 272.440528 
L 1636.553612 258.321061 
L 1638.512484 258.321061 
L 1640.408166 244.201529 
L 1642.367038 286.56006 
L 1644.32591 286.559994 
L 1646.221592 272.440528 
L 1650.076146 300.67946 
L 1653.993889 272.440528 
L 1655.826382 286.559994 
L 1657.785254 244.201529 
L 1659.680936 300.679528 
L 1661.639808 272.440528 
L 1663.53549 272.440528 
L 1665.494362 286.559994 
L 1665.494362 286.559994 
" style="fill:none;stroke:#ff7f0e;stroke-linecap:square;stroke-opacity:0.8;stroke-width:0.8;"/>
   </g>
   <g id="line2d_33">
    <path clip-path="url(#p593c16f614)" d="M 1667.453233 275.003721 
L 1669.348916 277.040224 
L 1671.307787 277.991139 
L 1673.203469 273.682615 
L 1675.162341 272.98847 
L 1677.121213 274.513536 
L 1678.890516 276.028024 
L 1680.849388 275.188403 
L 1682.74507 274.728618 
L 1684.703942 276.775958 
L 1686.599624 277.482705 
L 1688.558496 277.040224 
L 1690.517368 277.991139 
L 1692.41305 276.028024 
L 1694.371921 275.188403 
L 1696.267604 271.758357 
L 1698.226475 272.349348 
L 1700.185347 275.003721 
L 1701.954651 277.670498 
L 1703.913522 280.749739 
L 1705.809205 274.450208 
L 1707.768076 274.513539 
L 1709.663758 276.028028 
L 1711.62263 276.20427 
L 1713.581502 273.682615 
L 1715.477184 270.926451 
L 1717.436056 275.461858 
L 1719.331738 279.046118 
L 1721.29061 279.935266 
L 1723.249481 273.440366 
L 1725.018785 271.489258 
L 1726.977657 270.721055 
L 1728.873339 273.811591 
L 1730.83221 277.397155 
L 1732.727893 273.440366 
L 1734.686764 271.489258 
L 1736.645636 265.383216 
L 1738.541318 271.995746 
L 1740.50019 273.097857 
L 1742.395872 271.758357 
L 1744.354744 272.349348 
L 1746.313616 267.613689 
L 1748.146109 265.355615 
L 1750.10498 270.043454 
L 1752.000662 274.079467 
L 1753.959534 270.721055 
L 1755.855216 264.588032 
L 1757.814088 249.727938 
L 1759.77296 251.48609 
L 1761.668642 251.880055 
L 1763.627514 266.967992 
L 1765.523196 253.181001 
L 1767.482068 242.626075 
L 1769.440939 224.679582 
L 1771.210243 216.641954 
L 1773.169114 216.115972 
L 1775.064797 221.991122 
L 1777.023668 232.73662 
L 1778.919351 232.182824 
L 1780.878222 258.678836 
L 1782.837094 262.419895 
L 1784.732776 270.145925 
L 1786.691648 265.259068 
L 1788.58733 259.646647 
L 1790.546202 271.481481 
L 1792.505074 272.398436 
L 1794.274377 276.028022 
L 1796.233249 276.204259 
L 1798.128931 273.682602 
L 1800.087803 270.926463 
L 1801.983485 276.452316 
L 1803.942357 280.763227 
L 1805.901228 285.42793 
L 1807.796911 275.990362 
L 1809.755782 270.926437 
L 1811.651465 274.111397 
L 1813.610336 272.571509 
L 1815.569208 272.904486 
L 1817.338511 270.930643 
L 1819.297383 289.129081 
L 1821.193065 280.106264 
L 1823.151937 273.682613 
L 1825.047619 272.98847 
L 1827.006491 273.097853 
L 1828.965363 273.440359 
" style="fill:none;stroke:#2ca02c;stroke-linecap:square;stroke-opacity:0.8;stroke-width:1.2;"/>
   </g>
   <g id="line2d_34">
    <path clip-path="url(#p593c16f614)" d="M 1667.453233 286.559994 
L 1669.348916 272.440528 
L 1671.307787 258.321061 
L 1673.203469 286.559994 
L 1675.162341 272.440528 
L 1677.121213 286.559994 
L 1678.890516 258.321061 
L 1680.849388 300.679528 
L 1682.74507 272.440528 
L 1684.703942 286.559994 
L 1686.599624 286.559994 
L 1688.558496 272.440528 
L 1690.517368 286.559994 
L 1692.41305 258.321061 
L 1694.371921 272.440528 
L 1696.267604 272.440528 
L 1698.226475 286.559994 
L 1700.185347 300.679528 
L 1701.954651 258.320994 
L 1703.913522 286.56006 
L 1705.809205 272.440528 
L 1707.768076 286.559994 
L 1709.663758 272.440528 
L 1711.62263 258.321061 
L 1713.581502 272.440528 
L 1715.477184 300.67946 
L 1717.436056 286.559994 
L 1719.331738 258.321061 
L 1721.29061 286.559994 
L 1723.249481 244.201597 
L 1725.018785 286.559994 
L 1726.977657 286.559994 
L 1728.873339 258.321061 
L 1730.83221 286.559994 
L 1732.727893 244.201597 
L 1734.686764 258.321061 
L 1736.645636 286.559994 
L 1738.541318 258.321061 
L 1740.50019 272.440528 
L 1742.395872 272.440528 
L 1744.354744 230.082062 
L 1746.313616 272.440528 
L 1748.146109 286.559994 
L 1750.10498 244.201597 
L 1752.000662 286.559994 
L 1753.959534 215.962596 
L 1755.855216 244.201597 
L 1757.814088 244.201529 
L 1759.77296 230.082131 
L 1761.668642 272.440528 
L 1763.627514 215.962596 
L 1765.523196 230.082062 
L 1767.482068 201.843127 
L 1769.440939 201.843127 
L 1771.210243 201.843127 
L 1773.169114 215.962662 
L 1775.064797 230.082062 
L 1777.023668 215.962662 
L 1778.919351 258.320994 
L 1780.878222 272.440528 
L 1782.837094 258.320994 
L 1784.732776 244.201597 
L 1786.691648 244.201597 
L 1788.58733 286.56006 
L 1790.546202 272.440528 
L 1792.505074 286.559926 
L 1794.274377 272.440528 
L 1796.233249 258.321129 
L 1798.128931 272.440528 
L 1800.087803 314.798861 
L 1801.983485 300.679595 
L 1803.942357 272.440528 
L 1805.901228 258.320994 
L 1807.796911 272.440528 
L 1809.755782 286.56006 
L 1811.651465 215.96253 
L 1813.610336 343.03792 
L 1815.569208 300.67946 
L 1817.338511 286.56006 
L 1819.297383 272.440528 
L 1821.193065 258.320994 
L 1823.151937 286.56006 
L 1825.047619 258.320994 
L 1827.006491 286.56006 
L 1828.965363 272.440528 
" style="fill:none;stroke:#d62728;stroke-linecap:square;stroke-opacity:0.8;stroke-width:0.8;"/>
   </g>
   <g id="line2d_35">
    <path clip-path="url(#p593c16f614)" d="M 1830.861045 274.513539 
L 1832.819917 274.977755 
L 1834.715599 276.094267 
L 1836.674471 279.253396 
L 1838.633342 282.635306 
L 1840.465835 280.255501 
L 1842.424707 280.739392 
L 1844.320389 277.482705 
L 1846.279261 276.204284 
L 1848.174943 274.977755 
L 1850.133815 273.580221 
L 1852.092686 273.580221 
L 1853.988369 275.003714 
L 1855.94724 278.10126 
L 1857.842923 283.156416 
L 1859.801794 279.395321 
L 1861.760666 274.07948 
L 1863.529969 265.383202 
L 1865.488841 275.474055 
L 1867.384523 279.142017 
L 1869.343395 286.177633 
L 1871.239077 274.450212 
L 1873.197949 274.513536 
L 1875.156821 276.816686 
L 1877.052503 279.046119 
L 1879.011375 280.106264 
L 1880.907057 274.977755 
L 1882.865928 276.882743 
L 1884.8248 280.763235 
L 1886.594104 284.762174 
L 1888.552975 279.935278 
L 1890.448658 271.758357 
L 1892.407529 277.140319 
L 1894.303211 283.193881 
L 1896.262083 281.447542 
L 1898.220955 278.381748 
L 1900.116637 273.168428 
L 1902.075509 276.452322 
L 1903.971191 280.763235 
L 1905.930063 286.177641 
L 1907.888934 275.414346 
L 1909.658238 276.076376 
L 1911.61711 275.41435 
L 1913.512792 276.775946 
L 1915.471663 277.482703 
L 1917.367346 275.188403 
L 1919.326217 274.728612 
L 1921.285089 277.365484 
L 1923.180771 280.229422 
L 1925.139643 278.476386 
L 1927.035325 277.991139 
L 1928.994197 274.977751 
L 1930.953069 273.580221 
L 1932.785562 275.003721 
L 1934.744433 276.20427 
L 1936.640116 273.682615 
L 1938.598987 270.926451 
L 1940.494669 276.452323 
L 1942.453541 281.691535 
L 1944.412413 270.840388 
L 1946.308095 270.701699 
L 1948.266967 271.820011 
L 1950.162649 272.98847 
L 1952.121521 277.190619 
L 1954.080392 283.677513 
L 1955.849696 274.098915 
L 1957.808568 272.735401 
L 1959.70425 276.553307 
L 1961.663121 280.729139 
L 1963.558804 280.229411 
L 1965.517675 277.991139 
L 1967.476547 274.977751 
L 1969.372229 271.820011 
L 1971.331101 274.572916 
L 1973.226783 277.365494 
L 1975.185655 280.106252 
L 1977.144527 274.977751 
L 1978.91383 273.580221 
L 1980.872702 273.580221 
L 1982.768384 273.580221 
L 1984.727256 276.094267 
L 1986.622938 279.04612 
L 1988.58181 279.828067 
L 1990.540681 270.721052 
L 1992.436364 272.398418 
" style="fill:none;stroke:#9467bd;stroke-linecap:square;stroke-opacity:0.8;stroke-width:1.2;"/>
   </g>
   <g id="line2d_36">
    <path clip-path="url(#p593c16f614)" d="M 1830.861045 272.440528 
L 1832.819917 300.67946 
L 1834.715599 300.67946 
L 1836.674471 286.56006 
L 1838.633342 300.67946 
L 1840.465835 272.440528 
L 1842.424707 286.56006 
L 1844.320389 272.440528 
L 1846.279261 272.440528 
L 1848.174943 272.440528 
L 1850.133815 272.440528 
L 1852.092686 286.559926 
L 1853.988369 314.798993 
L 1855.94724 272.440528 
L 1857.842923 286.56006 
L 1859.801794 244.201529 
L 1861.760666 258.321061 
L 1863.529969 314.798993 
L 1865.488841 300.67946 
L 1867.384523 258.321061 
L 1869.343395 286.559994 
L 1871.239077 272.440528 
L 1873.197949 300.67946 
L 1875.156821 286.56006 
L 1877.052503 272.440528 
L 1879.011375 272.440528 
L 1880.907057 314.798927 
L 1882.865928 300.679528 
L 1884.8248 286.559994 
L 1886.594104 258.321061 
L 1888.552975 272.440528 
L 1890.448658 328.918392 
L 1892.407529 272.440528 
L 1894.303211 300.679528 
L 1896.262083 258.321061 
L 1898.220955 272.440528 
L 1900.116637 314.798927 
L 1902.075509 300.679528 
L 1903.971191 258.320994 
L 1905.930063 300.679528 
L 1907.888934 258.321061 
L 1909.658238 300.67946 
L 1911.61711 272.440528 
L 1913.512792 286.559994 
L 1915.471663 258.321061 
L 1917.367346 300.67946 
L 1919.326217 286.56006 
L 1921.285089 286.559994 
L 1923.180771 286.559994 
L 1925.139643 272.440528 
L 1927.035325 272.440528 
L 1928.994197 272.440528 
L 1930.953069 286.559994 
L 1932.785562 272.440528 
L 1934.744433 258.321061 
L 1936.640116 272.440528 
L 1938.598987 314.798993 
L 1940.494669 244.201529 
L 1942.453541 272.440528 
L 1944.412413 272.440528 
L 1946.308095 258.321061 
L 1948.266967 286.559994 
L 1950.162649 314.798993 
L 1952.121521 258.321061 
L 1954.080392 258.320994 
L 1955.849696 286.56006 
L 1957.808568 300.67946 
L 1959.70425 286.559994 
L 1961.663121 286.559994 
L 1963.558804 272.440528 
L 1965.517675 272.440528 
L 1967.476547 258.321061 
L 1969.372229 300.679528 
L 1971.331101 286.559994 
L 1973.226783 272.440528 
L 1975.185655 272.440528 
L 1977.144527 272.440528 
L 1978.91383 272.440528 
L 1980.872702 272.440528 
L 1982.768384 300.67946 
L 1984.727256 286.560027 
L 1986.622938 244.201562 
L 1988.58181 286.559994 
L 1990.540681 272.440528 
L 1992.436364 300.679495 
" style="fill:none;stroke:#8c564b;stroke-linecap:square;stroke-opacity:0.8;stroke-width:0.8;"/>
   </g>
   <g id="patch_3">
    <path d="M 288 504 
L 288 69.12 
" style="fill:none;stroke:#000000;stroke-linecap:square;stroke-linejoin:miter;stroke-width:0.8;"/>
   </g>
   <g id="patch_4">
    <path d="M 2073.6 504 
L 2073.6 69.12 
" style="fill:none;stroke:#000000;stroke-linecap:square;stroke-linejoin:miter;stroke-width:0.8;"/>
   </g>
   <g id="patch_5">
    <path d="M 288 504 
L 2073.6 504 
" style="fill:none;stroke:#000000;stroke-linecap:square;stroke-linejoin:miter;stroke-width:0.8;"/>
   </g>
   <g id="patch_6">
    <path d="M 288 69.12 
L 2073.6 69.12 
" style="fill:none;stroke:#000000;stroke-linecap:square;stroke-linejoin:miter;stroke-width:0.8;"/>
   </g>
   <g id="legend_1">
    <g id="patch_7">
     <path d="M 1931.207812 165.18875 
L 2066.6 165.18875 
Q 2068.6 165.18875 2068.6 163.18875 
L 2068.6 76.12 
Q 2068.6 74.12 2066.6 74.12 
L 1931.207812 74.12 
Q 1929.207812 74.12 1929.207812 76.12 
L 1929.207812 163.18875 
Q 1929.207812 165.18875 1931.207812 165.18875 
z
" style="fill:#ffffff;opacity:0.8;stroke:#cccccc;stroke-linejoin:miter;"/>
    </g>
    <g id="line2d_37">
     <path d="M 1933.207812 82.218438 
L 1953.207812 82.218438 
" style="fill:none;stroke:#1f77b4;stroke-linecap:square;stroke-opacity:0.8;stroke-width:1.2;"/>
    </g>
    <g id="line2d_38"/>
    <g id="text_16">
     <!-- Train Prediction -->
     <defs>
      <path d="M -0.296875 72.90625 
L 61.375 72.90625 
L 61.375 64.59375 
L 35.5 64.59375 
L 35.5 0 
L 25.59375 0 
L 25.59375 64.59375 
L -0.296875 64.59375 
z
" id="DejaVuSans-84"/>
      <path d="M 41.109375 46.296875 
Q 39.59375 47.171875 37.8125 47.578125 
Q 36.03125 48 33.890625 48 
Q 26.265625 48 22.1875 43.046875 
Q 18.109375 38.09375 18.109375 28.8125 
L 18.109375 0 
L 9.078125 0 
L 9.078125 54.6875 
L 18.109375 54.6875 
L 18.109375 46.1875 
Q 20.953125 51.171875 25.484375 53.578125 
Q 30.03125 56 36.53125 56 
Q 37.453125 56 38.578125 55.875 
Q 39.703125 55.765625 41.0625 55.515625 
z
" id="DejaVuSans-114"/>
      <path d="M 34.28125 27.484375 
Q 23.390625 27.484375 19.1875 25 
Q 14.984375 22.515625 14.984375 16.5 
Q 14.984375 11.71875 18.140625 8.90625 
Q 21.296875 6.109375 26.703125 6.109375 
Q 34.1875 6.109375 38.703125 11.40625 
Q 43.21875 16.703125 43.21875 25.484375 
L 43.21875 27.484375 
z
M 52.203125 31.203125 
L 52.203125 0 
L 43.21875 0 
L 43.21875 8.296875 
Q 40.140625 3.328125 35.546875 0.953125 
Q 30.953125 -1.421875 24.3125 -1.421875 
Q 15.921875 -1.421875 10.953125 3.296875 
Q 6 8.015625 6 15.921875 
Q 6 25.140625 12.171875 29.828125 
Q 18.359375 34.515625 30.609375 34.515625 
L 43.21875 34.515625 
L 43.21875 35.40625 
Q 43.21875 41.609375 39.140625 45 
Q 35.0625 48.390625 27.6875 48.390625 
Q 23 48.390625 18.546875 47.265625 
Q 14.109375 46.140625 10.015625 43.890625 
L 10.015625 52.203125 
Q 14.9375 54.109375 19.578125 55.046875 
Q 24.21875 56 28.609375 56 
Q 40.484375 56 46.34375 49.84375 
Q 52.203125 43.703125 52.203125 31.203125 
z
" id="DejaVuSans-97"/>
      <path d="M 9.421875 54.6875 
L 18.40625 54.6875 
L 18.40625 0 
L 9.421875 0 
z
M 9.421875 75.984375 
L 18.40625 75.984375 
L 18.40625 64.59375 
L 9.421875 64.59375 
z
" id="DejaVuSans-105"/>
      <path d="M 54.890625 33.015625 
L 54.890625 0 
L 45.90625 0 
L 45.90625 32.71875 
Q 45.90625 40.484375 42.875 44.328125 
Q 39.84375 48.1875 33.796875 48.1875 
Q 26.515625 48.1875 22.3125 43.546875 
Q 18.109375 38.921875 18.109375 30.90625 
L 18.109375 0 
L 9.078125 0 
L 9.078125 54.6875 
L 18.109375 54.6875 
L 18.109375 46.1875 
Q 21.34375 51.125 25.703125 53.5625 
Q 30.078125 56 35.796875 56 
Q 45.21875 56 50.046875 50.171875 
Q 54.890625 44.34375 54.890625 33.015625 
z
" id="DejaVuSans-110"/>
      <path id="DejaVuSans-32"/>
      <path d="M 19.671875 64.796875 
L 19.671875 37.40625 
L 32.078125 37.40625 
Q 38.96875 37.40625 42.71875 40.96875 
Q 46.484375 44.53125 46.484375 51.125 
Q 46.484375 57.671875 42.71875 61.234375 
Q 38.96875 64.796875 32.078125 64.796875 
z
M 9.8125 72.90625 
L 32.078125 72.90625 
Q 44.34375 72.90625 50.609375 67.359375 
Q 56.890625 61.8125 56.890625 51.125 
Q 56.890625 40.328125 50.609375 34.8125 
Q 44.34375 29.296875 32.078125 29.296875 
L 19.671875 29.296875 
L 19.671875 0 
L 9.8125 0 
z
" id="DejaVuSans-80"/>
      <path d="M 56.203125 29.59375 
L 56.203125 25.203125 
L 14.890625 25.203125 
Q 15.484375 15.921875 20.484375 11.0625 
Q 25.484375 6.203125 34.421875 6.203125 
Q 39.59375 6.203125 44.453125 7.46875 
Q 49.3125 8.734375 54.109375 11.28125 
L 54.109375 2.78125 
Q 49.265625 0.734375 44.1875 -0.34375 
Q 39.109375 -1.421875 33.890625 -1.421875 
Q 20.796875 -1.421875 13.15625 6.1875 
Q 5.515625 13.8125 5.515625 26.8125 
Q 5.515625 40.234375 12.765625 48.109375 
Q 20.015625 56 32.328125 56 
Q 43.359375 56 49.78125 48.890625 
Q 56.203125 41.796875 56.203125 29.59375 
z
M 47.21875 32.234375 
Q 47.125 39.59375 43.09375 43.984375 
Q 39.0625 48.390625 32.421875 48.390625 
Q 24.90625 48.390625 20.390625 44.140625 
Q 15.875 39.890625 15.1875 32.171875 
z
" id="DejaVuSans-101"/>
      <path d="M 45.40625 46.390625 
L 45.40625 75.984375 
L 54.390625 75.984375 
L 54.390625 0 
L 45.40625 0 
L 45.40625 8.203125 
Q 42.578125 3.328125 38.25 0.953125 
Q 33.9375 -1.421875 27.875 -1.421875 
Q 17.96875 -1.421875 11.734375 6.484375 
Q 5.515625 14.40625 5.515625 27.296875 
Q 5.515625 40.1875 11.734375 48.09375 
Q 17.96875 56 27.875 56 
Q 33.9375 56 38.25 53.625 
Q 42.578125 51.265625 45.40625 46.390625 
z
M 14.796875 27.296875 
Q 14.796875 17.390625 18.875 11.75 
Q 22.953125 6.109375 30.078125 6.109375 
Q 37.203125 6.109375 41.296875 11.75 
Q 45.40625 17.390625 45.40625 27.296875 
Q 45.40625 37.203125 41.296875 42.84375 
Q 37.203125 48.484375 30.078125 48.484375 
Q 22.953125 48.484375 18.875 42.84375 
Q 14.796875 37.203125 14.796875 27.296875 
z
" id="DejaVuSans-100"/>
      <path d="M 48.78125 52.59375 
L 48.78125 44.1875 
Q 44.96875 46.296875 41.140625 47.34375 
Q 37.3125 48.390625 33.40625 48.390625 
Q 24.65625 48.390625 19.8125 42.84375 
Q 14.984375 37.3125 14.984375 27.296875 
Q 14.984375 17.28125 19.8125 11.734375 
Q 24.65625 6.203125 33.40625 6.203125 
Q 37.3125 6.203125 41.140625 7.25 
Q 44.96875 8.296875 48.78125 10.40625 
L 48.78125 2.09375 
Q 45.015625 0.34375 40.984375 -0.53125 
Q 36.96875 -1.421875 32.421875 -1.421875 
Q 20.0625 -1.421875 12.78125 6.34375 
Q 5.515625 14.109375 5.515625 27.296875 
Q 5.515625 40.671875 12.859375 48.328125 
Q 20.21875 56 33.015625 56 
Q 37.15625 56 41.109375 55.140625 
Q 45.0625 54.296875 48.78125 52.59375 
z
" id="DejaVuSans-99"/>
      <path d="M 18.3125 70.21875 
L 18.3125 54.6875 
L 36.8125 54.6875 
L 36.8125 47.703125 
L 18.3125 47.703125 
L 18.3125 18.015625 
Q 18.3125 11.328125 20.140625 9.421875 
Q 21.96875 7.515625 27.59375 7.515625 
L 36.8125 7.515625 
L 36.8125 0 
L 27.59375 0 
Q 17.1875 0 13.234375 3.875 
Q 9.28125 7.765625 9.28125 18.015625 
L 9.28125 47.703125 
L 2.6875 47.703125 
L 2.6875 54.6875 
L 9.28125 54.6875 
L 9.28125 70.21875 
z
" id="DejaVuSans-116"/>
      <path d="M 30.609375 48.390625 
Q 23.390625 48.390625 19.1875 42.75 
Q 14.984375 37.109375 14.984375 27.296875 
Q 14.984375 17.484375 19.15625 11.84375 
Q 23.34375 6.203125 30.609375 6.203125 
Q 37.796875 6.203125 41.984375 11.859375 
Q 46.1875 17.53125 46.1875 27.296875 
Q 46.1875 37.015625 41.984375 42.703125 
Q 37.796875 48.390625 30.609375 48.390625 
z
M 30.609375 56 
Q 42.328125 56 49.015625 48.375 
Q 55.71875 40.765625 55.71875 27.296875 
Q 55.71875 13.875 49.015625 6.21875 
Q 42.328125 -1.421875 30.609375 -1.421875 
Q 18.84375 -1.421875 12.171875 6.21875 
Q 5.515625 13.875 5.515625 27.296875 
Q 5.515625 40.765625 12.171875 48.375 
Q 18.84375 56 30.609375 56 
z
" id="DejaVuSans-111"/>
     </defs>
     <g transform="translate(1961.207812 85.718438)scale(0.1 -0.1)">
      <use xlink:href="#DejaVuSans-84"/>
      <use x="60.865234" xlink:href="#DejaVuSans-114"/>
      <use x="101.978516" xlink:href="#DejaVuSans-97"/>
      <use x="163.257812" xlink:href="#DejaVuSans-105"/>
      <use x="191.041016" xlink:href="#DejaVuSans-110"/>
      <use x="254.419922" xlink:href="#DejaVuSans-32"/>
      <use x="286.207031" xlink:href="#DejaVuSans-80"/>
      <use x="346.494141" xlink:href="#DejaVuSans-114"/>
      <use x="387.576172" xlink:href="#DejaVuSans-101"/>
      <use x="449.099609" xlink:href="#DejaVuSans-100"/>
      <use x="512.576172" xlink:href="#DejaVuSans-105"/>
      <use x="540.359375" xlink:href="#DejaVuSans-99"/>
      <use x="595.339844" xlink:href="#DejaVuSans-116"/>
      <use x="634.548828" xlink:href="#DejaVuSans-105"/>
      <use x="662.332031" xlink:href="#DejaVuSans-111"/>
      <use x="723.513672" xlink:href="#DejaVuSans-110"/>
     </g>
    </g>
    <g id="line2d_39">
     <path d="M 1933.207812 96.896563 
L 1953.207812 96.896563 
" style="fill:none;stroke:#ff7f0e;stroke-linecap:square;stroke-opacity:0.8;stroke-width:0.8;"/>
    </g>
    <g id="line2d_40"/>
    <g id="text_17">
     <!-- Train Actual -->
     <defs>
      <path d="M 34.1875 63.1875 
L 20.796875 26.90625 
L 47.609375 26.90625 
z
M 28.609375 72.90625 
L 39.796875 72.90625 
L 67.578125 0 
L 57.328125 0 
L 50.6875 18.703125 
L 17.828125 18.703125 
L 11.1875 0 
L 0.78125 0 
z
" id="DejaVuSans-65"/>
      <path d="M 8.5 21.578125 
L 8.5 54.6875 
L 17.484375 54.6875 
L 17.484375 21.921875 
Q 17.484375 14.15625 20.5 10.265625 
Q 23.53125 6.390625 29.59375 6.390625 
Q 36.859375 6.390625 41.078125 11.03125 
Q 45.3125 15.671875 45.3125 23.6875 
L 45.3125 54.6875 
L 54.296875 54.6875 
L 54.296875 0 
L 45.3125 0 
L 45.3125 8.40625 
Q 42.046875 3.421875 37.71875 1 
Q 33.40625 -1.421875 27.6875 -1.421875 
Q 18.265625 -1.421875 13.375 4.4375 
Q 8.5 10.296875 8.5 21.578125 
z
M 31.109375 56 
z
" id="DejaVuSans-117"/>
      <path d="M 9.421875 75.984375 
L 18.40625 75.984375 
L 18.40625 0 
L 9.421875 0 
z
" id="DejaVuSans-108"/>
     </defs>
     <g transform="translate(1961.207812 100.396563)scale(0.1 -0.1)">
      <use xlink:href="#DejaVuSans-84"/>
      <use x="60.865234" xlink:href="#DejaVuSans-114"/>
      <use x="101.978516" xlink:href="#DejaVuSans-97"/>
      <use x="163.257812" xlink:href="#DejaVuSans-105"/>
      <use x="191.041016" xlink:href="#DejaVuSans-110"/>
      <use x="254.419922" xlink:href="#DejaVuSans-32"/>
      <use x="286.207031" xlink:href="#DejaVuSans-65"/>
      <use x="354.599609" xlink:href="#DejaVuSans-99"/>
      <use x="409.580078" xlink:href="#DejaVuSans-116"/>
      <use x="448.789062" xlink:href="#DejaVuSans-117"/>
      <use x="512.167969" xlink:href="#DejaVuSans-97"/>
      <use x="573.447266" xlink:href="#DejaVuSans-108"/>
     </g>
    </g>
    <g id="line2d_41">
     <path d="M 1933.207812 111.574688 
L 1953.207812 111.574688 
" style="fill:none;stroke:#2ca02c;stroke-linecap:square;stroke-opacity:0.8;stroke-width:1.2;"/>
    </g>
    <g id="line2d_42"/>
    <g id="text_18">
     <!-- Validation Prediction -->
     <defs>
      <path d="M 28.609375 0 
L 0.78125 72.90625 
L 11.078125 72.90625 
L 34.1875 11.53125 
L 57.328125 72.90625 
L 67.578125 72.90625 
L 39.796875 0 
z
" id="DejaVuSans-86"/>
     </defs>
     <g transform="translate(1961.207812 115.074688)scale(0.1 -0.1)">
      <use xlink:href="#DejaVuSans-86"/>
      <use x="68.298828" xlink:href="#DejaVuSans-97"/>
      <use x="129.578125" xlink:href="#DejaVuSans-108"/>
      <use x="157.361328" xlink:href="#DejaVuSans-105"/>
      <use x="185.144531" xlink:href="#DejaVuSans-100"/>
      <use x="248.621094" xlink:href="#DejaVuSans-97"/>
      <use x="309.900391" xlink:href="#DejaVuSans-116"/>
      <use x="349.109375" xlink:href="#DejaVuSans-105"/>
      <use x="376.892578" xlink:href="#DejaVuSans-111"/>
      <use x="438.074219" xlink:href="#DejaVuSans-110"/>
      <use x="501.453125" xlink:href="#DejaVuSans-32"/>
      <use x="533.240234" xlink:href="#DejaVuSans-80"/>
      <use x="593.527344" xlink:href="#DejaVuSans-114"/>
      <use x="634.609375" xlink:href="#DejaVuSans-101"/>
      <use x="696.132812" xlink:href="#DejaVuSans-100"/>
      <use x="759.609375" xlink:href="#DejaVuSans-105"/>
      <use x="787.392578" xlink:href="#DejaVuSans-99"/>
      <use x="842.373047" xlink:href="#DejaVuSans-116"/>
      <use x="881.582031" xlink:href="#DejaVuSans-105"/>
      <use x="909.365234" xlink:href="#DejaVuSans-111"/>
      <use x="970.546875" xlink:href="#DejaVuSans-110"/>
     </g>
    </g>
    <g id="line2d_43">
     <path d="M 1933.207812 126.252813 
L 1953.207812 126.252813 
" style="fill:none;stroke:#d62728;stroke-linecap:square;stroke-opacity:0.8;stroke-width:0.8;"/>
    </g>
    <g id="line2d_44"/>
    <g id="text_19">
     <!-- Validation Actual -->
     <g transform="translate(1961.207812 129.752813)scale(0.1 -0.1)">
      <use xlink:href="#DejaVuSans-86"/>
      <use x="68.298828" xlink:href="#DejaVuSans-97"/>
      <use x="129.578125" xlink:href="#DejaVuSans-108"/>
      <use x="157.361328" xlink:href="#DejaVuSans-105"/>
      <use x="185.144531" xlink:href="#DejaVuSans-100"/>
      <use x="248.621094" xlink:href="#DejaVuSans-97"/>
      <use x="309.900391" xlink:href="#DejaVuSans-116"/>
      <use x="349.109375" xlink:href="#DejaVuSans-105"/>
      <use x="376.892578" xlink:href="#DejaVuSans-111"/>
      <use x="438.074219" xlink:href="#DejaVuSans-110"/>
      <use x="501.453125" xlink:href="#DejaVuSans-32"/>
      <use x="533.240234" xlink:href="#DejaVuSans-65"/>
      <use x="601.632812" xlink:href="#DejaVuSans-99"/>
      <use x="656.613281" xlink:href="#DejaVuSans-116"/>
      <use x="695.822266" xlink:href="#DejaVuSans-117"/>
      <use x="759.201172" xlink:href="#DejaVuSans-97"/>
      <use x="820.480469" xlink:href="#DejaVuSans-108"/>
     </g>
    </g>
    <g id="line2d_45">
     <path d="M 1933.207812 140.930938 
L 1953.207812 140.930938 
" style="fill:none;stroke:#9467bd;stroke-linecap:square;stroke-opacity:0.8;stroke-width:1.2;"/>
    </g>
    <g id="line2d_46"/>
    <g id="text_20">
     <!-- Test Prediction -->
     <defs>
      <path d="M 44.28125 53.078125 
L 44.28125 44.578125 
Q 40.484375 46.53125 36.375 47.5 
Q 32.28125 48.484375 27.875 48.484375 
Q 21.1875 48.484375 17.84375 46.4375 
Q 14.5 44.390625 14.5 40.28125 
Q 14.5 37.15625 16.890625 35.375 
Q 19.28125 33.59375 26.515625 31.984375 
L 29.59375 31.296875 
Q 39.15625 29.25 43.1875 25.515625 
Q 47.21875 21.78125 47.21875 15.09375 
Q 47.21875 7.46875 41.1875 3.015625 
Q 35.15625 -1.421875 24.609375 -1.421875 
Q 20.21875 -1.421875 15.453125 -0.5625 
Q 10.6875 0.296875 5.421875 2 
L 5.421875 11.28125 
Q 10.40625 8.6875 15.234375 7.390625 
Q 20.0625 6.109375 24.8125 6.109375 
Q 31.15625 6.109375 34.5625 8.28125 
Q 37.984375 10.453125 37.984375 14.40625 
Q 37.984375 18.0625 35.515625 20.015625 
Q 33.0625 21.96875 24.703125 23.78125 
L 21.578125 24.515625 
Q 13.234375 26.265625 9.515625 29.90625 
Q 5.8125 33.546875 5.8125 39.890625 
Q 5.8125 47.609375 11.28125 51.796875 
Q 16.75 56 26.8125 56 
Q 31.78125 56 36.171875 55.265625 
Q 40.578125 54.546875 44.28125 53.078125 
z
" id="DejaVuSans-115"/>
     </defs>
     <g transform="translate(1961.207812 144.430938)scale(0.1 -0.1)">
      <use xlink:href="#DejaVuSans-84"/>
      <use x="60.818359" xlink:href="#DejaVuSans-101"/>
      <use x="122.341797" xlink:href="#DejaVuSans-115"/>
      <use x="174.441406" xlink:href="#DejaVuSans-116"/>
      <use x="213.650391" xlink:href="#DejaVuSans-32"/>
      <use x="245.4375" xlink:href="#DejaVuSans-80"/>
      <use x="305.724609" xlink:href="#DejaVuSans-114"/>
      <use x="346.806641" xlink:href="#DejaVuSans-101"/>
      <use x="408.330078" xlink:href="#DejaVuSans-100"/>
      <use x="471.806641" xlink:href="#DejaVuSans-105"/>
      <use x="499.589844" xlink:href="#DejaVuSans-99"/>
      <use x="554.570312" xlink:href="#DejaVuSans-116"/>
      <use x="593.779297" xlink:href="#DejaVuSans-105"/>
      <use x="621.5625" xlink:href="#DejaVuSans-111"/>
      <use x="682.744141" xlink:href="#DejaVuSans-110"/>
     </g>
    </g>
    <g id="line2d_47">
     <path d="M 1933.207812 155.609063 
L 1953.207812 155.609063 
" style="fill:none;stroke:#8c564b;stroke-linecap:square;stroke-opacity:0.8;stroke-width:0.8;"/>
    </g>
    <g id="line2d_48"/>
    <g id="text_21">
     <!-- Test Actual -->
     <g transform="translate(1961.207812 159.109063)scale(0.1 -0.1)">
      <use xlink:href="#DejaVuSans-84"/>
      <use x="60.818359" xlink:href="#DejaVuSans-101"/>
      <use x="122.341797" xlink:href="#DejaVuSans-115"/>
      <use x="174.441406" xlink:href="#DejaVuSans-116"/>
      <use x="213.650391" xlink:href="#DejaVuSans-32"/>
      <use x="245.4375" xlink:href="#DejaVuSans-65"/>
      <use x="313.830078" xlink:href="#DejaVuSans-99"/>
      <use x="368.810547" xlink:href="#DejaVuSans-116"/>
      <use x="408.019531" xlink:href="#DejaVuSans-117"/>
      <use x="471.398438" xlink:href="#DejaVuSans-97"/>
      <use x="532.677734" xlink:href="#DejaVuSans-108"/>
     </g>
    </g>
   </g>
  </g>
 </g>
 <defs>
  <clipPath id="p593c16f614">
   <rect height="434.88" width="1785.6" x="288" y="69.12"/>
  </clipPath>
 </defs>
</svg>
