<?xml version="1.0" encoding="utf-8" standalone="no"?>
<!DOCTYPE svg PUBLIC "-//W3C//DTD SVG 1.1//EN"
  "http://www.w3.org/Graphics/SVG/1.1/DTD/svg11.dtd">
<!-- Created with matplotlib (https://matplotlib.org/) -->
<svg height="576pt" version="1.1" viewBox="0 0 2304 576" width="2304pt" xmlns="http://www.w3.org/2000/svg" xmlns:xlink="http://www.w3.org/1999/xlink">
 <defs>
  <style type="text/css">
*{stroke-linecap:butt;stroke-linejoin:round;}
  </style>
 </defs>
 <g id="figure_1">
  <g id="patch_1">
   <path d="M 0 576 
L 2304 576 
L 2304 0 
L 0 0 
z
" style="fill:#ffffff;"/>
  </g>
  <g id="axes_1">
   <g id="patch_2">
    <path d="M 288 504 
L 2073.6 504 
L 2073.6 69.12 
L 288 69.12 
z
" style="fill:#ffffff;"/>
   </g>
   <g id="matplotlib.axis_1">
    <g id="xtick_1">
     <g id="line2d_1">
      <path clip-path="url(#p66b09dbffc)" d="M 400.047483 504 
L 400.047483 69.12 
" style="fill:none;stroke:#b0b0b0;stroke-linecap:square;stroke-width:0.8;"/>
     </g>
     <g id="line2d_2">
      <defs>
       <path d="M 0 0 
L 0 3.5 
" id="m6d250cbdce" style="stroke:#000000;stroke-width:0.8;"/>
      </defs>
      <g>
       <use style="stroke:#000000;stroke-width:0.8;" x="400.047483" xlink:href="#m6d250cbdce" y="504"/>
      </g>
     </g>
     <g id="text_1">
      <!-- 1950 -->
      <defs>
       <path d="M 12.40625 8.296875 
L 28.515625 8.296875 
L 28.515625 63.921875 
L 10.984375 60.40625 
L 10.984375 69.390625 
L 28.421875 72.90625 
L 38.28125 72.90625 
L 38.28125 8.296875 
L 54.390625 8.296875 
L 54.390625 0 
L 12.40625 0 
z
" id="DejaVuSans-49"/>
       <path d="M 10.984375 1.515625 
L 10.984375 10.5 
Q 14.703125 8.734375 18.5 7.8125 
Q 22.3125 6.890625 25.984375 6.890625 
Q 35.75 6.890625 40.890625 13.453125 
Q 46.046875 20.015625 46.78125 33.40625 
Q 43.953125 29.203125 39.59375 26.953125 
Q 35.25 24.703125 29.984375 24.703125 
Q 19.046875 24.703125 12.671875 31.3125 
Q 6.296875 37.9375 6.296875 49.421875 
Q 6.296875 60.640625 12.9375 67.421875 
Q 19.578125 74.21875 30.609375 74.21875 
Q 43.265625 74.21875 49.921875 64.515625 
Q 56.59375 54.828125 56.59375 36.375 
Q 56.59375 19.140625 48.40625 8.859375 
Q 40.234375 -1.421875 26.421875 -1.421875 
Q 22.703125 -1.421875 18.890625 -0.6875 
Q 15.09375 0.046875 10.984375 1.515625 
z
M 30.609375 32.421875 
Q 37.25 32.421875 41.125 36.953125 
Q 45.015625 41.5 45.015625 49.421875 
Q 45.015625 57.28125 41.125 61.84375 
Q 37.25 66.40625 30.609375 66.40625 
Q 23.96875 66.40625 20.09375 61.84375 
Q 16.21875 57.28125 16.21875 49.421875 
Q 16.21875 41.5 20.09375 36.953125 
Q 23.96875 32.421875 30.609375 32.421875 
z
" id="DejaVuSans-57"/>
       <path d="M 10.796875 72.90625 
L 49.515625 72.90625 
L 49.515625 64.59375 
L 19.828125 64.59375 
L 19.828125 46.734375 
Q 21.96875 47.46875 24.109375 47.828125 
Q 26.265625 48.1875 28.421875 48.1875 
Q 40.625 48.1875 47.75 41.5 
Q 54.890625 34.8125 54.890625 23.390625 
Q 54.890625 11.625 47.5625 5.09375 
Q 40.234375 -1.421875 26.90625 -1.421875 
Q 22.3125 -1.421875 17.546875 -0.640625 
Q 12.796875 0.140625 7.71875 1.703125 
L 7.71875 11.625 
Q 12.109375 9.234375 16.796875 8.0625 
Q 21.484375 6.890625 26.703125 6.890625 
Q 35.15625 6.890625 40.078125 11.328125 
Q 45.015625 15.765625 45.015625 23.390625 
Q 45.015625 31 40.078125 35.4375 
Q 35.15625 39.890625 26.703125 39.890625 
Q 22.75 39.890625 18.8125 39.015625 
Q 14.890625 38.140625 10.796875 36.28125 
z
" id="DejaVuSans-53"/>
       <path d="M 31.78125 66.40625 
Q 24.171875 66.40625 20.328125 58.90625 
Q 16.5 51.421875 16.5 36.375 
Q 16.5 21.390625 20.328125 13.890625 
Q 24.171875 6.390625 31.78125 6.390625 
Q 39.453125 6.390625 43.28125 13.890625 
Q 47.125 21.390625 47.125 36.375 
Q 47.125 51.421875 43.28125 58.90625 
Q 39.453125 66.40625 31.78125 66.40625 
z
M 31.78125 74.21875 
Q 44.046875 74.21875 50.515625 64.515625 
Q 56.984375 54.828125 56.984375 36.375 
Q 56.984375 17.96875 50.515625 8.265625 
Q 44.046875 -1.421875 31.78125 -1.421875 
Q 19.53125 -1.421875 13.0625 8.265625 
Q 6.59375 17.96875 6.59375 36.375 
Q 6.59375 54.828125 13.0625 64.515625 
Q 19.53125 74.21875 31.78125 74.21875 
z
" id="DejaVuSans-48"/>
      </defs>
      <g transform="translate(387.322483 518.598438)scale(0.1 -0.1)">
       <use xlink:href="#DejaVuSans-49"/>
       <use x="63.623047" xlink:href="#DejaVuSans-57"/>
       <use x="127.246094" xlink:href="#DejaVuSans-53"/>
       <use x="190.869141" xlink:href="#DejaVuSans-48"/>
      </g>
     </g>
    </g>
    <g id="xtick_2">
     <g id="line2d_3">
      <path clip-path="url(#p66b09dbffc)" d="M 631.644623 504 
L 631.644623 69.12 
" style="fill:none;stroke:#b0b0b0;stroke-linecap:square;stroke-width:0.8;"/>
     </g>
     <g id="line2d_4">
      <g>
       <use style="stroke:#000000;stroke-width:0.8;" x="631.644623" xlink:href="#m6d250cbdce" y="504"/>
      </g>
     </g>
     <g id="text_2">
      <!-- 1960 -->
      <defs>
       <path d="M 33.015625 40.375 
Q 26.375 40.375 22.484375 35.828125 
Q 18.609375 31.296875 18.609375 23.390625 
Q 18.609375 15.53125 22.484375 10.953125 
Q 26.375 6.390625 33.015625 6.390625 
Q 39.65625 6.390625 43.53125 10.953125 
Q 47.40625 15.53125 47.40625 23.390625 
Q 47.40625 31.296875 43.53125 35.828125 
Q 39.65625 40.375 33.015625 40.375 
z
M 52.59375 71.296875 
L 52.59375 62.3125 
Q 48.875 64.0625 45.09375 64.984375 
Q 41.3125 65.921875 37.59375 65.921875 
Q 27.828125 65.921875 22.671875 59.328125 
Q 17.53125 52.734375 16.796875 39.40625 
Q 19.671875 43.65625 24.015625 45.921875 
Q 28.375 48.1875 33.59375 48.1875 
Q 44.578125 48.1875 50.953125 41.515625 
Q 57.328125 34.859375 57.328125 23.390625 
Q 57.328125 12.15625 50.6875 5.359375 
Q 44.046875 -1.421875 33.015625 -1.421875 
Q 20.359375 -1.421875 13.671875 8.265625 
Q 6.984375 17.96875 6.984375 36.375 
Q 6.984375 53.65625 15.1875 63.9375 
Q 23.390625 74.21875 37.203125 74.21875 
Q 40.921875 74.21875 44.703125 73.484375 
Q 48.484375 72.75 52.59375 71.296875 
z
" id="DejaVuSans-54"/>
      </defs>
      <g transform="translate(618.919623 518.598438)scale(0.1 -0.1)">
       <use xlink:href="#DejaVuSans-49"/>
       <use x="63.623047" xlink:href="#DejaVuSans-57"/>
       <use x="127.246094" xlink:href="#DejaVuSans-54"/>
       <use x="190.869141" xlink:href="#DejaVuSans-48"/>
      </g>
     </g>
    </g>
    <g id="xtick_3">
     <g id="line2d_5">
      <path clip-path="url(#p66b09dbffc)" d="M 863.30518 504 
L 863.30518 69.12 
" style="fill:none;stroke:#b0b0b0;stroke-linecap:square;stroke-width:0.8;"/>
     </g>
     <g id="line2d_6">
      <g>
       <use style="stroke:#000000;stroke-width:0.8;" x="863.30518" xlink:href="#m6d250cbdce" y="504"/>
      </g>
     </g>
     <g id="text_3">
      <!-- 1970 -->
      <defs>
       <path d="M 8.203125 72.90625 
L 55.078125 72.90625 
L 55.078125 68.703125 
L 28.609375 0 
L 18.3125 0 
L 43.21875 64.59375 
L 8.203125 64.59375 
z
" id="DejaVuSans-55"/>
      </defs>
      <g transform="translate(850.58018 518.598438)scale(0.1 -0.1)">
       <use xlink:href="#DejaVuSans-49"/>
       <use x="63.623047" xlink:href="#DejaVuSans-57"/>
       <use x="127.246094" xlink:href="#DejaVuSans-55"/>
       <use x="190.869141" xlink:href="#DejaVuSans-48"/>
      </g>
     </g>
    </g>
    <g id="xtick_4">
     <g id="line2d_7">
      <path clip-path="url(#p66b09dbffc)" d="M 1094.90232 504 
L 1094.90232 69.12 
" style="fill:none;stroke:#b0b0b0;stroke-linecap:square;stroke-width:0.8;"/>
     </g>
     <g id="line2d_8">
      <g>
       <use style="stroke:#000000;stroke-width:0.8;" x="1094.90232" xlink:href="#m6d250cbdce" y="504"/>
      </g>
     </g>
     <g id="text_4">
      <!-- 1980 -->
      <defs>
       <path d="M 31.78125 34.625 
Q 24.75 34.625 20.71875 30.859375 
Q 16.703125 27.09375 16.703125 20.515625 
Q 16.703125 13.921875 20.71875 10.15625 
Q 24.75 6.390625 31.78125 6.390625 
Q 38.8125 6.390625 42.859375 10.171875 
Q 46.921875 13.96875 46.921875 20.515625 
Q 46.921875 27.09375 42.890625 30.859375 
Q 38.875 34.625 31.78125 34.625 
z
M 21.921875 38.8125 
Q 15.578125 40.375 12.03125 44.71875 
Q 8.5 49.078125 8.5 55.328125 
Q 8.5 64.0625 14.71875 69.140625 
Q 20.953125 74.21875 31.78125 74.21875 
Q 42.671875 74.21875 48.875 69.140625 
Q 55.078125 64.0625 55.078125 55.328125 
Q 55.078125 49.078125 51.53125 44.71875 
Q 48 40.375 41.703125 38.8125 
Q 48.828125 37.15625 52.796875 32.3125 
Q 56.78125 27.484375 56.78125 20.515625 
Q 56.78125 9.90625 50.3125 4.234375 
Q 43.84375 -1.421875 31.78125 -1.421875 
Q 19.734375 -1.421875 13.25 4.234375 
Q 6.78125 9.90625 6.78125 20.515625 
Q 6.78125 27.484375 10.78125 32.3125 
Q 14.796875 37.15625 21.921875 38.8125 
z
M 18.3125 54.390625 
Q 18.3125 48.734375 21.84375 45.5625 
Q 25.390625 42.390625 31.78125 42.390625 
Q 38.140625 42.390625 41.71875 45.5625 
Q 45.3125 48.734375 45.3125 54.390625 
Q 45.3125 60.0625 41.71875 63.234375 
Q 38.140625 66.40625 31.78125 66.40625 
Q 25.390625 66.40625 21.84375 63.234375 
Q 18.3125 60.0625 18.3125 54.390625 
z
" id="DejaVuSans-56"/>
      </defs>
      <g transform="translate(1082.17732 518.598438)scale(0.1 -0.1)">
       <use xlink:href="#DejaVuSans-49"/>
       <use x="63.623047" xlink:href="#DejaVuSans-57"/>
       <use x="127.246094" xlink:href="#DejaVuSans-56"/>
       <use x="190.869141" xlink:href="#DejaVuSans-48"/>
      </g>
     </g>
    </g>
    <g id="xtick_5">
     <g id="line2d_9">
      <path clip-path="url(#p66b09dbffc)" d="M 1326.562877 504 
L 1326.562877 69.12 
" style="fill:none;stroke:#b0b0b0;stroke-linecap:square;stroke-width:0.8;"/>
     </g>
     <g id="line2d_10">
      <g>
       <use style="stroke:#000000;stroke-width:0.8;" x="1326.562877" xlink:href="#m6d250cbdce" y="504"/>
      </g>
     </g>
     <g id="text_5">
      <!-- 1990 -->
      <g transform="translate(1313.837877 518.598438)scale(0.1 -0.1)">
       <use xlink:href="#DejaVuSans-49"/>
       <use x="63.623047" xlink:href="#DejaVuSans-57"/>
       <use x="127.246094" xlink:href="#DejaVuSans-57"/>
       <use x="190.869141" xlink:href="#DejaVuSans-48"/>
      </g>
     </g>
    </g>
    <g id="xtick_6">
     <g id="line2d_11">
      <path clip-path="url(#p66b09dbffc)" d="M 1558.160017 504 
L 1558.160017 69.12 
" style="fill:none;stroke:#b0b0b0;stroke-linecap:square;stroke-width:0.8;"/>
     </g>
     <g id="line2d_12">
      <g>
       <use style="stroke:#000000;stroke-width:0.8;" x="1558.160017" xlink:href="#m6d250cbdce" y="504"/>
      </g>
     </g>
     <g id="text_6">
      <!-- 2000 -->
      <defs>
       <path d="M 19.1875 8.296875 
L 53.609375 8.296875 
L 53.609375 0 
L 7.328125 0 
L 7.328125 8.296875 
Q 12.9375 14.109375 22.625 23.890625 
Q 32.328125 33.6875 34.8125 36.53125 
Q 39.546875 41.84375 41.421875 45.53125 
Q 43.3125 49.21875 43.3125 52.78125 
Q 43.3125 58.59375 39.234375 62.25 
Q 35.15625 65.921875 28.609375 65.921875 
Q 23.96875 65.921875 18.8125 64.3125 
Q 13.671875 62.703125 7.8125 59.421875 
L 7.8125 69.390625 
Q 13.765625 71.78125 18.9375 73 
Q 24.125 74.21875 28.421875 74.21875 
Q 39.75 74.21875 46.484375 68.546875 
Q 53.21875 62.890625 53.21875 53.421875 
Q 53.21875 48.921875 51.53125 44.890625 
Q 49.859375 40.875 45.40625 35.40625 
Q 44.1875 33.984375 37.640625 27.21875 
Q 31.109375 20.453125 19.1875 8.296875 
z
" id="DejaVuSans-50"/>
      </defs>
      <g transform="translate(1545.435017 518.598438)scale(0.1 -0.1)">
       <use xlink:href="#DejaVuSans-50"/>
       <use x="63.623047" xlink:href="#DejaVuSans-48"/>
       <use x="127.246094" xlink:href="#DejaVuSans-48"/>
       <use x="190.869141" xlink:href="#DejaVuSans-48"/>
      </g>
     </g>
    </g>
    <g id="xtick_7">
     <g id="line2d_13">
      <path clip-path="url(#p66b09dbffc)" d="M 1789.820574 504 
L 1789.820574 69.12 
" style="fill:none;stroke:#b0b0b0;stroke-linecap:square;stroke-width:0.8;"/>
     </g>
     <g id="line2d_14">
      <g>
       <use style="stroke:#000000;stroke-width:0.8;" x="1789.820574" xlink:href="#m6d250cbdce" y="504"/>
      </g>
     </g>
     <g id="text_7">
      <!-- 2010 -->
      <g transform="translate(1777.095574 518.598438)scale(0.1 -0.1)">
       <use xlink:href="#DejaVuSans-50"/>
       <use x="63.623047" xlink:href="#DejaVuSans-48"/>
       <use x="127.246094" xlink:href="#DejaVuSans-49"/>
       <use x="190.869141" xlink:href="#DejaVuSans-48"/>
      </g>
     </g>
    </g>
    <g id="xtick_8">
     <g id="line2d_15">
      <path clip-path="url(#p66b09dbffc)" d="M 2021.417714 504 
L 2021.417714 69.12 
" style="fill:none;stroke:#b0b0b0;stroke-linecap:square;stroke-width:0.8;"/>
     </g>
     <g id="line2d_16">
      <g>
       <use style="stroke:#000000;stroke-width:0.8;" x="2021.417714" xlink:href="#m6d250cbdce" y="504"/>
      </g>
     </g>
     <g id="text_8">
      <!-- 2020 -->
      <g transform="translate(2008.692714 518.598438)scale(0.1 -0.1)">
       <use xlink:href="#DejaVuSans-50"/>
       <use x="63.623047" xlink:href="#DejaVuSans-48"/>
       <use x="127.246094" xlink:href="#DejaVuSans-50"/>
       <use x="190.869141" xlink:href="#DejaVuSans-48"/>
      </g>
     </g>
    </g>
   </g>
   <g id="matplotlib.axis_2">
    <g id="ytick_1">
     <g id="line2d_17">
      <path clip-path="url(#p66b09dbffc)" d="M 288 456.493595 
L 2073.6 456.493595 
" style="fill:none;stroke:#b0b0b0;stroke-linecap:square;stroke-width:0.8;"/>
     </g>
     <g id="line2d_18">
      <defs>
       <path d="M 0 0 
L -3.5 0 
" id="m5b3baa85d5" style="stroke:#000000;stroke-width:0.8;"/>
      </defs>
      <g>
       <use style="stroke:#000000;stroke-width:0.8;" x="288" xlink:href="#m5b3baa85d5" y="456.493595"/>
      </g>
     </g>
     <g id="text_9">
      <!-- −6 -->
      <defs>
       <path d="M 10.59375 35.5 
L 73.1875 35.5 
L 73.1875 27.203125 
L 10.59375 27.203125 
z
" id="DejaVuSans-8722"/>
      </defs>
      <g transform="translate(266.257812 460.292813)scale(0.1 -0.1)">
       <use xlink:href="#DejaVuSans-8722"/>
       <use x="83.789062" xlink:href="#DejaVuSans-54"/>
      </g>
     </g>
    </g>
    <g id="ytick_2">
     <g id="line2d_19">
      <path clip-path="url(#p66b09dbffc)" d="M 288 395.003942 
L 2073.6 395.003942 
" style="fill:none;stroke:#b0b0b0;stroke-linecap:square;stroke-width:0.8;"/>
     </g>
     <g id="line2d_20">
      <g>
       <use style="stroke:#000000;stroke-width:0.8;" x="288" xlink:href="#m5b3baa85d5" y="395.003942"/>
      </g>
     </g>
     <g id="text_10">
      <!-- −4 -->
      <defs>
       <path d="M 37.796875 64.3125 
L 12.890625 25.390625 
L 37.796875 25.390625 
z
M 35.203125 72.90625 
L 47.609375 72.90625 
L 47.609375 25.390625 
L 58.015625 25.390625 
L 58.015625 17.1875 
L 47.609375 17.1875 
L 47.609375 0 
L 37.796875 0 
L 37.796875 17.1875 
L 4.890625 17.1875 
L 4.890625 26.703125 
z
" id="DejaVuSans-52"/>
      </defs>
      <g transform="translate(266.257812 398.803161)scale(0.1 -0.1)">
       <use xlink:href="#DejaVuSans-8722"/>
       <use x="83.789062" xlink:href="#DejaVuSans-52"/>
      </g>
     </g>
    </g>
    <g id="ytick_3">
     <g id="line2d_21">
      <path clip-path="url(#p66b09dbffc)" d="M 288 333.51429 
L 2073.6 333.51429 
" style="fill:none;stroke:#b0b0b0;stroke-linecap:square;stroke-width:0.8;"/>
     </g>
     <g id="line2d_22">
      <g>
       <use style="stroke:#000000;stroke-width:0.8;" x="288" xlink:href="#m5b3baa85d5" y="333.51429"/>
      </g>
     </g>
     <g id="text_11">
      <!-- −2 -->
      <g transform="translate(266.257812 337.313509)scale(0.1 -0.1)">
       <use xlink:href="#DejaVuSans-8722"/>
       <use x="83.789062" xlink:href="#DejaVuSans-50"/>
      </g>
     </g>
    </g>
    <g id="ytick_4">
     <g id="line2d_23">
      <path clip-path="url(#p66b09dbffc)" d="M 288 272.024637 
L 2073.6 272.024637 
" style="fill:none;stroke:#b0b0b0;stroke-linecap:square;stroke-width:0.8;"/>
     </g>
     <g id="line2d_24">
      <g>
       <use style="stroke:#000000;stroke-width:0.8;" x="288" xlink:href="#m5b3baa85d5" y="272.024637"/>
      </g>
     </g>
     <g id="text_12">
      <!-- 0 -->
      <g transform="translate(274.6375 275.823856)scale(0.1 -0.1)">
       <use xlink:href="#DejaVuSans-48"/>
      </g>
     </g>
    </g>
    <g id="ytick_5">
     <g id="line2d_25">
      <path clip-path="url(#p66b09dbffc)" d="M 288 210.534985 
L 2073.6 210.534985 
" style="fill:none;stroke:#b0b0b0;stroke-linecap:square;stroke-width:0.8;"/>
     </g>
     <g id="line2d_26">
      <g>
       <use style="stroke:#000000;stroke-width:0.8;" x="288" xlink:href="#m5b3baa85d5" y="210.534985"/>
      </g>
     </g>
     <g id="text_13">
      <!-- 2 -->
      <g transform="translate(274.6375 214.334204)scale(0.1 -0.1)">
       <use xlink:href="#DejaVuSans-50"/>
      </g>
     </g>
    </g>
    <g id="ytick_6">
     <g id="line2d_27">
      <path clip-path="url(#p66b09dbffc)" d="M 288 149.045332 
L 2073.6 149.045332 
" style="fill:none;stroke:#b0b0b0;stroke-linecap:square;stroke-width:0.8;"/>
     </g>
     <g id="line2d_28">
      <g>
       <use style="stroke:#000000;stroke-width:0.8;" x="288" xlink:href="#m5b3baa85d5" y="149.045332"/>
      </g>
     </g>
     <g id="text_14">
      <!-- 4 -->
      <g transform="translate(274.6375 152.844551)scale(0.1 -0.1)">
       <use xlink:href="#DejaVuSans-52"/>
      </g>
     </g>
    </g>
    <g id="ytick_7">
     <g id="line2d_29">
      <path clip-path="url(#p66b09dbffc)" d="M 288 87.55568 
L 2073.6 87.55568 
" style="fill:none;stroke:#b0b0b0;stroke-linecap:square;stroke-width:0.8;"/>
     </g>
     <g id="line2d_30">
      <g>
       <use style="stroke:#000000;stroke-width:0.8;" x="288" xlink:href="#m5b3baa85d5" y="87.55568"/>
      </g>
     </g>
     <g id="text_15">
      <!-- 6 -->
      <g transform="translate(274.6375 91.354899)scale(0.1 -0.1)">
       <use xlink:href="#DejaVuSans-54"/>
      </g>
     </g>
    </g>
   </g>
   <g id="line2d_31">
    <path clip-path="url(#p66b09dbffc)" d="M 369.163636 267.319438 
L 371.066132 274.377899 
L 373.032044 272.683941 
L 374.93454 279.455962 
L 376.900452 276.971383 
L 378.866364 261.84277 
L 380.642027 249.54263 
L 382.607939 255.088092 
L 384.510435 243.513511 
L 386.476347 251.086049 
L 388.378843 241.33605 
L 390.344755 224.194895 
L 392.310667 235.545833 
L 394.213163 235.103217 
L 396.179075 211.955177 
L 398.081571 444.777938 
L 400.047483 244.135136 
L 402.013395 275.538429 
L 403.789058 284.180808 
L 405.75497 285.772137 
L 407.657466 347.157194 
L 409.623378 313.689184 
L 411.525873 287.506499 
L 413.491786 286.9337 
L 415.457698 297.581458 
L 417.360193 281.177137 
L 419.326106 292.012591 
L 421.228601 281.149099 
L 423.194514 274.408928 
L 425.160426 316.558677 
L 426.936088 312.381847 
L 428.902001 282.314657 
L 430.804496 278.140041 
L 432.770408 271.539135 
L 434.672904 275.326632 
L 436.638816 289.105359 
L 438.604729 279.195999 
L 442.473136 270.209353 
L 444.375632 260.968006 
L 446.341544 274.702522 
L 448.307456 264.948417 
L 450.146536 273.663343 
L 452.112448 266.924043 
L 454.014944 276.213703 
L 455.980856 282.108702 
L 457.883351 292.371782 
L 459.849264 270.871667 
L 461.815176 266.833963 
L 463.717671 278.727112 
L 465.683584 261.815033 
L 467.586079 277.499673 
L 469.551992 271.703095 
L 471.517904 269.232428 
L 473.293566 295.261051 
L 475.259479 271.856838 
L 477.161974 275.700381 
L 479.127886 274.843751 
L 481.030382 281.143917 
L 482.996294 294.291373 
L 484.962207 270.042731 
L 486.864702 265.344215 
L 488.830614 263.479722 
L 490.73311 278.637933 
L 492.699022 246.424595 
L 494.664934 272.250129 
L 496.440597 235.898464 
L 498.406509 230.584194 
L 500.309005 217.787518 
L 502.274917 236.804623 
L 504.177413 299.461352 
L 506.143325 257.382513 
L 508.109237 243.558613 
L 510.011733 269.908333 
L 511.977645 267.574637 
L 513.880141 268.568567 
L 515.846053 267.241028 
L 517.811965 272.450286 
L 519.587628 281.837025 
L 521.55354 275.124936 
L 523.456036 307.787881 
L 525.421948 306.279588 
L 527.324444 270.378576 
L 529.290356 279.047116 
L 531.256268 278.80424 
L 533.158764 297.213192 
L 535.124676 269.054372 
L 537.027172 284.131769 
L 538.993084 270.252769 
L 540.958996 276.959303 
L 542.798075 282.208062 
L 544.763987 273.620469 
L 546.666483 283.517115 
L 548.632395 276.170565 
L 550.534891 266.445048 
L 552.500803 266.920591 
L 554.466715 267.694287 
L 556.369211 260.093007 
L 558.335123 268.141953 
L 560.237619 270.124041 
L 562.203531 259.777592 
L 564.169443 262.803062 
L 565.945106 275.430991 
L 567.911018 257.684046 
L 569.813514 273.758033 
L 571.779426 274.830308 
L 573.681922 281.747217 
L 575.647834 263.881398 
L 577.613746 267.397673 
L 579.516242 262.33622 
L 581.482154 261.58203 
L 583.384649 256.26754 
L 585.350562 268.042388 
L 587.316474 257.41761 
L 589.092137 234.459704 
L 591.058049 228.217806 
L 592.960544 225.335237 
L 594.926457 261.995948 
L 596.828952 241.858505 
L 598.794864 270.928095 
L 600.760777 281.449496 
L 602.663272 223.832309 
L 604.629185 333.277688 
L 606.53168 274.881582 
L 608.497592 275.50235 
L 610.463505 296.969443 
L 612.239167 282.614519 
L 614.205079 289.516877 
L 616.107575 318.206748 
L 618.073487 277.104791 
L 619.975983 283.993339 
L 621.941895 285.527075 
L 623.907807 280.455294 
L 625.810303 273.907363 
L 627.776215 287.973597 
L 629.678711 260.347935 
L 631.644623 254.173437 
L 633.610535 268.927553 
L 635.449614 280.869044 
L 637.415527 257.169998 
L 639.318022 280.585181 
L 641.283935 263.108135 
L 643.18643 249.269714 
L 645.152342 263.483357 
L 647.118255 260.028685 
L 649.02075 280.01667 
L 650.986662 264.679255 
L 652.889158 242.564903 
L 654.85507 245.621915 
L 656.820983 252.324168 
L 658.596645 262.71296 
L 660.562557 260.484158 
L 662.465053 277.106528 
L 664.430965 267.07264 
L 666.333461 273.762549 
L 668.299373 264.304707 
L 670.265285 263.748063 
L 672.167781 267.083906 
L 674.133693 280.549721 
L 676.036189 274.519576 
L 678.002101 279.016154 
L 679.968013 279.567769 
L 681.743676 297.606585 
L 683.709588 274.392809 
L 687.577996 300.327914 
L 689.480492 279.02885 
L 691.446404 276.559722 
L 693.412316 270.046418 
L 695.314812 268.888645 
L 697.280724 267.315458 
L 699.18322 273.400096 
L 701.149132 269.92833 
L 703.115044 261.245437 
L 704.890707 261.348939 
L 706.856619 264.99146 
L 708.759115 274.633567 
L 710.725027 267.729208 
L 712.627522 265.999662 
L 714.593435 257.484116 
L 716.559347 290.62943 
L 718.461842 271.882801 
L 720.427755 270.977236 
L 722.33025 292.189973 
L 724.296163 282.325308 
L 726.262075 268.881681 
L 728.101154 278.787732 
L 730.067066 274.4853 
L 731.969562 270.642915 
L 733.935474 289.645055 
L 735.83797 279.335748 
L 737.803882 276.88765 
L 739.769794 280.81497 
L 741.67229 275.830872 
L 743.638202 269.763819 
L 745.540698 280.886893 
L 747.50661 267.782762 
L 749.472522 274.69127 
L 751.248185 275.257355 
L 753.214097 269.16848 
L 755.116592 270.135985 
L 757.082505 277.59819 
L 758.985 284.043408 
L 760.950913 294.18605 
L 762.916825 295.464103 
L 764.81932 285.805108 
L 766.785233 274.774166 
L 768.687728 283.196282 
L 770.653641 276.654647 
L 772.619553 282.241502 
L 774.395215 275.389561 
L 776.361128 275.738644 
L 778.263623 279.299596 
L 780.229535 272.636618 
L 782.132031 281.478963 
L 784.097943 271.528931 
L 786.063855 281.363909 
L 787.966351 271.160863 
L 789.932263 268.851459 
L 791.834759 275.362659 
L 793.800671 270.44951 
L 795.766583 268.657496 
L 797.542246 267.593908 
L 799.508158 271.280484 
L 801.410654 272.037144 
L 803.376566 257.339207 
L 805.279062 270.963448 
L 807.244974 271.866433 
L 809.210886 267.701588 
L 811.113382 270.828984 
L 813.079294 271.160863 
L 814.98179 264.474751 
L 816.947702 269.060258 
L 818.913614 269.13287 
L 820.752693 272.679822 
L 822.718606 269.900849 
L 824.621101 281.240594 
L 826.587013 275.374219 
L 828.489509 271.146137 
L 830.455421 273.435837 
L 832.421333 268.609381 
L 834.323829 270.910106 
L 836.289741 271.706658 
L 838.192237 272.045603 
L 840.158149 278.669512 
L 842.124061 273.766485 
L 843.899724 283.705272 
L 845.865636 269.686618 
L 847.768132 270.079961 
L 851.63654 270.079961 
L 853.602452 268.879849 
L 855.568364 268.014709 
L 857.47086 268.790216 
L 859.436772 265.820645 
L 861.339268 264.571912 
L 863.30518 271.409692 
L 865.271092 273.53442 
L 867.046755 257.378115 
L 869.012667 257.547558 
L 870.915163 256.951134 
L 872.881075 257.634611 
L 874.783571 256.711857 
L 876.749483 252.834815 
L 878.715395 247.143029 
L 880.617891 258.5081 
L 882.583803 251.291081 
L 884.486298 260.469798 
L 886.452211 254.580377 
L 888.418123 258.708638 
L 890.193785 265.190898 
L 892.159698 259.577215 
L 894.062193 269.97006 
L 896.028106 260.884025 
L 897.930601 288.151595 
L 901.862426 267.462266 
L 903.764921 269.370499 
L 905.730834 266.690791 
L 907.633329 269.891635 
L 909.599241 270.407633 
L 911.565154 273.526665 
L 913.404233 269.929832 
L 915.370145 273.292284 
L 917.272641 274.762973 
L 919.238553 275.872067 
L 921.141048 274.458824 
L 923.106961 279.651046 
L 925.072873 273.778917 
L 926.975369 275.362703 
L 928.941281 270.445639 
L 930.843776 271.290328 
L 932.809689 269.658353 
L 934.775601 280.838807 
L 936.551263 275.218585 
L 938.517176 294.785919 
L 940.419671 273.187983 
L 942.385584 285.359838 
L 944.288079 272.595833 
L 946.253991 275.464306 
L 948.219904 274.608791 
L 950.122399 276.110194 
L 952.088311 274.677526 
L 953.990807 274.612881 
L 955.956719 272.732496 
L 957.922632 268.265363 
L 959.698294 260.793842 
L 961.664206 266.249729 
L 963.566702 268.768665 
L 965.532614 271.962641 
L 967.43511 276.391855 
L 969.401022 263.965468 
L 971.366934 264.483716 
L 973.26943 264.706669 
L 975.235342 254.906913 
L 977.137838 258.202242 
L 979.10375 241.119274 
L 981.069662 242.164898 
L 982.845325 237.803992 
L 984.811237 240.760566 
L 986.713733 226.212141 
L 988.679645 262.061193 
L 990.582141 265.095115 
L 992.548053 335.218173 
L 994.513965 272.603412 
L 996.416461 278.781619 
L 998.382373 271.358374 
L 1000.284869 290.414133 
L 1002.250781 289.296526 
L 1006.055772 279.454745 
L 1008.021684 275.79469 
L 1009.92418 279.442064 
L 1011.890092 290.912147 
L 1013.792588 273.497147 
L 1015.7585 278.81352 
L 1017.724412 280.8592 
L 1019.626908 278.983843 
L 1021.59282 267.615217 
L 1023.495316 273.659502 
L 1025.461228 263.191596 
L 1027.42714 273.168903 
L 1029.202803 270.562299 
L 1031.168715 275.196228 
L 1033.071211 276.690462 
L 1035.037123 276.124869 
L 1036.939619 280.052174 
L 1038.905531 279.399014 
L 1040.871443 268.815593 
L 1042.773939 291.049293 
L 1044.739851 272.151905 
L 1046.642347 278.246783 
L 1048.608259 294.653867 
L 1050.574171 271.69265 
L 1052.349834 279.284298 
L 1054.315746 280.171721 
L 1056.218241 272.675665 
L 1058.184154 277.301737 
L 1060.086649 289.178408 
L 1062.052562 276.195869 
L 1064.018474 280.884929 
L 1065.920969 267.981137 
L 1067.886882 287.270505 
L 1069.789377 270.64065 
L 1071.75529 279.679649 
L 1073.721202 268.847673 
L 1075.496864 276.393423 
L 1077.462777 272.753291 
L 1079.365272 273.982152 
L 1081.331184 277.38492 
L 1083.23368 273.761706 
L 1085.199592 280.714899 
L 1087.165504 272.414698 
L 1089.068 275.897122 
L 1091.033912 267.594575 
L 1092.936408 278.759467 
L 1094.90232 273.805049 
L 1096.868232 266.986152 
L 1098.707312 257.129675 
L 1100.673224 267.525019 
L 1102.575719 268.998047 
L 1104.541632 237.991717 
L 1106.444127 241.686914 
L 1108.41004 237.37265 
L 1112.278447 270.59362 
L 1114.24436 277.988776 
L 1116.146855 290.308026 
L 1118.112767 277.77868 
L 1120.07868 279.203717 
L 1121.854342 272.069588 
L 1123.820255 280.192304 
L 1125.72275 268.714701 
L 1127.688662 274.807262 
L 1129.591158 279.457142 
L 1131.55707 259.253325 
L 1133.522982 276.338836 
L 1135.425478 275.975144 
L 1137.39139 270.892235 
L 1139.293886 244.335022 
L 1141.259798 251.068574 
L 1143.22571 276.644693 
L 1145.001373 251.687707 
L 1146.967285 241.203292 
L 1148.869781 234.437648 
L 1152.738189 260.527164 
L 1154.704101 260.75272 
L 1156.670013 246.674824 
L 1158.572509 266.36331 
L 1160.538421 247.681838 
L 1162.440917 256.934678 
L 1164.406829 238.139514 
L 1166.372741 263.763984 
L 1168.148404 261.556205 
L 1170.114316 258.479967 
L 1172.016812 250.29924 
L 1173.982724 267.168936 
L 1175.88522 280.037924 
L 1177.851132 291.75067 
L 1179.817044 271.794671 
L 1181.71954 291.732653 
L 1183.685452 277.531596 
L 1185.587947 315.036713 
L 1187.55386 288.149674 
L 1189.519772 314.413512 
L 1191.358851 275.704566 
L 1193.324763 276.537974 
L 1195.227259 307.314083 
L 1197.193171 279.235552 
L 1199.095667 290.06251 
L 1201.061579 267.206979 
L 1203.027491 284.060784 
L 1204.929987 268.756798 
L 1206.895899 269.105426 
L 1208.798395 267.803755 
L 1210.764307 268.555446 
L 1212.730219 263.66395 
L 1214.505882 274.013665 
L 1216.471794 280.155257 
L 1218.37429 274.210691 
L 1220.340202 278.422266 
L 1222.242697 272.429307 
L 1224.20861 268.856671 
L 1226.174522 262.384746 
L 1228.077018 265.439412 
L 1230.04293 279.117838 
L 1231.945425 266.004544 
L 1233.911338 276.708231 
L 1235.87725 277.393547 
L 1237.652912 266.055356 
L 1239.618825 265.699031 
L 1241.52132 266.138861 
L 1243.487233 281.868369 
L 1245.389728 274.915345 
L 1247.35564 300.753238 
L 1249.321553 273.333831 
L 1251.224048 275.184947 
L 1253.18996 271.774242 
L 1255.092456 273.538613 
L 1257.058368 272.383962 
L 1259.024281 277.883897 
L 1260.799943 275.037648 
L 1262.765855 278.813307 
L 1264.668351 272.233489 
L 1266.634263 277.126327 
L 1268.536759 272.403233 
L 1270.502671 273.86918 
L 1272.468583 272.461699 
L 1274.371079 278.381584 
L 1276.336991 272.173976 
L 1278.239487 274.550671 
L 1280.205399 274.058371 
L 1282.171311 277.665913 
L 1284.01039 270.666599 
L 1285.976303 280.712524 
L 1287.878798 272.003125 
L 1289.84471 282.020836 
L 1291.747206 276.347866 
L 1293.713118 269.356044 
L 1297.581526 274.566526 
L 1299.547438 274.62955 
L 1301.449934 288.775891 
L 1303.415846 272.194009 
L 1305.381759 269.92152 
L 1307.157421 288.434849 
L 1309.123333 281.825928 
L 1311.025829 273.360352 
L 1312.991741 269.589773 
L 1314.894237 267.391222 
L 1316.860149 267.573354 
L 1318.826061 271.47633 
L 1320.728557 274.244278 
L 1322.694469 278.024635 
L 1324.596965 266.711052 
L 1326.562877 270.29557 
L 1328.528789 262.745066 
L 1330.304452 267.323052 
L 1332.270364 274.537154 
L 1334.17286 270.545791 
L 1336.138772 274.282322 
L 1338.041268 267.455706 
L 1340.00718 268.916214 
L 1341.973092 263.549475 
L 1343.875588 256.352951 
L 1345.8415 262.64188 
L 1347.743996 266.213042 
L 1349.709908 257.748492 
L 1351.67582 244.924269 
L 1353.451483 255.50396 
L 1355.417395 269.201979 
L 1357.31989 256.781603 
L 1359.285803 250.000236 
L 1361.188298 269.967231 
L 1363.154211 271.948846 
L 1365.120123 261.089422 
L 1367.022618 284.508047 
L 1368.988531 262.214716 
L 1370.891026 274.646102 
L 1372.856938 269.506275 
L 1374.822851 262.729702 
L 1376.66193 267.800017 
L 1378.627842 263.371148 
L 1380.530338 272.180243 
L 1382.49625 266.164641 
L 1384.398746 258.18001 
L 1386.364658 259.498269 
L 1388.33057 267.855616 
L 1390.233066 269.097033 
L 1392.198978 270.18539 
L 1394.101474 262.614626 
L 1396.067386 288.668648 
L 1398.033298 272.091871 
L 1399.808961 286.095865 
L 1401.774873 275.974396 
L 1403.677368 270.187824 
L 1405.643281 278.496308 
L 1407.545776 271.377029 
L 1409.511689 272.099025 
L 1411.477601 279.017605 
L 1413.380096 270.035181 
L 1415.346009 277.842086 
L 1417.248504 274.550553 
L 1419.214416 274.066728 
L 1421.180329 277.66606 
L 1422.955991 269.910803 
L 1424.921903 278.546585 
L 1426.824399 270.575786 
L 1428.790311 279.017605 
L 1430.692807 268.190918 
L 1432.658719 281.732769 
L 1434.624631 276.130667 
L 1436.527127 285.5683 
L 1438.493039 272.270668 
L 1440.395535 269.50453 
L 1442.361447 272.640459 
L 1444.327359 276.86846 
L 1446.103022 279.861172 
L 1448.068934 278.474193 
L 1449.97143 274.9491 
L 1451.937342 281.917129 
L 1453.839838 272.534054 
L 1455.80575 270.616175 
L 1457.771662 260.64611 
L 1459.674158 267.025251 
L 1461.64007 264.379232 
L 1463.542566 277.192181 
L 1465.508478 270.898004 
L 1467.47439 273.568117 
L 1469.313469 270.647446 
L 1471.279381 268.203995 
L 1473.181877 269.596487 
L 1475.147789 274.542805 
L 1477.050285 268.186821 
L 1479.016197 269.148909 
L 1480.982109 269.42376 
L 1482.884605 266.644919 
L 1484.850517 278.249605 
L 1486.753013 278.367268 
L 1488.718925 286.215698 
L 1490.684837 290.158542 
L 1492.4605 283.107661 
L 1494.426412 276.540165 
L 1496.328908 270.783537 
L 1498.29482 278.181926 
L 1500.197316 273.048227 
L 1502.163228 275.028735 
L 1504.12914 275.663701 
L 1506.031636 272.722769 
L 1507.997548 270.170613 
L 1509.900044 278.342382 
L 1511.865956 275.676858 
L 1513.831868 269.910774 
L 1515.607531 278.850551 
L 1517.573443 272.69512 
L 1519.475939 280.215995 
L 1521.441851 268.984596 
L 1523.344346 278.49685 
L 1525.310259 266.40474 
L 1527.276171 265.782851 
L 1529.178667 269.166655 
L 1531.144579 287.855802 
L 1533.047074 273.372556 
L 1535.012987 275.20317 
L 1536.978899 273.200906 
L 1538.754561 270.065535 
L 1540.720474 274.216116 
L 1542.622969 270.913508 
L 1544.588882 279.517565 
L 1546.491377 272.102097 
L 1548.457289 279.87378 
L 1550.423202 271.291919 
L 1552.325697 279.399373 
L 1554.291609 275.384833 
L 1556.194105 268.045664 
L 1558.160017 276.561261 
L 1560.12593 273.013563 
L 1561.965009 278.219192 
L 1563.930921 272.129988 
L 1565.833417 273.45126 
L 1567.799329 271.685635 
L 1569.701824 268.41912 
L 1571.667737 267.240962 
L 1573.633649 270.277237 
L 1575.536145 267.145172 
L 1577.502057 273.03117 
L 1579.404552 280.250498 
L 1581.370465 272.49151 
L 1583.336377 268.914256 
L 1585.112039 264.285465 
L 1587.077952 281.088442 
L 1588.980447 264.836112 
L 1590.946359 265.904135 
L 1592.848855 264.618026 
L 1594.814767 259.2747 
L 1596.78068 264.061991 
L 1598.683175 259.818318 
L 1600.649087 263.05008 
L 1602.551583 247.229011 
L 1604.517495 256.906201 
L 1606.483408 258.295584 
L 1608.25907 249.858368 
L 1610.224982 270.56106 
L 1612.127478 254.088298 
L 1614.09339 259.958221 
L 1615.995886 272.251338 
L 1617.961798 269.563765 
L 1619.92771 270.871704 
L 1621.830206 267.884739 
L 1623.796118 284.971297 
L 1625.698614 270.794173 
L 1627.664526 266.162449 
L 1629.630438 266.193082 
L 1631.406101 265.613466 
L 1633.372013 271.383245 
L 1635.274509 267.705099 
L 1637.240421 268.282816 
L 1639.142917 268.338863 
L 1641.108829 279.091772 
L 1643.074741 269.120189 
L 1644.977237 267.976021 
L 1646.943149 278.835466 
L 1648.845645 276.605294 
L 1650.811557 282.784464 
L 1652.777469 275.185395 
L 1654.616548 280.593248 
L 1656.58246 273.364317 
L 1658.484956 273.065548 
L 1660.450868 282.443389 
L 1664.319276 273.983479 
L 1664.319276 273.983479 
" style="fill:none;stroke:#1f77b4;stroke-linecap:square;stroke-opacity:0.8;stroke-width:1.2;"/>
   </g>
   <g id="line2d_32">
    <path clip-path="url(#p66b09dbffc)" d="M 369.163636 230.082062 
L 371.066132 286.560027 
L 373.032044 286.559994 
L 374.93454 258.321061 
L 378.866364 230.082062 
L 380.642027 215.962662 
L 382.607939 230.082062 
L 384.510435 230.082062 
L 386.476347 159.484731 
L 388.378843 258.321061 
L 390.344755 201.843127 
L 392.310667 258.320994 
L 394.213163 300.679528 
L 396.179075 88.887273 
L 398.081571 484.232727 
L 400.047483 244.201597 
L 402.013395 286.559994 
L 405.75497 286.559994 
L 407.657466 343.03792 
L 411.525873 286.559994 
L 413.491786 328.918458 
L 415.457698 343.03792 
L 417.360193 286.559994 
L 419.326106 300.679528 
L 421.228601 272.440528 
L 423.194514 258.320994 
L 425.160426 357.157422 
L 426.936088 314.79896 
L 428.902001 272.440528 
L 430.804496 314.798993 
L 432.770408 286.559994 
L 434.672904 244.201562 
L 436.638816 286.560027 
L 438.604729 272.440528 
L 440.507224 244.201562 
L 442.473136 244.201562 
L 444.375632 272.440528 
L 446.341544 328.918458 
L 448.307456 258.321027 
L 450.146536 286.560027 
L 452.112448 300.67946 
L 454.014944 272.440528 
L 455.980856 258.321061 
L 457.883351 272.440528 
L 459.849264 244.201562 
L 461.815176 244.201562 
L 463.717671 314.798993 
L 465.683584 286.559994 
L 467.586079 300.679495 
L 469.551992 286.559994 
L 471.517904 244.201562 
L 473.293566 314.798993 
L 475.259479 272.440528 
L 477.161974 258.321027 
L 479.127886 300.679495 
L 481.030382 272.440528 
L 482.996294 258.321061 
L 484.962207 258.321027 
L 486.864702 244.201562 
L 488.830614 244.201597 
L 490.73311 215.962596 
L 492.699022 131.245735 
L 494.664934 215.962596 
L 496.440597 230.082131 
L 498.406509 201.843127 
L 500.309005 244.201529 
L 502.274917 272.440528 
L 504.177413 314.798993 
L 506.143325 244.201529 
L 508.109237 244.201597 
L 510.011733 258.321061 
L 511.977645 328.918458 
L 513.880141 328.918392 
L 515.846053 314.798993 
L 517.811965 286.559994 
L 519.587628 300.679528 
L 521.55354 286.559994 
L 523.456036 258.321061 
L 525.421948 328.918392 
L 527.324444 286.56006 
L 529.290356 300.67946 
L 531.256268 244.201597 
L 533.158764 286.559994 
L 535.124676 244.201529 
L 537.027172 286.56006 
L 538.993084 272.440528 
L 540.958996 300.67946 
L 542.798075 286.559994 
L 544.763987 230.082131 
L 546.666483 300.67946 
L 548.632395 230.082062 
L 550.534891 272.440528 
L 552.500803 258.321061 
L 554.466715 314.798993 
L 556.369211 300.67946 
L 558.335123 272.440528 
L 560.237619 215.962596 
L 562.203531 286.56006 
L 564.169443 272.440528 
L 565.945106 314.798927 
L 567.911018 300.679495 
L 569.813514 244.201562 
L 573.681922 244.201529 
L 575.647834 286.56006 
L 577.613746 286.559994 
L 579.516242 230.082062 
L 581.482154 258.321061 
L 583.384649 187.723662 
L 585.350562 258.321061 
L 587.316474 187.723596 
L 589.092137 187.723662 
L 591.058049 230.082131 
L 592.960544 173.604123 
L 594.926457 272.440528 
L 596.828952 286.559994 
L 598.794864 244.201597 
L 600.760777 286.559994 
L 602.663272 314.798993 
L 606.53168 343.03792 
L 608.497592 272.440528 
L 610.463505 300.67946 
L 612.239167 286.559994 
L 614.205079 314.798993 
L 616.107575 328.918458 
L 618.073487 286.559994 
L 619.975983 286.559994 
L 621.941895 258.321061 
L 623.907807 258.321061 
L 625.810303 230.082062 
L 629.678711 258.320994 
L 631.644623 343.03792 
L 633.610535 286.56006 
L 635.449614 328.918392 
L 637.415527 187.723662 
L 639.318022 300.679528 
L 641.283935 286.559994 
L 643.18643 230.082062 
L 645.152342 258.321061 
L 647.118255 258.321061 
L 649.02075 286.559994 
L 650.986662 187.723662 
L 652.889158 272.440528 
L 654.85507 201.843127 
L 656.820983 272.440528 
L 658.596645 230.082062 
L 660.562557 272.440528 
L 662.465053 258.321061 
L 664.430965 258.321061 
L 666.333461 300.67946 
L 668.299373 258.321061 
L 670.265285 328.918458 
L 672.167781 258.321061 
L 674.133693 300.67946 
L 676.036189 328.918458 
L 678.002101 286.559994 
L 679.968013 300.67946 
L 681.743676 314.798993 
L 683.709588 258.321061 
L 687.577996 286.559994 
L 689.480492 272.440528 
L 691.446404 286.559994 
L 693.412316 230.082131 
L 695.314812 286.559994 
L 697.280724 300.67946 
L 699.18322 230.082131 
L 701.149132 300.67946 
L 703.115044 244.201597 
L 704.890707 244.201529 
L 706.856619 300.679528 
L 710.725027 244.201529 
L 712.627522 314.798993 
L 714.593435 272.440528 
L 716.559347 300.67946 
L 718.461842 258.321061 
L 720.427755 272.440528 
L 722.33025 244.201597 
L 724.296163 300.67946 
L 726.262075 258.321061 
L 728.101154 300.67946 
L 730.067066 272.440528 
L 733.935474 300.679528 
L 735.83797 258.321061 
L 737.803882 314.798927 
L 739.769794 258.321061 
L 741.67229 258.321061 
L 743.638202 272.440528 
L 745.540698 314.798927 
L 747.50661 244.201597 
L 749.472522 286.559994 
L 751.248185 244.201597 
L 753.214097 328.918458 
L 755.116592 258.320994 
L 757.082505 300.679528 
L 758.985 272.440528 
L 760.950913 300.67946 
L 762.916825 272.440528 
L 764.81932 286.559994 
L 770.653641 286.559994 
L 772.619553 272.440528 
L 774.395215 300.679495 
L 776.361128 272.440528 
L 778.263623 272.440528 
L 780.229535 258.321027 
L 782.132031 286.560027 
L 784.097943 272.440528 
L 786.063855 272.440528 
L 787.966351 286.559994 
L 789.932263 272.440528 
L 791.834759 286.560027 
L 793.800671 244.201562 
L 795.766583 258.321027 
L 797.542246 286.560027 
L 799.508158 272.440528 
L 803.376566 272.440528 
L 805.279062 258.321027 
L 807.244974 286.560027 
L 809.210886 272.440528 
L 811.113382 272.440528 
L 813.079294 244.201562 
L 814.98179 286.559994 
L 818.913614 286.559994 
L 820.752693 258.321061 
L 822.718606 286.559994 
L 824.621101 300.679495 
L 828.489509 244.201562 
L 832.421333 300.679495 
L 836.289741 272.440528 
L 849.734044 272.440528 
L 851.63654 258.321061 
L 853.602452 272.440528 
L 855.568364 272.440528 
L 857.47086 244.201562 
L 861.339268 300.679495 
L 863.30518 272.440528 
L 865.271092 215.962596 
L 867.046755 230.082131 
L 869.012667 244.201529 
L 872.881075 244.201529 
L 874.783571 258.321061 
L 878.715395 258.321061 
L 880.617891 230.082062 
L 882.583803 258.321061 
L 884.486298 215.962596 
L 886.452211 244.201597 
L 888.418123 300.67946 
L 890.193785 272.440528 
L 892.159698 258.321061 
L 894.062193 286.559994 
L 896.028106 272.440528 
L 897.930601 272.440528 
L 899.896513 258.321061 
L 901.862426 258.321061 
L 903.764921 286.559994 
L 905.730834 300.67946 
L 907.633329 244.201597 
L 911.565154 300.67946 
L 913.404233 286.56006 
L 915.370145 258.320994 
L 917.272641 286.56006 
L 919.238553 272.440528 
L 921.141048 272.440528 
L 923.106961 286.559994 
L 925.072873 272.440528 
L 926.975369 286.559994 
L 928.941281 258.321061 
L 930.843776 314.798927 
L 932.809689 286.56006 
L 934.775601 314.798927 
L 936.551263 258.321061 
L 938.517176 286.559994 
L 940.419671 258.321061 
L 942.385584 286.559994 
L 944.288079 272.440528 
L 946.253991 286.559994 
L 948.219904 272.440528 
L 950.122399 272.440528 
L 952.088311 300.679528 
L 953.990807 244.201529 
L 955.956719 258.321061 
L 957.922632 244.201597 
L 959.698294 258.321061 
L 961.664206 286.559994 
L 963.566702 272.440528 
L 965.532614 272.440528 
L 967.43511 230.082062 
L 969.401022 258.321061 
L 971.366934 272.440528 
L 973.26943 215.962596 
L 975.235342 258.321061 
L 977.137838 187.723662 
L 979.10375 187.723662 
L 981.069662 145.365134 
L 982.845325 272.440528 
L 984.811237 201.843127 
L 986.713733 244.201597 
L 988.679645 244.201597 
L 990.582141 300.67946 
L 994.513965 300.679595 
L 996.416461 272.440528 
L 998.382373 272.440528 
L 1000.284869 286.559926 
L 1002.250781 286.56006 
L 1004.216693 314.798927 
L 1006.055772 300.679528 
L 1008.021684 286.559994 
L 1009.92418 258.321061 
L 1011.890092 314.798927 
L 1013.792588 244.201597 
L 1015.7585 244.201529 
L 1019.626908 300.679528 
L 1021.59282 258.321061 
L 1023.495316 258.320994 
L 1025.461228 272.440528 
L 1027.42714 314.798993 
L 1029.202803 258.321061 
L 1031.168715 300.67946 
L 1035.037123 300.67946 
L 1036.939619 244.201597 
L 1038.905531 314.798927 
L 1040.871443 258.321061 
L 1042.773939 300.67946 
L 1044.739851 272.440528 
L 1046.642347 272.440528 
L 1048.608259 328.918458 
L 1050.574171 272.440528 
L 1052.349834 286.559994 
L 1054.315746 272.440528 
L 1056.218241 300.679528 
L 1058.184154 286.559994 
L 1060.086649 286.559994 
L 1062.052562 230.082131 
L 1064.018474 314.798927 
L 1065.920969 258.321061 
L 1067.886882 300.67946 
L 1069.789377 258.321061 
L 1071.75529 258.321061 
L 1073.721202 286.559994 
L 1075.496864 272.440528 
L 1077.462777 286.559994 
L 1079.365272 272.440528 
L 1081.331184 300.679528 
L 1083.23368 258.321061 
L 1085.199592 272.440528 
L 1087.165504 230.082062 
L 1089.068 286.559994 
L 1091.033912 258.321061 
L 1092.936408 286.559994 
L 1096.868232 230.082062 
L 1098.707312 272.440528 
L 1100.673224 272.440528 
L 1102.575719 187.723662 
L 1104.541632 187.723662 
L 1106.444127 258.321061 
L 1108.41004 244.201529 
L 1110.375952 286.56006 
L 1112.278447 300.67946 
L 1114.24436 272.440528 
L 1116.146855 272.440528 
L 1118.112767 314.798993 
L 1120.07868 230.082062 
L 1121.854342 286.559994 
L 1123.820255 272.440528 
L 1125.72275 300.679528 
L 1127.688662 230.082062 
L 1131.55707 314.798993 
L 1133.522982 244.201529 
L 1135.425478 244.201597 
L 1139.293886 215.962596 
L 1141.259798 244.201597 
L 1143.22571 258.320994 
L 1145.001373 230.082197 
L 1146.967285 258.320994 
L 1148.869781 230.082062 
L 1150.835693 258.321129 
L 1152.738189 244.201461 
L 1154.704101 244.201597 
L 1156.670013 272.440528 
L 1158.572509 230.082062 
L 1160.538421 230.082197 
L 1162.440917 215.96253 
L 1166.372741 328.918528 
L 1168.148404 272.440528 
L 1170.114316 286.559926 
L 1173.982724 286.559926 
L 1175.88522 272.440528 
L 1177.851132 371.27699 
L 1179.817044 258.320994 
L 1181.71954 314.798993 
L 1183.685452 328.918392 
L 1187.55386 300.67946 
L 1189.519772 314.798993 
L 1191.358851 300.67946 
L 1193.324763 272.440528 
L 1195.227259 286.56006 
L 1197.193171 314.798927 
L 1199.095667 300.679528 
L 1201.061579 230.082062 
L 1203.027491 272.440528 
L 1204.929987 300.67946 
L 1206.895899 258.321061 
L 1208.798395 300.679528 
L 1210.764307 258.320994 
L 1212.730219 272.440528 
L 1214.505882 286.56006 
L 1218.37429 258.320994 
L 1220.340202 286.56006 
L 1222.242697 244.201529 
L 1224.20861 272.440528 
L 1226.174522 314.798993 
L 1228.077018 272.440528 
L 1230.04293 272.440528 
L 1231.945425 286.559994 
L 1233.911338 272.440528 
L 1235.87725 314.798993 
L 1237.652912 201.843127 
L 1239.618825 272.440528 
L 1241.52132 286.559994 
L 1243.487233 258.321061 
L 1245.389728 272.440528 
L 1247.35564 300.67946 
L 1249.321553 286.559994 
L 1251.224048 258.321061 
L 1255.092456 286.559994 
L 1257.058368 314.798993 
L 1259.024281 272.440528 
L 1262.765855 272.440528 
L 1264.668351 314.798927 
L 1266.634263 272.440528 
L 1268.536759 286.56006 
L 1274.371079 286.559994 
L 1276.336991 258.321061 
L 1278.239487 300.67946 
L 1282.171311 272.440528 
L 1285.976303 272.440528 
L 1287.878798 314.798927 
L 1289.84471 244.201597 
L 1291.747206 300.67946 
L 1295.679031 244.201597 
L 1297.581526 300.67946 
L 1299.547438 272.440528 
L 1301.449934 286.559994 
L 1305.381759 258.321061 
L 1307.157421 300.679528 
L 1309.123333 300.67946 
L 1311.025829 244.201597 
L 1312.991741 272.440528 
L 1314.894237 258.320994 
L 1316.860149 286.56006 
L 1320.728557 258.320994 
L 1322.694469 272.440528 
L 1324.596965 258.321061 
L 1326.562877 272.440528 
L 1328.528789 272.440528 
L 1330.304452 286.559994 
L 1332.270364 286.56006 
L 1334.17286 244.201529 
L 1338.041268 300.679528 
L 1340.00718 230.082062 
L 1341.973092 244.201597 
L 1343.875588 244.201529 
L 1345.8415 272.440528 
L 1347.743996 230.082131 
L 1349.709908 258.320994 
L 1351.67582 258.321061 
L 1353.451483 244.201597 
L 1355.417395 244.201529 
L 1357.31989 286.56006 
L 1359.285803 244.201529 
L 1361.188298 272.440528 
L 1363.154211 286.559994 
L 1365.120123 258.321061 
L 1367.022618 272.440528 
L 1368.988531 258.321061 
L 1370.891026 272.440528 
L 1372.856938 230.082062 
L 1374.822851 272.440528 
L 1376.66193 258.321061 
L 1378.627842 272.440528 
L 1380.530338 272.440528 
L 1382.49625 244.201597 
L 1384.398746 244.201529 
L 1386.364658 286.56006 
L 1388.33057 286.559994 
L 1390.233066 272.440528 
L 1392.198978 314.798927 
L 1394.101474 258.321061 
L 1398.033298 286.559994 
L 1399.808961 300.679528 
L 1401.774873 286.559994 
L 1403.677368 258.321061 
L 1407.545776 286.559994 
L 1413.380096 286.56006 
L 1415.346009 258.320994 
L 1417.248504 300.679528 
L 1419.214416 286.559994 
L 1421.180329 258.321061 
L 1422.955991 272.440528 
L 1424.921903 286.559994 
L 1426.824399 286.559994 
L 1428.790311 314.798993 
L 1430.692807 272.440528 
L 1432.658719 272.440528 
L 1434.624631 286.559994 
L 1438.493039 286.559994 
L 1440.395535 300.679528 
L 1442.361447 286.559994 
L 1444.327359 258.321061 
L 1446.103022 300.67946 
L 1448.068934 272.440528 
L 1449.97143 215.962596 
L 1451.937342 300.679528 
L 1453.839838 272.440528 
L 1455.80575 258.321061 
L 1459.674158 286.559994 
L 1461.64007 286.559994 
L 1463.542566 258.321061 
L 1465.508478 272.440528 
L 1467.47439 272.440528 
L 1469.313469 286.559994 
L 1473.181877 258.321061 
L 1475.147789 272.440528 
L 1477.050285 314.798927 
L 1479.016197 244.201597 
L 1480.982109 328.918458 
L 1482.884605 258.321061 
L 1484.850517 272.440528 
L 1486.753013 244.201529 
L 1488.718925 272.440528 
L 1490.684837 286.559994 
L 1492.4605 286.56006 
L 1494.426412 272.440528 
L 1498.29482 300.67946 
L 1500.197316 258.321061 
L 1502.163228 286.559994 
L 1504.12914 286.559994 
L 1506.031636 258.321061 
L 1507.997548 300.679528 
L 1509.900044 286.559994 
L 1511.865956 258.321061 
L 1513.831868 286.559994 
L 1515.607531 272.440528 
L 1517.573443 258.321061 
L 1519.475939 328.918392 
L 1521.441851 258.321061 
L 1523.344346 258.321061 
L 1525.310259 272.440528 
L 1527.276171 272.440528 
L 1529.178667 258.321061 
L 1531.144579 286.559994 
L 1533.047074 286.559994 
L 1535.012987 272.440528 
L 1536.978899 286.559994 
L 1538.754561 258.321061 
L 1540.720474 300.679528 
L 1542.622969 258.320994 
L 1544.588882 286.56006 
L 1546.491377 258.320994 
L 1550.423202 286.56006 
L 1552.325697 272.440528 
L 1554.291609 286.559994 
L 1556.194105 272.440528 
L 1558.160017 286.559994 
L 1560.12593 272.440528 
L 1561.965009 258.321061 
L 1563.930921 286.559994 
L 1565.833417 300.679495 
L 1567.799329 244.201562 
L 1569.701824 272.440528 
L 1571.667737 272.440528 
L 1573.633649 258.321061 
L 1575.536145 300.67946 
L 1577.502057 272.440528 
L 1581.370465 272.440528 
L 1583.336377 230.082131 
L 1585.112039 272.440528 
L 1587.077952 258.320994 
L 1588.980447 258.321061 
L 1590.946359 286.559994 
L 1592.848855 244.201597 
L 1594.814767 258.321061 
L 1596.78068 230.082062 
L 1598.683175 258.321061 
L 1600.649087 230.082062 
L 1602.551583 244.201597 
L 1604.517495 244.201597 
L 1606.483408 272.440528 
L 1610.224982 272.440528 
L 1612.127478 244.201529 
L 1614.09339 286.559994 
L 1615.995886 272.440528 
L 1617.961798 272.440528 
L 1619.92771 286.56006 
L 1621.830206 272.440528 
L 1623.796118 272.440528 
L 1625.698614 244.201529 
L 1627.664526 258.321061 
L 1629.630438 300.67946 
L 1631.406101 258.321061 
L 1633.372013 272.440528 
L 1635.274509 258.321061 
L 1637.240421 258.321061 
L 1639.142917 244.201529 
L 1641.108829 286.56006 
L 1643.074741 286.559994 
L 1644.977237 272.440528 
L 1648.845645 300.67946 
L 1652.777469 272.440528 
L 1654.616548 286.559994 
L 1656.58246 244.201529 
L 1658.484956 300.679528 
L 1660.450868 272.440528 
L 1662.353364 272.440528 
L 1664.319276 286.559994 
L 1664.319276 286.559994 
" style="fill:none;stroke:#ff7f0e;stroke-linecap:square;stroke-opacity:0.8;stroke-width:0.8;"/>
   </g>
   <g id="line2d_33">
    <path clip-path="url(#p66b09dbffc)" d="M 1666.285188 276.155084 
L 1668.187684 288.864399 
L 1670.153596 281.149444 
L 1672.056092 270.472937 
L 1674.022004 269.988063 
L 1675.987916 271.078113 
L 1677.763579 265.476129 
L 1679.729491 269.69864 
L 1681.631987 271.829577 
L 1683.597899 279.343371 
L 1685.500395 274.056458 
L 1687.466307 282.030658 
L 1689.432219 275.671148 
L 1691.334715 282.191452 
L 1693.300627 273.088323 
L 1695.203123 269.980293 
L 1697.169035 274.869612 
L 1699.134947 271.516954 
L 1700.91061 268.097386 
L 1702.876522 279.109591 
L 1704.779017 270.840382 
L 1706.74493 272.83643 
L 1708.647425 271.776353 
L 1710.613338 279.795392 
L 1712.57925 273.47468 
L 1714.481745 273.946982 
L 1716.447658 269.901501 
L 1718.350153 267.642565 
L 1720.316065 272.303368 
L 1722.281978 273.74632 
L 1724.05764 270.924891 
L 1726.023552 279.017224 
L 1727.926048 273.762468 
L 1729.89196 275.887974 
L 1731.794456 268.557279 
L 1733.760368 280.596268 
L 1735.72628 264.848434 
L 1737.628776 269.807771 
L 1739.594688 272.74042 
L 1741.497184 255.553526 
L 1743.463096 269.490838 
L 1745.429008 265.146419 
L 1747.268088 262.300625 
L 1749.234 270.665881 
L 1751.136495 267.726122 
L 1753.102408 264.995323 
L 1755.004903 252.723961 
L 1756.970815 259.724301 
L 1758.936728 257.357796 
L 1760.839223 266.132564 
L 1762.805136 236.337744 
L 1764.707631 249.142155 
L 1766.673543 243.899641 
L 1768.639456 227.331028 
L 1770.415118 229.370536 
L 1772.38103 232.920141 
L 1774.283526 228.82911 
L 1776.249438 212.498853 
L 1778.151934 243.352644 
L 1780.117846 255.174353 
L 1782.083758 263.1898 
L 1783.986254 259.842397 
L 1785.952166 237.686387 
L 1787.854662 253.619447 
L 1789.820574 267.872527 
L 1791.786486 267.635653 
L 1793.562149 276.611898 
L 1795.528061 266.266684 
L 1797.430557 283.57064 
L 1799.396469 273.946953 
L 1801.298965 269.148982 
L 1803.264877 269.411298 
L 1805.230789 276.437895 
L 1807.133285 276.048914 
L 1809.099197 273.577023 
L 1811.001693 270.603956 
L 1812.967605 279.932553 
L 1814.933517 261.266035 
L 1816.70918 276.875446 
L 1818.675092 280.333526 
L 1820.577588 281.859837 
L 1822.5435 267.931344 
L 1824.445995 296.073311 
L 1826.411908 284.38545 
L 1828.37782 264.086892 
" style="fill:none;stroke:#2ca02c;stroke-linecap:square;stroke-opacity:0.8;stroke-width:1.2;"/>
   </g>
   <g id="line2d_34">
    <path clip-path="url(#p66b09dbffc)" d="M 1666.285188 286.559994 
L 1668.187684 272.440528 
L 1670.153596 258.321061 
L 1672.056092 286.559994 
L 1674.022004 272.440528 
L 1675.987916 286.559994 
L 1677.763579 258.321061 
L 1679.729491 300.679528 
L 1681.631987 272.440528 
L 1683.597899 286.559994 
L 1685.500395 286.559994 
L 1687.466307 272.440528 
L 1689.432219 286.559994 
L 1691.334715 258.321061 
L 1693.300627 272.440528 
L 1695.203123 272.440528 
L 1697.169035 286.559994 
L 1699.134947 300.679528 
L 1700.91061 258.320994 
L 1702.876522 286.56006 
L 1704.779017 272.440528 
L 1706.74493 286.559994 
L 1708.647425 272.440528 
L 1710.613338 258.321061 
L 1712.57925 272.440528 
L 1714.481745 300.67946 
L 1716.447658 286.559994 
L 1718.350153 258.321061 
L 1720.316065 286.559994 
L 1722.281978 244.201597 
L 1724.05764 286.559994 
L 1726.023552 286.559994 
L 1727.926048 258.321061 
L 1729.89196 286.559994 
L 1731.794456 244.201597 
L 1733.760368 258.321061 
L 1735.72628 286.559994 
L 1737.628776 258.321061 
L 1739.594688 272.440528 
L 1741.497184 272.440528 
L 1743.463096 230.082062 
L 1745.429008 272.440528 
L 1747.268088 286.559994 
L 1749.234 244.201597 
L 1751.136495 286.559994 
L 1753.102408 215.962596 
L 1755.004903 244.201597 
L 1756.970815 244.201529 
L 1758.936728 230.082131 
L 1760.839223 272.440528 
L 1762.805136 215.962596 
L 1764.707631 230.082062 
L 1766.673543 201.843127 
L 1768.639456 201.843127 
L 1770.415118 201.843127 
L 1772.38103 215.962662 
L 1774.283526 230.082062 
L 1776.249438 215.962662 
L 1778.151934 258.320994 
L 1780.117846 272.440528 
L 1782.083758 258.320994 
L 1783.986254 244.201597 
L 1785.952166 244.201597 
L 1787.854662 286.56006 
L 1789.820574 272.440528 
L 1791.786486 286.559926 
L 1793.562149 272.440528 
L 1795.528061 258.321129 
L 1797.430557 272.440528 
L 1799.396469 314.798861 
L 1801.298965 300.679595 
L 1803.264877 272.440528 
L 1805.230789 258.320994 
L 1807.133285 272.440528 
L 1809.099197 286.56006 
L 1811.001693 215.96253 
L 1812.967605 343.03792 
L 1814.933517 300.67946 
L 1816.70918 286.56006 
L 1818.675092 272.440528 
L 1820.577588 258.320994 
L 1822.5435 286.56006 
L 1824.445995 258.320994 
L 1826.411908 286.56006 
L 1828.37782 272.440528 
" style="fill:none;stroke:#d62728;stroke-linecap:square;stroke-opacity:0.8;stroke-width:0.8;"/>
   </g>
   <g id="line2d_35">
    <path clip-path="url(#p66b09dbffc)" d="M 1830.280316 269.536783 
L 1832.246228 274.698439 
L 1834.148723 272.937916 
L 1836.114636 275.988499 
L 1838.080548 275.404038 
L 1839.919627 274.006767 
L 1841.885539 279.248673 
L 1843.788035 287.331418 
L 1845.753947 287.050073 
L 1847.656443 271.499567 
L 1849.622355 282.986831 
L 1851.588267 271.799377 
L 1853.490763 269.392768 
L 1855.456675 270.437452 
L 1857.359171 277.103538 
L 1859.325083 274.085867 
L 1861.290995 270.766223 
L 1863.066658 266.51047 
L 1865.03257 271.236921 
L 1866.935066 274.400696 
L 1868.900978 263.1104 
L 1870.803473 271.118685 
L 1872.769386 271.744305 
L 1874.735298 264.454219 
L 1876.637793 279.283997 
L 1878.603706 278.319666 
L 1880.506201 283.163634 
L 1882.472114 272.092267 
L 1884.438026 282.711687 
L 1886.213688 276.511035 
L 1888.179601 274.452344 
L 1890.082096 274.980385 
L 1892.048008 268.296487 
L 1893.950504 279.7549 
L 1895.916416 270.244764 
L 1897.882329 277.425235 
L 1899.784824 277.790438 
L 1901.750736 289.217463 
L 1903.653232 277.440094 
L 1905.619144 278.319043 
L 1907.585056 274.411515 
L 1909.360719 277.529551 
L 1911.326631 263.382993 
L 1913.229127 280.840156 
L 1915.195039 274.793665 
L 1917.097535 281.021225 
L 1919.063447 270.528294 
L 1921.029359 282.762558 
L 1922.931855 275.945295 
L 1924.897767 283.069046 
L 1926.800263 275.640992 
L 1928.766175 285.778177 
L 1930.732087 275.030201 
L 1932.571166 270.856186 
L 1934.537079 271.670124 
L 1936.439574 270.296391 
L 1938.405486 268.18685 
L 1940.307982 269.148982 
L 1942.273894 269.423906 
L 1944.239807 268.330602 
L 1946.142302 271.514696 
L 1948.108214 273.898655 
L 1950.01071 271.996345 
L 1951.976622 274.775002 
L 1953.942534 276.310901 
L 1955.718197 269.39762 
L 1957.684109 269.716188 
L 1959.586605 276.271868 
L 1961.552517 268.681055 
L 1963.455013 280.07917 
L 1965.420925 276.771255 
L 1967.386837 273.699634 
L 1969.289333 286.537242 
L 1971.255245 269.957482 
L 1973.157741 272.128023 
L 1975.123653 274.53343 
L 1977.089565 270.213743 
L 1978.865228 272.003235 
L 1980.83114 283.705478 
L 1982.733636 269.686677 
L 1984.699548 269.482423 
L 1986.602044 273.775333 
L 1988.567956 271.599748 
L 1990.533868 267.821604 
L 1992.436364 273.133103 
" style="fill:none;stroke:#9467bd;stroke-linecap:square;stroke-opacity:0.8;stroke-width:1.2;"/>
   </g>
   <g id="line2d_36">
    <path clip-path="url(#p66b09dbffc)" d="M 1830.280316 272.440528 
L 1832.246228 300.67946 
L 1834.148723 300.67946 
L 1836.114636 286.56006 
L 1838.080548 300.67946 
L 1839.919627 272.440528 
L 1841.885539 286.56006 
L 1843.788035 272.440528 
L 1845.753947 272.440528 
L 1847.656443 272.440528 
L 1849.622355 272.440528 
L 1851.588267 286.559926 
L 1853.490763 314.798993 
L 1855.456675 272.440528 
L 1857.359171 286.56006 
L 1859.325083 244.201529 
L 1861.290995 258.321061 
L 1863.066658 314.798993 
L 1865.03257 300.67946 
L 1866.935066 258.321061 
L 1868.900978 286.559994 
L 1870.803473 272.440528 
L 1872.769386 300.67946 
L 1874.735298 286.56006 
L 1876.637793 272.440528 
L 1878.603706 272.440528 
L 1880.506201 314.798927 
L 1882.472114 300.679528 
L 1884.438026 286.559994 
L 1886.213688 258.321061 
L 1888.179601 272.440528 
L 1890.082096 328.918392 
L 1892.048008 272.440528 
L 1893.950504 300.679528 
L 1895.916416 258.321061 
L 1897.882329 272.440528 
L 1899.784824 314.798927 
L 1901.750736 300.679528 
L 1903.653232 258.320994 
L 1905.619144 300.679528 
L 1907.585056 258.321061 
L 1909.360719 300.67946 
L 1911.326631 272.440528 
L 1913.229127 286.559994 
L 1915.195039 258.321061 
L 1917.097535 300.67946 
L 1919.063447 286.56006 
L 1921.029359 286.559994 
L 1922.931855 286.559994 
L 1924.897767 272.440528 
L 1926.800263 272.440528 
L 1928.766175 272.440528 
L 1930.732087 286.559994 
L 1932.571166 272.440528 
L 1934.537079 258.321061 
L 1936.439574 272.440528 
L 1938.405486 314.798993 
L 1940.307982 244.201529 
L 1942.273894 272.440528 
L 1944.239807 272.440528 
L 1946.142302 258.321061 
L 1948.108214 286.559994 
L 1950.01071 314.798993 
L 1951.976622 258.321061 
L 1953.942534 258.320994 
L 1955.718197 286.56006 
L 1957.684109 300.67946 
L 1959.586605 286.559994 
L 1961.552517 286.559994 
L 1963.455013 272.440528 
L 1965.420925 272.440528 
L 1967.386837 258.321061 
L 1969.289333 300.679528 
L 1971.255245 286.559994 
L 1973.157741 272.440528 
L 1975.123653 272.440528 
L 1977.089565 272.440528 
L 1978.865228 272.440528 
L 1980.83114 272.440528 
L 1982.733636 300.67946 
L 1984.699548 286.560027 
L 1986.602044 244.201562 
L 1988.567956 286.559994 
L 1990.533868 272.440528 
L 1992.436364 300.679495 
" style="fill:none;stroke:#8c564b;stroke-linecap:square;stroke-opacity:0.8;stroke-width:0.8;"/>
   </g>
   <g id="patch_3">
    <path d="M 288 504 
L 288 69.12 
" style="fill:none;stroke:#000000;stroke-linecap:square;stroke-linejoin:miter;stroke-width:0.8;"/>
   </g>
   <g id="patch_4">
    <path d="M 2073.6 504 
L 2073.6 69.12 
" style="fill:none;stroke:#000000;stroke-linecap:square;stroke-linejoin:miter;stroke-width:0.8;"/>
   </g>
   <g id="patch_5">
    <path d="M 288 504 
L 2073.6 504 
" style="fill:none;stroke:#000000;stroke-linecap:square;stroke-linejoin:miter;stroke-width:0.8;"/>
   </g>
   <g id="patch_6">
    <path d="M 288 69.12 
L 2073.6 69.12 
" style="fill:none;stroke:#000000;stroke-linecap:square;stroke-linejoin:miter;stroke-width:0.8;"/>
   </g>
   <g id="legend_1">
    <g id="patch_7">
     <path d="M 1931.207812 165.18875 
L 2066.6 165.18875 
Q 2068.6 165.18875 2068.6 163.18875 
L 2068.6 76.12 
Q 2068.6 74.12 2066.6 74.12 
L 1931.207812 74.12 
Q 1929.207812 74.12 1929.207812 76.12 
L 1929.207812 163.18875 
Q 1929.207812 165.18875 1931.207812 165.18875 
z
" style="fill:#ffffff;opacity:0.8;stroke:#cccccc;stroke-linejoin:miter;"/>
    </g>
    <g id="line2d_37">
     <path d="M 1933.207812 82.218438 
L 1953.207812 82.218438 
" style="fill:none;stroke:#1f77b4;stroke-linecap:square;stroke-opacity:0.8;stroke-width:1.2;"/>
    </g>
    <g id="line2d_38"/>
    <g id="text_16">
     <!-- Train Prediction -->
     <defs>
      <path d="M -0.296875 72.90625 
L 61.375 72.90625 
L 61.375 64.59375 
L 35.5 64.59375 
L 35.5 0 
L 25.59375 0 
L 25.59375 64.59375 
L -0.296875 64.59375 
z
" id="DejaVuSans-84"/>
      <path d="M 41.109375 46.296875 
Q 39.59375 47.171875 37.8125 47.578125 
Q 36.03125 48 33.890625 48 
Q 26.265625 48 22.1875 43.046875 
Q 18.109375 38.09375 18.109375 28.8125 
L 18.109375 0 
L 9.078125 0 
L 9.078125 54.6875 
L 18.109375 54.6875 
L 18.109375 46.1875 
Q 20.953125 51.171875 25.484375 53.578125 
Q 30.03125 56 36.53125 56 
Q 37.453125 56 38.578125 55.875 
Q 39.703125 55.765625 41.0625 55.515625 
z
" id="DejaVuSans-114"/>
      <path d="M 34.28125 27.484375 
Q 23.390625 27.484375 19.1875 25 
Q 14.984375 22.515625 14.984375 16.5 
Q 14.984375 11.71875 18.140625 8.90625 
Q 21.296875 6.109375 26.703125 6.109375 
Q 34.1875 6.109375 38.703125 11.40625 
Q 43.21875 16.703125 43.21875 25.484375 
L 43.21875 27.484375 
z
M 52.203125 31.203125 
L 52.203125 0 
L 43.21875 0 
L 43.21875 8.296875 
Q 40.140625 3.328125 35.546875 0.953125 
Q 30.953125 -1.421875 24.3125 -1.421875 
Q 15.921875 -1.421875 10.953125 3.296875 
Q 6 8.015625 6 15.921875 
Q 6 25.140625 12.171875 29.828125 
Q 18.359375 34.515625 30.609375 34.515625 
L 43.21875 34.515625 
L 43.21875 35.40625 
Q 43.21875 41.609375 39.140625 45 
Q 35.0625 48.390625 27.6875 48.390625 
Q 23 48.390625 18.546875 47.265625 
Q 14.109375 46.140625 10.015625 43.890625 
L 10.015625 52.203125 
Q 14.9375 54.109375 19.578125 55.046875 
Q 24.21875 56 28.609375 56 
Q 40.484375 56 46.34375 49.84375 
Q 52.203125 43.703125 52.203125 31.203125 
z
" id="DejaVuSans-97"/>
      <path d="M 9.421875 54.6875 
L 18.40625 54.6875 
L 18.40625 0 
L 9.421875 0 
z
M 9.421875 75.984375 
L 18.40625 75.984375 
L 18.40625 64.59375 
L 9.421875 64.59375 
z
" id="DejaVuSans-105"/>
      <path d="M 54.890625 33.015625 
L 54.890625 0 
L 45.90625 0 
L 45.90625 32.71875 
Q 45.90625 40.484375 42.875 44.328125 
Q 39.84375 48.1875 33.796875 48.1875 
Q 26.515625 48.1875 22.3125 43.546875 
Q 18.109375 38.921875 18.109375 30.90625 
L 18.109375 0 
L 9.078125 0 
L 9.078125 54.6875 
L 18.109375 54.6875 
L 18.109375 46.1875 
Q 21.34375 51.125 25.703125 53.5625 
Q 30.078125 56 35.796875 56 
Q 45.21875 56 50.046875 50.171875 
Q 54.890625 44.34375 54.890625 33.015625 
z
" id="DejaVuSans-110"/>
      <path id="DejaVuSans-32"/>
      <path d="M 19.671875 64.796875 
L 19.671875 37.40625 
L 32.078125 37.40625 
Q 38.96875 37.40625 42.71875 40.96875 
Q 46.484375 44.53125 46.484375 51.125 
Q 46.484375 57.671875 42.71875 61.234375 
Q 38.96875 64.796875 32.078125 64.796875 
z
M 9.8125 72.90625 
L 32.078125 72.90625 
Q 44.34375 72.90625 50.609375 67.359375 
Q 56.890625 61.8125 56.890625 51.125 
Q 56.890625 40.328125 50.609375 34.8125 
Q 44.34375 29.296875 32.078125 29.296875 
L 19.671875 29.296875 
L 19.671875 0 
L 9.8125 0 
z
" id="DejaVuSans-80"/>
      <path d="M 56.203125 29.59375 
L 56.203125 25.203125 
L 14.890625 25.203125 
Q 15.484375 15.921875 20.484375 11.0625 
Q 25.484375 6.203125 34.421875 6.203125 
Q 39.59375 6.203125 44.453125 7.46875 
Q 49.3125 8.734375 54.109375 11.28125 
L 54.109375 2.78125 
Q 49.265625 0.734375 44.1875 -0.34375 
Q 39.109375 -1.421875 33.890625 -1.421875 
Q 20.796875 -1.421875 13.15625 6.1875 
Q 5.515625 13.8125 5.515625 26.8125 
Q 5.515625 40.234375 12.765625 48.109375 
Q 20.015625 56 32.328125 56 
Q 43.359375 56 49.78125 48.890625 
Q 56.203125 41.796875 56.203125 29.59375 
z
M 47.21875 32.234375 
Q 47.125 39.59375 43.09375 43.984375 
Q 39.0625 48.390625 32.421875 48.390625 
Q 24.90625 48.390625 20.390625 44.140625 
Q 15.875 39.890625 15.1875 32.171875 
z
" id="DejaVuSans-101"/>
      <path d="M 45.40625 46.390625 
L 45.40625 75.984375 
L 54.390625 75.984375 
L 54.390625 0 
L 45.40625 0 
L 45.40625 8.203125 
Q 42.578125 3.328125 38.25 0.953125 
Q 33.9375 -1.421875 27.875 -1.421875 
Q 17.96875 -1.421875 11.734375 6.484375 
Q 5.515625 14.40625 5.515625 27.296875 
Q 5.515625 40.1875 11.734375 48.09375 
Q 17.96875 56 27.875 56 
Q 33.9375 56 38.25 53.625 
Q 42.578125 51.265625 45.40625 46.390625 
z
M 14.796875 27.296875 
Q 14.796875 17.390625 18.875 11.75 
Q 22.953125 6.109375 30.078125 6.109375 
Q 37.203125 6.109375 41.296875 11.75 
Q 45.40625 17.390625 45.40625 27.296875 
Q 45.40625 37.203125 41.296875 42.84375 
Q 37.203125 48.484375 30.078125 48.484375 
Q 22.953125 48.484375 18.875 42.84375 
Q 14.796875 37.203125 14.796875 27.296875 
z
" id="DejaVuSans-100"/>
      <path d="M 48.78125 52.59375 
L 48.78125 44.1875 
Q 44.96875 46.296875 41.140625 47.34375 
Q 37.3125 48.390625 33.40625 48.390625 
Q 24.65625 48.390625 19.8125 42.84375 
Q 14.984375 37.3125 14.984375 27.296875 
Q 14.984375 17.28125 19.8125 11.734375 
Q 24.65625 6.203125 33.40625 6.203125 
Q 37.3125 6.203125 41.140625 7.25 
Q 44.96875 8.296875 48.78125 10.40625 
L 48.78125 2.09375 
Q 45.015625 0.34375 40.984375 -0.53125 
Q 36.96875 -1.421875 32.421875 -1.421875 
Q 20.0625 -1.421875 12.78125 6.34375 
Q 5.515625 14.109375 5.515625 27.296875 
Q 5.515625 40.671875 12.859375 48.328125 
Q 20.21875 56 33.015625 56 
Q 37.15625 56 41.109375 55.140625 
Q 45.0625 54.296875 48.78125 52.59375 
z
" id="DejaVuSans-99"/>
      <path d="M 18.3125 70.21875 
L 18.3125 54.6875 
L 36.8125 54.6875 
L 36.8125 47.703125 
L 18.3125 47.703125 
L 18.3125 18.015625 
Q 18.3125 11.328125 20.140625 9.421875 
Q 21.96875 7.515625 27.59375 7.515625 
L 36.8125 7.515625 
L 36.8125 0 
L 27.59375 0 
Q 17.1875 0 13.234375 3.875 
Q 9.28125 7.765625 9.28125 18.015625 
L 9.28125 47.703125 
L 2.6875 47.703125 
L 2.6875 54.6875 
L 9.28125 54.6875 
L 9.28125 70.21875 
z
" id="DejaVuSans-116"/>
      <path d="M 30.609375 48.390625 
Q 23.390625 48.390625 19.1875 42.75 
Q 14.984375 37.109375 14.984375 27.296875 
Q 14.984375 17.484375 19.15625 11.84375 
Q 23.34375 6.203125 30.609375 6.203125 
Q 37.796875 6.203125 41.984375 11.859375 
Q 46.1875 17.53125 46.1875 27.296875 
Q 46.1875 37.015625 41.984375 42.703125 
Q 37.796875 48.390625 30.609375 48.390625 
z
M 30.609375 56 
Q 42.328125 56 49.015625 48.375 
Q 55.71875 40.765625 55.71875 27.296875 
Q 55.71875 13.875 49.015625 6.21875 
Q 42.328125 -1.421875 30.609375 -1.421875 
Q 18.84375 -1.421875 12.171875 6.21875 
Q 5.515625 13.875 5.515625 27.296875 
Q 5.515625 40.765625 12.171875 48.375 
Q 18.84375 56 30.609375 56 
z
" id="DejaVuSans-111"/>
     </defs>
     <g transform="translate(1961.207812 85.718438)scale(0.1 -0.1)">
      <use xlink:href="#DejaVuSans-84"/>
      <use x="60.865234" xlink:href="#DejaVuSans-114"/>
      <use x="101.978516" xlink:href="#DejaVuSans-97"/>
      <use x="163.257812" xlink:href="#DejaVuSans-105"/>
      <use x="191.041016" xlink:href="#DejaVuSans-110"/>
      <use x="254.419922" xlink:href="#DejaVuSans-32"/>
      <use x="286.207031" xlink:href="#DejaVuSans-80"/>
      <use x="346.494141" xlink:href="#DejaVuSans-114"/>
      <use x="387.576172" xlink:href="#DejaVuSans-101"/>
      <use x="449.099609" xlink:href="#DejaVuSans-100"/>
      <use x="512.576172" xlink:href="#DejaVuSans-105"/>
      <use x="540.359375" xlink:href="#DejaVuSans-99"/>
      <use x="595.339844" xlink:href="#DejaVuSans-116"/>
      <use x="634.548828" xlink:href="#DejaVuSans-105"/>
      <use x="662.332031" xlink:href="#DejaVuSans-111"/>
      <use x="723.513672" xlink:href="#DejaVuSans-110"/>
     </g>
    </g>
    <g id="line2d_39">
     <path d="M 1933.207812 96.896563 
L 1953.207812 96.896563 
" style="fill:none;stroke:#ff7f0e;stroke-linecap:square;stroke-opacity:0.8;stroke-width:0.8;"/>
    </g>
    <g id="line2d_40"/>
    <g id="text_17">
     <!-- Train Actual -->
     <defs>
      <path d="M 34.1875 63.1875 
L 20.796875 26.90625 
L 47.609375 26.90625 
z
M 28.609375 72.90625 
L 39.796875 72.90625 
L 67.578125 0 
L 57.328125 0 
L 50.6875 18.703125 
L 17.828125 18.703125 
L 11.1875 0 
L 0.78125 0 
z
" id="DejaVuSans-65"/>
      <path d="M 8.5 21.578125 
L 8.5 54.6875 
L 17.484375 54.6875 
L 17.484375 21.921875 
Q 17.484375 14.15625 20.5 10.265625 
Q 23.53125 6.390625 29.59375 6.390625 
Q 36.859375 6.390625 41.078125 11.03125 
Q 45.3125 15.671875 45.3125 23.6875 
L 45.3125 54.6875 
L 54.296875 54.6875 
L 54.296875 0 
L 45.3125 0 
L 45.3125 8.40625 
Q 42.046875 3.421875 37.71875 1 
Q 33.40625 -1.421875 27.6875 -1.421875 
Q 18.265625 -1.421875 13.375 4.4375 
Q 8.5 10.296875 8.5 21.578125 
z
M 31.109375 56 
z
" id="DejaVuSans-117"/>
      <path d="M 9.421875 75.984375 
L 18.40625 75.984375 
L 18.40625 0 
L 9.421875 0 
z
" id="DejaVuSans-108"/>
     </defs>
     <g transform="translate(1961.207812 100.396563)scale(0.1 -0.1)">
      <use xlink:href="#DejaVuSans-84"/>
      <use x="60.865234" xlink:href="#DejaVuSans-114"/>
      <use x="101.978516" xlink:href="#DejaVuSans-97"/>
      <use x="163.257812" xlink:href="#DejaVuSans-105"/>
      <use x="191.041016" xlink:href="#DejaVuSans-110"/>
      <use x="254.419922" xlink:href="#DejaVuSans-32"/>
      <use x="286.207031" xlink:href="#DejaVuSans-65"/>
      <use x="354.599609" xlink:href="#DejaVuSans-99"/>
      <use x="409.580078" xlink:href="#DejaVuSans-116"/>
      <use x="448.789062" xlink:href="#DejaVuSans-117"/>
      <use x="512.167969" xlink:href="#DejaVuSans-97"/>
      <use x="573.447266" xlink:href="#DejaVuSans-108"/>
     </g>
    </g>
    <g id="line2d_41">
     <path d="M 1933.207812 111.574688 
L 1953.207812 111.574688 
" style="fill:none;stroke:#2ca02c;stroke-linecap:square;stroke-opacity:0.8;stroke-width:1.2;"/>
    </g>
    <g id="line2d_42"/>
    <g id="text_18">
     <!-- Validation Prediction -->
     <defs>
      <path d="M 28.609375 0 
L 0.78125 72.90625 
L 11.078125 72.90625 
L 34.1875 11.53125 
L 57.328125 72.90625 
L 67.578125 72.90625 
L 39.796875 0 
z
" id="DejaVuSans-86"/>
     </defs>
     <g transform="translate(1961.207812 115.074688)scale(0.1 -0.1)">
      <use xlink:href="#DejaVuSans-86"/>
      <use x="68.298828" xlink:href="#DejaVuSans-97"/>
      <use x="129.578125" xlink:href="#DejaVuSans-108"/>
      <use x="157.361328" xlink:href="#DejaVuSans-105"/>
      <use x="185.144531" xlink:href="#DejaVuSans-100"/>
      <use x="248.621094" xlink:href="#DejaVuSans-97"/>
      <use x="309.900391" xlink:href="#DejaVuSans-116"/>
      <use x="349.109375" xlink:href="#DejaVuSans-105"/>
      <use x="376.892578" xlink:href="#DejaVuSans-111"/>
      <use x="438.074219" xlink:href="#DejaVuSans-110"/>
      <use x="501.453125" xlink:href="#DejaVuSans-32"/>
      <use x="533.240234" xlink:href="#DejaVuSans-80"/>
      <use x="593.527344" xlink:href="#DejaVuSans-114"/>
      <use x="634.609375" xlink:href="#DejaVuSans-101"/>
      <use x="696.132812" xlink:href="#DejaVuSans-100"/>
      <use x="759.609375" xlink:href="#DejaVuSans-105"/>
      <use x="787.392578" xlink:href="#DejaVuSans-99"/>
      <use x="842.373047" xlink:href="#DejaVuSans-116"/>
      <use x="881.582031" xlink:href="#DejaVuSans-105"/>
      <use x="909.365234" xlink:href="#DejaVuSans-111"/>
      <use x="970.546875" xlink:href="#DejaVuSans-110"/>
     </g>
    </g>
    <g id="line2d_43">
     <path d="M 1933.207812 126.252813 
L 1953.207812 126.252813 
" style="fill:none;stroke:#d62728;stroke-linecap:square;stroke-opacity:0.8;stroke-width:0.8;"/>
    </g>
    <g id="line2d_44"/>
    <g id="text_19">
     <!-- Validation Actual -->
     <g transform="translate(1961.207812 129.752813)scale(0.1 -0.1)">
      <use xlink:href="#DejaVuSans-86"/>
      <use x="68.298828" xlink:href="#DejaVuSans-97"/>
      <use x="129.578125" xlink:href="#DejaVuSans-108"/>
      <use x="157.361328" xlink:href="#DejaVuSans-105"/>
      <use x="185.144531" xlink:href="#DejaVuSans-100"/>
      <use x="248.621094" xlink:href="#DejaVuSans-97"/>
      <use x="309.900391" xlink:href="#DejaVuSans-116"/>
      <use x="349.109375" xlink:href="#DejaVuSans-105"/>
      <use x="376.892578" xlink:href="#DejaVuSans-111"/>
      <use x="438.074219" xlink:href="#DejaVuSans-110"/>
      <use x="501.453125" xlink:href="#DejaVuSans-32"/>
      <use x="533.240234" xlink:href="#DejaVuSans-65"/>
      <use x="601.632812" xlink:href="#DejaVuSans-99"/>
      <use x="656.613281" xlink:href="#DejaVuSans-116"/>
      <use x="695.822266" xlink:href="#DejaVuSans-117"/>
      <use x="759.201172" xlink:href="#DejaVuSans-97"/>
      <use x="820.480469" xlink:href="#DejaVuSans-108"/>
     </g>
    </g>
    <g id="line2d_45">
     <path d="M 1933.207812 140.930938 
L 1953.207812 140.930938 
" style="fill:none;stroke:#9467bd;stroke-linecap:square;stroke-opacity:0.8;stroke-width:1.2;"/>
    </g>
    <g id="line2d_46"/>
    <g id="text_20">
     <!-- Test Prediction -->
     <defs>
      <path d="M 44.28125 53.078125 
L 44.28125 44.578125 
Q 40.484375 46.53125 36.375 47.5 
Q 32.28125 48.484375 27.875 48.484375 
Q 21.1875 48.484375 17.84375 46.4375 
Q 14.5 44.390625 14.5 40.28125 
Q 14.5 37.15625 16.890625 35.375 
Q 19.28125 33.59375 26.515625 31.984375 
L 29.59375 31.296875 
Q 39.15625 29.25 43.1875 25.515625 
Q 47.21875 21.78125 47.21875 15.09375 
Q 47.21875 7.46875 41.1875 3.015625 
Q 35.15625 -1.421875 24.609375 -1.421875 
Q 20.21875 -1.421875 15.453125 -0.5625 
Q 10.6875 0.296875 5.421875 2 
L 5.421875 11.28125 
Q 10.40625 8.6875 15.234375 7.390625 
Q 20.0625 6.109375 24.8125 6.109375 
Q 31.15625 6.109375 34.5625 8.28125 
Q 37.984375 10.453125 37.984375 14.40625 
Q 37.984375 18.0625 35.515625 20.015625 
Q 33.0625 21.96875 24.703125 23.78125 
L 21.578125 24.515625 
Q 13.234375 26.265625 9.515625 29.90625 
Q 5.8125 33.546875 5.8125 39.890625 
Q 5.8125 47.609375 11.28125 51.796875 
Q 16.75 56 26.8125 56 
Q 31.78125 56 36.171875 55.265625 
Q 40.578125 54.546875 44.28125 53.078125 
z
" id="DejaVuSans-115"/>
     </defs>
     <g transform="translate(1961.207812 144.430938)scale(0.1 -0.1)">
      <use xlink:href="#DejaVuSans-84"/>
      <use x="60.818359" xlink:href="#DejaVuSans-101"/>
      <use x="122.341797" xlink:href="#DejaVuSans-115"/>
      <use x="174.441406" xlink:href="#DejaVuSans-116"/>
      <use x="213.650391" xlink:href="#DejaVuSans-32"/>
      <use x="245.4375" xlink:href="#DejaVuSans-80"/>
      <use x="305.724609" xlink:href="#DejaVuSans-114"/>
      <use x="346.806641" xlink:href="#DejaVuSans-101"/>
      <use x="408.330078" xlink:href="#DejaVuSans-100"/>
      <use x="471.806641" xlink:href="#DejaVuSans-105"/>
      <use x="499.589844" xlink:href="#DejaVuSans-99"/>
      <use x="554.570312" xlink:href="#DejaVuSans-116"/>
      <use x="593.779297" xlink:href="#DejaVuSans-105"/>
      <use x="621.5625" xlink:href="#DejaVuSans-111"/>
      <use x="682.744141" xlink:href="#DejaVuSans-110"/>
     </g>
    </g>
    <g id="line2d_47">
     <path d="M 1933.207812 155.609063 
L 1953.207812 155.609063 
" style="fill:none;stroke:#8c564b;stroke-linecap:square;stroke-opacity:0.8;stroke-width:0.8;"/>
    </g>
    <g id="line2d_48"/>
    <g id="text_21">
     <!-- Test Actual -->
     <g transform="translate(1961.207812 159.109063)scale(0.1 -0.1)">
      <use xlink:href="#DejaVuSans-84"/>
      <use x="60.818359" xlink:href="#DejaVuSans-101"/>
      <use x="122.341797" xlink:href="#DejaVuSans-115"/>
      <use x="174.441406" xlink:href="#DejaVuSans-116"/>
      <use x="213.650391" xlink:href="#DejaVuSans-32"/>
      <use x="245.4375" xlink:href="#DejaVuSans-65"/>
      <use x="313.830078" xlink:href="#DejaVuSans-99"/>
      <use x="368.810547" xlink:href="#DejaVuSans-116"/>
      <use x="408.019531" xlink:href="#DejaVuSans-117"/>
      <use x="471.398438" xlink:href="#DejaVuSans-97"/>
      <use x="532.677734" xlink:href="#DejaVuSans-108"/>
     </g>
    </g>
   </g>
  </g>
 </g>
 <defs>
  <clipPath id="p66b09dbffc">
   <rect height="434.88" width="1785.6" x="288" y="69.12"/>
  </clipPath>
 </defs>
</svg>
