<?xml version="1.0" encoding="utf-8" standalone="no"?>
<!DOCTYPE svg PUBLIC "-//W3C//DTD SVG 1.1//EN"
  "http://www.w3.org/Graphics/SVG/1.1/DTD/svg11.dtd">
<!-- Created with matplotlib (https://matplotlib.org/) -->
<svg height="576pt" version="1.1" viewBox="0 0 2304 576" width="2304pt" xmlns="http://www.w3.org/2000/svg" xmlns:xlink="http://www.w3.org/1999/xlink">
 <defs>
  <style type="text/css">
*{stroke-linecap:butt;stroke-linejoin:round;}
  </style>
 </defs>
 <g id="figure_1">
  <g id="patch_1">
   <path d="M 0 576 
L 2304 576 
L 2304 0 
L 0 0 
z
" style="fill:#ffffff;"/>
  </g>
  <g id="axes_1">
   <g id="patch_2">
    <path d="M 288 504 
L 2073.6 504 
L 2073.6 69.12 
L 288 69.12 
z
" style="fill:#ffffff;"/>
   </g>
   <g id="matplotlib.axis_1">
    <g id="xtick_1">
     <g id="line2d_1">
      <path clip-path="url(#p92c76eddd7)" d="M 292.150503 504 
L 292.150503 69.12 
" style="fill:none;stroke:#b0b0b0;stroke-linecap:square;stroke-width:0.8;"/>
     </g>
     <g id="line2d_2">
      <defs>
       <path d="M 0 0 
L 0 3.5 
" id="m05bbfdad5e" style="stroke:#000000;stroke-width:0.8;"/>
      </defs>
      <g>
       <use style="stroke:#000000;stroke-width:0.8;" x="292.150503" xlink:href="#m05bbfdad5e" y="504"/>
      </g>
     </g>
     <g id="text_1">
      <!-- 2004 -->
      <defs>
       <path d="M 19.1875 8.296875 
L 53.609375 8.296875 
L 53.609375 0 
L 7.328125 0 
L 7.328125 8.296875 
Q 12.9375 14.109375 22.625 23.890625 
Q 32.328125 33.6875 34.8125 36.53125 
Q 39.546875 41.84375 41.421875 45.53125 
Q 43.3125 49.21875 43.3125 52.78125 
Q 43.3125 58.59375 39.234375 62.25 
Q 35.15625 65.921875 28.609375 65.921875 
Q 23.96875 65.921875 18.8125 64.3125 
Q 13.671875 62.703125 7.8125 59.421875 
L 7.8125 69.390625 
Q 13.765625 71.78125 18.9375 73 
Q 24.125 74.21875 28.421875 74.21875 
Q 39.75 74.21875 46.484375 68.546875 
Q 53.21875 62.890625 53.21875 53.421875 
Q 53.21875 48.921875 51.53125 44.890625 
Q 49.859375 40.875 45.40625 35.40625 
Q 44.1875 33.984375 37.640625 27.21875 
Q 31.109375 20.453125 19.1875 8.296875 
z
" id="DejaVuSans-50"/>
       <path d="M 31.78125 66.40625 
Q 24.171875 66.40625 20.328125 58.90625 
Q 16.5 51.421875 16.5 36.375 
Q 16.5 21.390625 20.328125 13.890625 
Q 24.171875 6.390625 31.78125 6.390625 
Q 39.453125 6.390625 43.28125 13.890625 
Q 47.125 21.390625 47.125 36.375 
Q 47.125 51.421875 43.28125 58.90625 
Q 39.453125 66.40625 31.78125 66.40625 
z
M 31.78125 74.21875 
Q 44.046875 74.21875 50.515625 64.515625 
Q 56.984375 54.828125 56.984375 36.375 
Q 56.984375 17.96875 50.515625 8.265625 
Q 44.046875 -1.421875 31.78125 -1.421875 
Q 19.53125 -1.421875 13.0625 8.265625 
Q 6.59375 17.96875 6.59375 36.375 
Q 6.59375 54.828125 13.0625 64.515625 
Q 19.53125 74.21875 31.78125 74.21875 
z
" id="DejaVuSans-48"/>
       <path d="M 37.796875 64.3125 
L 12.890625 25.390625 
L 37.796875 25.390625 
z
M 35.203125 72.90625 
L 47.609375 72.90625 
L 47.609375 25.390625 
L 58.015625 25.390625 
L 58.015625 17.1875 
L 47.609375 17.1875 
L 47.609375 0 
L 37.796875 0 
L 37.796875 17.1875 
L 4.890625 17.1875 
L 4.890625 26.703125 
z
" id="DejaVuSans-52"/>
      </defs>
      <g transform="translate(279.425503 518.598438)scale(0.1 -0.1)">
       <use xlink:href="#DejaVuSans-50"/>
       <use x="63.623047" xlink:href="#DejaVuSans-48"/>
       <use x="127.246094" xlink:href="#DejaVuSans-48"/>
       <use x="190.869141" xlink:href="#DejaVuSans-52"/>
      </g>
     </g>
    </g>
    <g id="xtick_2">
     <g id="line2d_3">
      <path clip-path="url(#p92c76eddd7)" d="M 522.874276 504 
L 522.874276 69.12 
" style="fill:none;stroke:#b0b0b0;stroke-linecap:square;stroke-width:0.8;"/>
     </g>
     <g id="line2d_4">
      <g>
       <use style="stroke:#000000;stroke-width:0.8;" x="522.874276" xlink:href="#m05bbfdad5e" y="504"/>
      </g>
     </g>
     <g id="text_2">
      <!-- 2006 -->
      <defs>
       <path d="M 33.015625 40.375 
Q 26.375 40.375 22.484375 35.828125 
Q 18.609375 31.296875 18.609375 23.390625 
Q 18.609375 15.53125 22.484375 10.953125 
Q 26.375 6.390625 33.015625 6.390625 
Q 39.65625 6.390625 43.53125 10.953125 
Q 47.40625 15.53125 47.40625 23.390625 
Q 47.40625 31.296875 43.53125 35.828125 
Q 39.65625 40.375 33.015625 40.375 
z
M 52.59375 71.296875 
L 52.59375 62.3125 
Q 48.875 64.0625 45.09375 64.984375 
Q 41.3125 65.921875 37.59375 65.921875 
Q 27.828125 65.921875 22.671875 59.328125 
Q 17.53125 52.734375 16.796875 39.40625 
Q 19.671875 43.65625 24.015625 45.921875 
Q 28.375 48.1875 33.59375 48.1875 
Q 44.578125 48.1875 50.953125 41.515625 
Q 57.328125 34.859375 57.328125 23.390625 
Q 57.328125 12.15625 50.6875 5.359375 
Q 44.046875 -1.421875 33.015625 -1.421875 
Q 20.359375 -1.421875 13.671875 8.265625 
Q 6.984375 17.96875 6.984375 36.375 
Q 6.984375 53.65625 15.1875 63.9375 
Q 23.390625 74.21875 37.203125 74.21875 
Q 40.921875 74.21875 44.703125 73.484375 
Q 48.484375 72.75 52.59375 71.296875 
z
" id="DejaVuSans-54"/>
      </defs>
      <g transform="translate(510.149276 518.598438)scale(0.1 -0.1)">
       <use xlink:href="#DejaVuSans-50"/>
       <use x="63.623047" xlink:href="#DejaVuSans-48"/>
       <use x="127.246094" xlink:href="#DejaVuSans-48"/>
       <use x="190.869141" xlink:href="#DejaVuSans-54"/>
      </g>
     </g>
    </g>
    <g id="xtick_3">
     <g id="line2d_5">
      <path clip-path="url(#p92c76eddd7)" d="M 753.282421 504 
L 753.282421 69.12 
" style="fill:none;stroke:#b0b0b0;stroke-linecap:square;stroke-width:0.8;"/>
     </g>
     <g id="line2d_6">
      <g>
       <use style="stroke:#000000;stroke-width:0.8;" x="753.282421" xlink:href="#m05bbfdad5e" y="504"/>
      </g>
     </g>
     <g id="text_3">
      <!-- 2008 -->
      <defs>
       <path d="M 31.78125 34.625 
Q 24.75 34.625 20.71875 30.859375 
Q 16.703125 27.09375 16.703125 20.515625 
Q 16.703125 13.921875 20.71875 10.15625 
Q 24.75 6.390625 31.78125 6.390625 
Q 38.8125 6.390625 42.859375 10.171875 
Q 46.921875 13.96875 46.921875 20.515625 
Q 46.921875 27.09375 42.890625 30.859375 
Q 38.875 34.625 31.78125 34.625 
z
M 21.921875 38.8125 
Q 15.578125 40.375 12.03125 44.71875 
Q 8.5 49.078125 8.5 55.328125 
Q 8.5 64.0625 14.71875 69.140625 
Q 20.953125 74.21875 31.78125 74.21875 
Q 42.671875 74.21875 48.875 69.140625 
Q 55.078125 64.0625 55.078125 55.328125 
Q 55.078125 49.078125 51.53125 44.71875 
Q 48 40.375 41.703125 38.8125 
Q 48.828125 37.15625 52.796875 32.3125 
Q 56.78125 27.484375 56.78125 20.515625 
Q 56.78125 9.90625 50.3125 4.234375 
Q 43.84375 -1.421875 31.78125 -1.421875 
Q 19.734375 -1.421875 13.25 4.234375 
Q 6.78125 9.90625 6.78125 20.515625 
Q 6.78125 27.484375 10.78125 32.3125 
Q 14.796875 37.15625 21.921875 38.8125 
z
M 18.3125 54.390625 
Q 18.3125 48.734375 21.84375 45.5625 
Q 25.390625 42.390625 31.78125 42.390625 
Q 38.140625 42.390625 41.71875 45.5625 
Q 45.3125 48.734375 45.3125 54.390625 
Q 45.3125 60.0625 41.71875 63.234375 
Q 38.140625 66.40625 31.78125 66.40625 
Q 25.390625 66.40625 21.84375 63.234375 
Q 18.3125 60.0625 18.3125 54.390625 
z
" id="DejaVuSans-56"/>
      </defs>
      <g transform="translate(740.557421 518.598438)scale(0.1 -0.1)">
       <use xlink:href="#DejaVuSans-50"/>
       <use x="63.623047" xlink:href="#DejaVuSans-48"/>
       <use x="127.246094" xlink:href="#DejaVuSans-48"/>
       <use x="190.869141" xlink:href="#DejaVuSans-56"/>
      </g>
     </g>
    </g>
    <g id="xtick_4">
     <g id="line2d_7">
      <path clip-path="url(#p92c76eddd7)" d="M 984.006194 504 
L 984.006194 69.12 
" style="fill:none;stroke:#b0b0b0;stroke-linecap:square;stroke-width:0.8;"/>
     </g>
     <g id="line2d_8">
      <g>
       <use style="stroke:#000000;stroke-width:0.8;" x="984.006194" xlink:href="#m05bbfdad5e" y="504"/>
      </g>
     </g>
     <g id="text_4">
      <!-- 2010 -->
      <defs>
       <path d="M 12.40625 8.296875 
L 28.515625 8.296875 
L 28.515625 63.921875 
L 10.984375 60.40625 
L 10.984375 69.390625 
L 28.421875 72.90625 
L 38.28125 72.90625 
L 38.28125 8.296875 
L 54.390625 8.296875 
L 54.390625 0 
L 12.40625 0 
z
" id="DejaVuSans-49"/>
      </defs>
      <g transform="translate(971.281194 518.598438)scale(0.1 -0.1)">
       <use xlink:href="#DejaVuSans-50"/>
       <use x="63.623047" xlink:href="#DejaVuSans-48"/>
       <use x="127.246094" xlink:href="#DejaVuSans-49"/>
       <use x="190.869141" xlink:href="#DejaVuSans-48"/>
      </g>
     </g>
    </g>
    <g id="xtick_5">
     <g id="line2d_9">
      <path clip-path="url(#p92c76eddd7)" d="M 1214.414339 504 
L 1214.414339 69.12 
" style="fill:none;stroke:#b0b0b0;stroke-linecap:square;stroke-width:0.8;"/>
     </g>
     <g id="line2d_10">
      <g>
       <use style="stroke:#000000;stroke-width:0.8;" x="1214.414339" xlink:href="#m05bbfdad5e" y="504"/>
      </g>
     </g>
     <g id="text_5">
      <!-- 2012 -->
      <g transform="translate(1201.689339 518.598438)scale(0.1 -0.1)">
       <use xlink:href="#DejaVuSans-50"/>
       <use x="63.623047" xlink:href="#DejaVuSans-48"/>
       <use x="127.246094" xlink:href="#DejaVuSans-49"/>
       <use x="190.869141" xlink:href="#DejaVuSans-50"/>
      </g>
     </g>
    </g>
    <g id="xtick_6">
     <g id="line2d_11">
      <path clip-path="url(#p92c76eddd7)" d="M 1445.138112 504 
L 1445.138112 69.12 
" style="fill:none;stroke:#b0b0b0;stroke-linecap:square;stroke-width:0.8;"/>
     </g>
     <g id="line2d_12">
      <g>
       <use style="stroke:#000000;stroke-width:0.8;" x="1445.138112" xlink:href="#m05bbfdad5e" y="504"/>
      </g>
     </g>
     <g id="text_6">
      <!-- 2014 -->
      <g transform="translate(1432.413112 518.598438)scale(0.1 -0.1)">
       <use xlink:href="#DejaVuSans-50"/>
       <use x="63.623047" xlink:href="#DejaVuSans-48"/>
       <use x="127.246094" xlink:href="#DejaVuSans-49"/>
       <use x="190.869141" xlink:href="#DejaVuSans-52"/>
      </g>
     </g>
    </g>
    <g id="xtick_7">
     <g id="line2d_13">
      <path clip-path="url(#p92c76eddd7)" d="M 1675.546257 504 
L 1675.546257 69.12 
" style="fill:none;stroke:#b0b0b0;stroke-linecap:square;stroke-width:0.8;"/>
     </g>
     <g id="line2d_14">
      <g>
       <use style="stroke:#000000;stroke-width:0.8;" x="1675.546257" xlink:href="#m05bbfdad5e" y="504"/>
      </g>
     </g>
     <g id="text_7">
      <!-- 2016 -->
      <g transform="translate(1662.821257 518.598438)scale(0.1 -0.1)">
       <use xlink:href="#DejaVuSans-50"/>
       <use x="63.623047" xlink:href="#DejaVuSans-48"/>
       <use x="127.246094" xlink:href="#DejaVuSans-49"/>
       <use x="190.869141" xlink:href="#DejaVuSans-54"/>
      </g>
     </g>
    </g>
    <g id="xtick_8">
     <g id="line2d_15">
      <path clip-path="url(#p92c76eddd7)" d="M 1906.27003 504 
L 1906.27003 69.12 
" style="fill:none;stroke:#b0b0b0;stroke-linecap:square;stroke-width:0.8;"/>
     </g>
     <g id="line2d_16">
      <g>
       <use style="stroke:#000000;stroke-width:0.8;" x="1906.27003" xlink:href="#m05bbfdad5e" y="504"/>
      </g>
     </g>
     <g id="text_8">
      <!-- 2018 -->
      <g transform="translate(1893.54503 518.598438)scale(0.1 -0.1)">
       <use xlink:href="#DejaVuSans-50"/>
       <use x="63.623047" xlink:href="#DejaVuSans-48"/>
       <use x="127.246094" xlink:href="#DejaVuSans-49"/>
       <use x="190.869141" xlink:href="#DejaVuSans-56"/>
      </g>
     </g>
    </g>
   </g>
   <g id="matplotlib.axis_2">
    <g id="ytick_1">
     <g id="line2d_17">
      <path clip-path="url(#p92c76eddd7)" d="M 288 457.56656 
L 2073.6 457.56656 
" style="fill:none;stroke:#b0b0b0;stroke-linecap:square;stroke-width:0.8;"/>
     </g>
     <g id="line2d_18">
      <defs>
       <path d="M 0 0 
L -3.5 0 
" id="m335a62e7c8" style="stroke:#000000;stroke-width:0.8;"/>
      </defs>
      <g>
       <use style="stroke:#000000;stroke-width:0.8;" x="288" xlink:href="#m335a62e7c8" y="457.56656"/>
      </g>
     </g>
     <g id="text_9">
      <!-- −2 -->
      <defs>
       <path d="M 10.59375 35.5 
L 73.1875 35.5 
L 73.1875 27.203125 
L 10.59375 27.203125 
z
" id="DejaVuSans-8722"/>
      </defs>
      <g transform="translate(266.257812 461.365779)scale(0.1 -0.1)">
       <use xlink:href="#DejaVuSans-8722"/>
       <use x="83.789062" xlink:href="#DejaVuSans-50"/>
      </g>
     </g>
    </g>
    <g id="ytick_2">
     <g id="line2d_19">
      <path clip-path="url(#p92c76eddd7)" d="M 288 371.481039 
L 2073.6 371.481039 
" style="fill:none;stroke:#b0b0b0;stroke-linecap:square;stroke-width:0.8;"/>
     </g>
     <g id="line2d_20">
      <g>
       <use style="stroke:#000000;stroke-width:0.8;" x="288" xlink:href="#m335a62e7c8" y="371.481039"/>
      </g>
     </g>
     <g id="text_10">
      <!-- −1 -->
      <g transform="translate(266.257812 375.280258)scale(0.1 -0.1)">
       <use xlink:href="#DejaVuSans-8722"/>
       <use x="83.789062" xlink:href="#DejaVuSans-49"/>
      </g>
     </g>
    </g>
    <g id="ytick_3">
     <g id="line2d_21">
      <path clip-path="url(#p92c76eddd7)" d="M 288 285.395518 
L 2073.6 285.395518 
" style="fill:none;stroke:#b0b0b0;stroke-linecap:square;stroke-width:0.8;"/>
     </g>
     <g id="line2d_22">
      <g>
       <use style="stroke:#000000;stroke-width:0.8;" x="288" xlink:href="#m335a62e7c8" y="285.395518"/>
      </g>
     </g>
     <g id="text_11">
      <!-- 0 -->
      <g transform="translate(274.6375 289.194737)scale(0.1 -0.1)">
       <use xlink:href="#DejaVuSans-48"/>
      </g>
     </g>
    </g>
    <g id="ytick_4">
     <g id="line2d_23">
      <path clip-path="url(#p92c76eddd7)" d="M 288 199.309997 
L 2073.6 199.309997 
" style="fill:none;stroke:#b0b0b0;stroke-linecap:square;stroke-width:0.8;"/>
     </g>
     <g id="line2d_24">
      <g>
       <use style="stroke:#000000;stroke-width:0.8;" x="288" xlink:href="#m335a62e7c8" y="199.309997"/>
      </g>
     </g>
     <g id="text_12">
      <!-- 1 -->
      <g transform="translate(274.6375 203.109216)scale(0.1 -0.1)">
       <use xlink:href="#DejaVuSans-49"/>
      </g>
     </g>
    </g>
    <g id="ytick_5">
     <g id="line2d_25">
      <path clip-path="url(#p92c76eddd7)" d="M 288 113.224476 
L 2073.6 113.224476 
" style="fill:none;stroke:#b0b0b0;stroke-linecap:square;stroke-width:0.8;"/>
     </g>
     <g id="line2d_26">
      <g>
       <use style="stroke:#000000;stroke-width:0.8;" x="288" xlink:href="#m335a62e7c8" y="113.224476"/>
      </g>
     </g>
     <g id="text_13">
      <!-- 2 -->
      <g transform="translate(274.6375 117.023695)scale(0.1 -0.1)">
       <use xlink:href="#DejaVuSans-50"/>
      </g>
     </g>
    </g>
   </g>
   <g id="line2d_27">
    <path clip-path="url(#p92c76eddd7)" d="M 369.163636 293.736952 
L 378.632464 299.439161 
L 388.41692 302.101726 
L 397.885748 290.037855 
L 407.670203 288.094249 
L 417.454659 292.364435 
L 426.292231 296.605001 
L 436.076687 294.254062 
L 445.545515 292.966665 
L 455.32997 298.699218 
L 464.798798 300.678108 
L 474.583253 299.439161 
L 484.367709 302.101726 
L 493.836537 296.605001 
L 503.620992 294.254062 
L 513.08982 284.649934 
L 522.874276 286.304707 
L 532.658731 293.736952 
L 541.496304 301.20393 
L 551.280759 309.825804 
L 560.749587 292.187117 
L 570.534043 292.364443 
L 580.002871 296.605014 
L 589.787326 297.098489 
L 599.571782 290.037855 
L 609.040609 282.320595 
L 618.825065 295.019738 
L 628.293893 305.055665 
L 638.078348 307.545281 
L 647.862804 289.35956 
L 656.700377 283.896455 
L 666.484832 281.745487 
L 675.95366 290.398989 
L 685.738115 300.438569 
L 695.206943 289.35956 
L 704.991399 283.896455 
L 714.775854 266.799538 
L 724.244682 285.314624 
L 734.029138 288.400532 
L 743.497965 284.649934 
L 753.282421 286.304707 
L 763.066876 273.044863 
L 772.220077 266.722253 
L 782.004532 279.848205 
L 791.47336 291.149043 
L 801.257816 281.745487 
L 810.726643 264.573021 
L 820.511099 222.964754 
L 830.295554 227.88758 
L 839.764382 228.990683 
L 849.548838 271.23691 
L 859.017666 232.633331 
L 868.802121 203.079537 
L 878.586577 152.82935 
L 887.424149 130.32399 
L 897.208605 128.851242 
L 906.677433 145.301662 
L 916.461888 175.389059 
L 925.930716 173.838431 
L 935.715172 248.027271 
L 945.499627 258.502236 
L 954.968455 280.135123 
L 964.75291 266.451921 
L 974.221738 250.737142 
L 984.006194 283.874679 
L 993.790649 286.442154 
L 1002.628222 296.604996 
L 1012.412677 297.098461 
L 1021.881505 290.037819 
L 1031.665961 282.320629 
L 1041.134789 297.79302 
L 1050.919244 309.863572 
L 1060.7037 322.924741 
L 1070.172528 296.499549 
L 1079.956983 282.320557 
L 1089.425811 291.238444 
L 1099.210266 286.926758 
L 1108.994722 287.859094 
L 1117.832295 282.332333 
L 1127.61675 333.287966 
L 1137.085578 308.024076 
L 1146.870033 290.03785 
L 1156.338861 288.094249 
L 1166.123317 288.400522 
L 1175.907772 289.359539 
" style="fill:none;stroke:#1f77b4;stroke-linecap:square;stroke-opacity:0.8;stroke-width:1.2;"/>
   </g>
   <g id="line2d_28">
    <path clip-path="url(#p92c76eddd7)" d="M 369.163636 326.094519 
L 378.632464 286.560011 
L 388.41692 247.025501 
L 397.885748 326.094519 
L 407.670203 286.560011 
L 417.454659 326.094519 
L 426.292231 247.025501 
L 436.076687 365.629218 
L 445.545515 286.560011 
L 455.32997 326.094519 
L 464.798798 326.094519 
L 474.583253 286.560011 
L 484.367709 326.094519 
L 493.836537 247.025501 
L 503.620992 286.560011 
L 513.08982 286.560011 
L 522.874276 326.094519 
L 532.658731 365.629218 
L 541.496304 247.025314 
L 551.280759 326.094707 
L 560.749587 286.560011 
L 570.534043 326.094519 
L 580.002871 286.560011 
L 589.787326 247.025501 
L 599.571782 286.560011 
L 609.040609 365.629028 
L 618.825065 326.094519 
L 628.293893 247.025501 
L 638.078348 326.094519 
L 647.862804 207.490997 
L 656.700377 326.094519 
L 666.484832 326.094519 
L 675.95366 247.025501 
L 685.738115 326.094519 
L 695.206943 207.490997 
L 704.991399 247.025501 
L 714.775854 326.094519 
L 724.244682 247.025501 
L 734.029138 286.560011 
L 743.497965 286.560011 
L 753.282421 167.956296 
L 763.066876 286.560011 
L 772.220077 326.094519 
L 782.004532 207.490997 
L 791.47336 326.094519 
L 801.257816 128.421789 
L 810.726643 207.490997 
L 820.511099 207.490807 
L 830.295554 167.956491 
L 839.764382 286.560011 
L 849.548838 128.421789 
L 859.017666 167.956296 
L 868.802121 88.887273 
L 878.586577 88.887273 
L 887.424149 88.887273 
L 897.208605 128.421974 
L 906.677433 167.956296 
L 916.461888 128.421974 
L 925.930716 247.025314 
L 935.715172 286.560011 
L 945.499627 247.025314 
L 954.968455 207.490997 
L 964.75291 207.490997 
L 974.221738 326.094707 
L 984.006194 286.560011 
L 993.790649 326.094329 
L 1002.628222 286.560011 
L 1012.412677 247.025691 
L 1021.881505 286.560011 
L 1031.665961 405.163355 
L 1041.134789 365.629408 
L 1050.919244 286.560011 
L 1060.7037 247.025314 
L 1070.172528 286.560011 
L 1079.956983 326.094707 
L 1089.425811 128.421605 
L 1099.210266 484.232727 
L 1108.994722 365.629028 
L 1117.832295 326.094707 
L 1127.61675 286.560011 
L 1137.085578 247.025314 
L 1146.870033 326.094707 
L 1156.338861 247.025314 
L 1166.123317 326.094707 
L 1175.907772 286.560011 
" style="fill:none;stroke:#ff7f0e;stroke-linecap:square;stroke-opacity:0.8;stroke-width:0.8;"/>
   </g>
   <g id="line2d_29">
    <path clip-path="url(#p92c76eddd7)" d="M 1185.3766 292.364443 
L 1195.161056 293.664247 
L 1204.629884 296.790481 
L 1214.414339 305.636043 
L 1224.198794 315.105393 
L 1233.351995 308.441937 
L 1243.13645 309.796834 
L 1252.605278 300.678108 
L 1262.389734 297.09853 
L 1271.858562 293.664247 
L 1281.643017 289.751152 
L 1291.427472 289.751152 
L 1300.8963 293.736935 
L 1310.680756 302.410062 
L 1320.149584 316.564502 
L 1329.934039 306.033434 
L 1339.718495 291.149079 
L 1348.556067 266.799497 
L 1358.340523 295.05389 
L 1367.809351 305.324183 
L 1377.593806 325.023908 
L 1387.062634 292.187128 
L 1396.84709 292.364435 
L 1406.631545 298.813257 
L 1416.100373 305.055667 
L 1425.884828 308.024076 
L 1435.353656 293.664247 
L 1445.138112 298.998215 
L 1454.922567 309.863595 
L 1463.76014 321.060623 
L 1473.544595 307.545314 
L 1483.013423 284.649934 
L 1492.797879 299.719428 
L 1502.266707 316.669402 
L 1512.051162 311.779654 
L 1521.835618 303.195431 
L 1531.304446 288.598133 
L 1541.088901 297.793036 
L 1550.557729 309.863595 
L 1560.342184 325.023931 
L 1570.12664 294.886704 
L 1578.964213 296.740387 
L 1588.748668 294.886716 
L 1598.217496 298.699185 
L 1608.001951 300.678103 
L 1617.470779 294.254062 
L 1627.255235 292.966647 
L 1637.03969 300.349891 
L 1646.508518 308.368917 
L 1656.292974 303.460416 
L 1665.761802 302.101726 
L 1675.546257 293.664238 
L 1685.330713 289.751152 
L 1694.483913 293.736952 
L 1704.268368 297.098489 
L 1713.737196 290.037855 
L 1723.521652 282.320595 
L 1732.99048 297.79304 
L 1742.774935 312.462834 
L 1752.559391 282.079621 
L 1762.028218 281.691289 
L 1771.812674 284.822564 
L 1781.281502 288.094249 
L 1791.065957 299.860268 
L 1800.850413 318.023573 
L 1809.687985 291.203496 
L 1819.472441 287.385658 
L 1828.941269 298.075795 
L 1838.725724 309.768126 
L 1848.194552 308.368886 
L 1857.979008 302.101726 
L 1867.763463 293.664238 
L 1877.232291 284.822564 
L 1887.016747 292.530698 
L 1896.485574 300.349918 
L 1906.27003 308.02404 
L 1916.054485 293.664238 
L 1924.892058 289.751152 
L 1934.676514 289.751152 
L 1944.145341 289.751152 
L 1953.929797 296.790481 
L 1963.398625 305.055672 
L 1973.18308 307.245122 
L 1982.967536 281.745479 
L 1992.436364 286.442103 
" style="fill:none;stroke:#2ca02c;stroke-linecap:square;stroke-opacity:0.8;stroke-width:1.2;"/>
   </g>
   <g id="line2d_30">
    <path clip-path="url(#p92c76eddd7)" d="M 1185.3766 286.560011 
L 1195.161056 365.629028 
L 1204.629884 365.629028 
L 1214.414339 326.094707 
L 1224.198794 365.629028 
L 1233.351995 286.560011 
L 1243.13645 326.094707 
L 1252.605278 286.560011 
L 1262.389734 286.560011 
L 1271.858562 286.560011 
L 1281.643017 286.560011 
L 1291.427472 326.094329 
L 1300.8963 405.163725 
L 1310.680756 286.560011 
L 1320.149584 326.094707 
L 1329.934039 207.490807 
L 1339.718495 247.025501 
L 1348.556067 405.163725 
L 1358.340523 365.629028 
L 1367.809351 247.025501 
L 1377.593806 326.094519 
L 1387.062634 286.560011 
L 1396.84709 365.629028 
L 1406.631545 326.094707 
L 1416.100373 286.560011 
L 1425.884828 286.560011 
L 1435.353656 405.16354 
L 1445.138112 365.629218 
L 1454.922567 326.094519 
L 1463.76014 247.025501 
L 1473.544595 286.560011 
L 1483.013423 444.698046 
L 1492.797879 286.560011 
L 1502.266707 365.629218 
L 1512.051162 247.025501 
L 1521.835618 286.560011 
L 1531.304446 405.16354 
L 1541.088901 365.629218 
L 1550.557729 247.025314 
L 1560.342184 365.629218 
L 1570.12664 247.025501 
L 1578.964213 365.629028 
L 1588.748668 286.560011 
L 1598.217496 326.094519 
L 1608.001951 247.025501 
L 1617.470779 365.629028 
L 1627.255235 326.094707 
L 1637.03969 326.094519 
L 1646.508518 326.094519 
L 1656.292974 286.560011 
L 1665.761802 286.560011 
L 1675.546257 286.560011 
L 1685.330713 326.094519 
L 1694.483913 286.560011 
L 1704.268368 247.025501 
L 1713.737196 286.560011 
L 1723.521652 405.163725 
L 1732.99048 207.490807 
L 1742.774935 286.560011 
L 1752.559391 286.560011 
L 1762.028218 247.025501 
L 1771.812674 326.094519 
L 1781.281502 405.163725 
L 1791.065957 247.025501 
L 1800.850413 247.025314 
L 1809.687985 326.094707 
L 1819.472441 365.629028 
L 1828.941269 326.094519 
L 1838.725724 326.094519 
L 1848.194552 286.560011 
L 1857.979008 286.560011 
L 1867.763463 247.025501 
L 1877.232291 365.629218 
L 1887.016747 326.094519 
L 1896.485574 286.560011 
L 1906.27003 286.560011 
L 1916.054485 286.560011 
L 1924.892058 286.560011 
L 1934.676514 286.560011 
L 1944.145341 365.629028 
L 1953.929797 326.094614 
L 1963.398625 207.4909 
L 1973.18308 326.094519 
L 1982.967536 286.560011 
L 1992.436364 365.629126 
" style="fill:none;stroke:#d62728;stroke-linecap:square;stroke-opacity:0.8;stroke-width:0.8;"/>
   </g>
   <g id="patch_3">
    <path d="M 288 504 
L 288 69.12 
" style="fill:none;stroke:#000000;stroke-linecap:square;stroke-linejoin:miter;stroke-width:0.8;"/>
   </g>
   <g id="patch_4">
    <path d="M 2073.6 504 
L 2073.6 69.12 
" style="fill:none;stroke:#000000;stroke-linecap:square;stroke-linejoin:miter;stroke-width:0.8;"/>
   </g>
   <g id="patch_5">
    <path d="M 288 504 
L 2073.6 504 
" style="fill:none;stroke:#000000;stroke-linecap:square;stroke-linejoin:miter;stroke-width:0.8;"/>
   </g>
   <g id="patch_6">
    <path d="M 288 69.12 
L 2073.6 69.12 
" style="fill:none;stroke:#000000;stroke-linecap:square;stroke-linejoin:miter;stroke-width:0.8;"/>
   </g>
   <g id="legend_1">
    <g id="patch_7">
     <path d="M 1931.207812 135.8325 
L 2066.6 135.8325 
Q 2068.6 135.8325 2068.6 133.8325 
L 2068.6 76.12 
Q 2068.6 74.12 2066.6 74.12 
L 1931.207812 74.12 
Q 1929.207812 74.12 1929.207812 76.12 
L 1929.207812 133.8325 
Q 1929.207812 135.8325 1931.207812 135.8325 
z
" style="fill:#ffffff;opacity:0.8;stroke:#cccccc;stroke-linejoin:miter;"/>
    </g>
    <g id="line2d_31">
     <path d="M 1933.207812 82.218437 
L 1953.207812 82.218437 
" style="fill:none;stroke:#1f77b4;stroke-linecap:square;stroke-opacity:0.8;stroke-width:1.2;"/>
    </g>
    <g id="line2d_32"/>
    <g id="text_14">
     <!-- Validation Prediction -->
     <defs>
      <path d="M 28.609375 0 
L 0.78125 72.90625 
L 11.078125 72.90625 
L 34.1875 11.53125 
L 57.328125 72.90625 
L 67.578125 72.90625 
L 39.796875 0 
z
" id="DejaVuSans-86"/>
      <path d="M 34.28125 27.484375 
Q 23.390625 27.484375 19.1875 25 
Q 14.984375 22.515625 14.984375 16.5 
Q 14.984375 11.71875 18.140625 8.90625 
Q 21.296875 6.109375 26.703125 6.109375 
Q 34.1875 6.109375 38.703125 11.40625 
Q 43.21875 16.703125 43.21875 25.484375 
L 43.21875 27.484375 
z
M 52.203125 31.203125 
L 52.203125 0 
L 43.21875 0 
L 43.21875 8.296875 
Q 40.140625 3.328125 35.546875 0.953125 
Q 30.953125 -1.421875 24.3125 -1.421875 
Q 15.921875 -1.421875 10.953125 3.296875 
Q 6 8.015625 6 15.921875 
Q 6 25.140625 12.171875 29.828125 
Q 18.359375 34.515625 30.609375 34.515625 
L 43.21875 34.515625 
L 43.21875 35.40625 
Q 43.21875 41.609375 39.140625 45 
Q 35.0625 48.390625 27.6875 48.390625 
Q 23 48.390625 18.546875 47.265625 
Q 14.109375 46.140625 10.015625 43.890625 
L 10.015625 52.203125 
Q 14.9375 54.109375 19.578125 55.046875 
Q 24.21875 56 28.609375 56 
Q 40.484375 56 46.34375 49.84375 
Q 52.203125 43.703125 52.203125 31.203125 
z
" id="DejaVuSans-97"/>
      <path d="M 9.421875 75.984375 
L 18.40625 75.984375 
L 18.40625 0 
L 9.421875 0 
z
" id="DejaVuSans-108"/>
      <path d="M 9.421875 54.6875 
L 18.40625 54.6875 
L 18.40625 0 
L 9.421875 0 
z
M 9.421875 75.984375 
L 18.40625 75.984375 
L 18.40625 64.59375 
L 9.421875 64.59375 
z
" id="DejaVuSans-105"/>
      <path d="M 45.40625 46.390625 
L 45.40625 75.984375 
L 54.390625 75.984375 
L 54.390625 0 
L 45.40625 0 
L 45.40625 8.203125 
Q 42.578125 3.328125 38.25 0.953125 
Q 33.9375 -1.421875 27.875 -1.421875 
Q 17.96875 -1.421875 11.734375 6.484375 
Q 5.515625 14.40625 5.515625 27.296875 
Q 5.515625 40.1875 11.734375 48.09375 
Q 17.96875 56 27.875 56 
Q 33.9375 56 38.25 53.625 
Q 42.578125 51.265625 45.40625 46.390625 
z
M 14.796875 27.296875 
Q 14.796875 17.390625 18.875 11.75 
Q 22.953125 6.109375 30.078125 6.109375 
Q 37.203125 6.109375 41.296875 11.75 
Q 45.40625 17.390625 45.40625 27.296875 
Q 45.40625 37.203125 41.296875 42.84375 
Q 37.203125 48.484375 30.078125 48.484375 
Q 22.953125 48.484375 18.875 42.84375 
Q 14.796875 37.203125 14.796875 27.296875 
z
" id="DejaVuSans-100"/>
      <path d="M 18.3125 70.21875 
L 18.3125 54.6875 
L 36.8125 54.6875 
L 36.8125 47.703125 
L 18.3125 47.703125 
L 18.3125 18.015625 
Q 18.3125 11.328125 20.140625 9.421875 
Q 21.96875 7.515625 27.59375 7.515625 
L 36.8125 7.515625 
L 36.8125 0 
L 27.59375 0 
Q 17.1875 0 13.234375 3.875 
Q 9.28125 7.765625 9.28125 18.015625 
L 9.28125 47.703125 
L 2.6875 47.703125 
L 2.6875 54.6875 
L 9.28125 54.6875 
L 9.28125 70.21875 
z
" id="DejaVuSans-116"/>
      <path d="M 30.609375 48.390625 
Q 23.390625 48.390625 19.1875 42.75 
Q 14.984375 37.109375 14.984375 27.296875 
Q 14.984375 17.484375 19.15625 11.84375 
Q 23.34375 6.203125 30.609375 6.203125 
Q 37.796875 6.203125 41.984375 11.859375 
Q 46.1875 17.53125 46.1875 27.296875 
Q 46.1875 37.015625 41.984375 42.703125 
Q 37.796875 48.390625 30.609375 48.390625 
z
M 30.609375 56 
Q 42.328125 56 49.015625 48.375 
Q 55.71875 40.765625 55.71875 27.296875 
Q 55.71875 13.875 49.015625 6.21875 
Q 42.328125 -1.421875 30.609375 -1.421875 
Q 18.84375 -1.421875 12.171875 6.21875 
Q 5.515625 13.875 5.515625 27.296875 
Q 5.515625 40.765625 12.171875 48.375 
Q 18.84375 56 30.609375 56 
z
" id="DejaVuSans-111"/>
      <path d="M 54.890625 33.015625 
L 54.890625 0 
L 45.90625 0 
L 45.90625 32.71875 
Q 45.90625 40.484375 42.875 44.328125 
Q 39.84375 48.1875 33.796875 48.1875 
Q 26.515625 48.1875 22.3125 43.546875 
Q 18.109375 38.921875 18.109375 30.90625 
L 18.109375 0 
L 9.078125 0 
L 9.078125 54.6875 
L 18.109375 54.6875 
L 18.109375 46.1875 
Q 21.34375 51.125 25.703125 53.5625 
Q 30.078125 56 35.796875 56 
Q 45.21875 56 50.046875 50.171875 
Q 54.890625 44.34375 54.890625 33.015625 
z
" id="DejaVuSans-110"/>
      <path id="DejaVuSans-32"/>
      <path d="M 19.671875 64.796875 
L 19.671875 37.40625 
L 32.078125 37.40625 
Q 38.96875 37.40625 42.71875 40.96875 
Q 46.484375 44.53125 46.484375 51.125 
Q 46.484375 57.671875 42.71875 61.234375 
Q 38.96875 64.796875 32.078125 64.796875 
z
M 9.8125 72.90625 
L 32.078125 72.90625 
Q 44.34375 72.90625 50.609375 67.359375 
Q 56.890625 61.8125 56.890625 51.125 
Q 56.890625 40.328125 50.609375 34.8125 
Q 44.34375 29.296875 32.078125 29.296875 
L 19.671875 29.296875 
L 19.671875 0 
L 9.8125 0 
z
" id="DejaVuSans-80"/>
      <path d="M 41.109375 46.296875 
Q 39.59375 47.171875 37.8125 47.578125 
Q 36.03125 48 33.890625 48 
Q 26.265625 48 22.1875 43.046875 
Q 18.109375 38.09375 18.109375 28.8125 
L 18.109375 0 
L 9.078125 0 
L 9.078125 54.6875 
L 18.109375 54.6875 
L 18.109375 46.1875 
Q 20.953125 51.171875 25.484375 53.578125 
Q 30.03125 56 36.53125 56 
Q 37.453125 56 38.578125 55.875 
Q 39.703125 55.765625 41.0625 55.515625 
z
" id="DejaVuSans-114"/>
      <path d="M 56.203125 29.59375 
L 56.203125 25.203125 
L 14.890625 25.203125 
Q 15.484375 15.921875 20.484375 11.0625 
Q 25.484375 6.203125 34.421875 6.203125 
Q 39.59375 6.203125 44.453125 7.46875 
Q 49.3125 8.734375 54.109375 11.28125 
L 54.109375 2.78125 
Q 49.265625 0.734375 44.1875 -0.34375 
Q 39.109375 -1.421875 33.890625 -1.421875 
Q 20.796875 -1.421875 13.15625 6.1875 
Q 5.515625 13.8125 5.515625 26.8125 
Q 5.515625 40.234375 12.765625 48.109375 
Q 20.015625 56 32.328125 56 
Q 43.359375 56 49.78125 48.890625 
Q 56.203125 41.796875 56.203125 29.59375 
z
M 47.21875 32.234375 
Q 47.125 39.59375 43.09375 43.984375 
Q 39.0625 48.390625 32.421875 48.390625 
Q 24.90625 48.390625 20.390625 44.140625 
Q 15.875 39.890625 15.1875 32.171875 
z
" id="DejaVuSans-101"/>
      <path d="M 48.78125 52.59375 
L 48.78125 44.1875 
Q 44.96875 46.296875 41.140625 47.34375 
Q 37.3125 48.390625 33.40625 48.390625 
Q 24.65625 48.390625 19.8125 42.84375 
Q 14.984375 37.3125 14.984375 27.296875 
Q 14.984375 17.28125 19.8125 11.734375 
Q 24.65625 6.203125 33.40625 6.203125 
Q 37.3125 6.203125 41.140625 7.25 
Q 44.96875 8.296875 48.78125 10.40625 
L 48.78125 2.09375 
Q 45.015625 0.34375 40.984375 -0.53125 
Q 36.96875 -1.421875 32.421875 -1.421875 
Q 20.0625 -1.421875 12.78125 6.34375 
Q 5.515625 14.109375 5.515625 27.296875 
Q 5.515625 40.671875 12.859375 48.328125 
Q 20.21875 56 33.015625 56 
Q 37.15625 56 41.109375 55.140625 
Q 45.0625 54.296875 48.78125 52.59375 
z
" id="DejaVuSans-99"/>
     </defs>
     <g transform="translate(1961.207812 85.718437)scale(0.1 -0.1)">
      <use xlink:href="#DejaVuSans-86"/>
      <use x="68.298828" xlink:href="#DejaVuSans-97"/>
      <use x="129.578125" xlink:href="#DejaVuSans-108"/>
      <use x="157.361328" xlink:href="#DejaVuSans-105"/>
      <use x="185.144531" xlink:href="#DejaVuSans-100"/>
      <use x="248.621094" xlink:href="#DejaVuSans-97"/>
      <use x="309.900391" xlink:href="#DejaVuSans-116"/>
      <use x="349.109375" xlink:href="#DejaVuSans-105"/>
      <use x="376.892578" xlink:href="#DejaVuSans-111"/>
      <use x="438.074219" xlink:href="#DejaVuSans-110"/>
      <use x="501.453125" xlink:href="#DejaVuSans-32"/>
      <use x="533.240234" xlink:href="#DejaVuSans-80"/>
      <use x="593.527344" xlink:href="#DejaVuSans-114"/>
      <use x="634.609375" xlink:href="#DejaVuSans-101"/>
      <use x="696.132812" xlink:href="#DejaVuSans-100"/>
      <use x="759.609375" xlink:href="#DejaVuSans-105"/>
      <use x="787.392578" xlink:href="#DejaVuSans-99"/>
      <use x="842.373047" xlink:href="#DejaVuSans-116"/>
      <use x="881.582031" xlink:href="#DejaVuSans-105"/>
      <use x="909.365234" xlink:href="#DejaVuSans-111"/>
      <use x="970.546875" xlink:href="#DejaVuSans-110"/>
     </g>
    </g>
    <g id="line2d_33">
     <path d="M 1933.207812 96.896563 
L 1953.207812 96.896563 
" style="fill:none;stroke:#ff7f0e;stroke-linecap:square;stroke-opacity:0.8;stroke-width:0.8;"/>
    </g>
    <g id="line2d_34"/>
    <g id="text_15">
     <!-- Validation Actual -->
     <defs>
      <path d="M 34.1875 63.1875 
L 20.796875 26.90625 
L 47.609375 26.90625 
z
M 28.609375 72.90625 
L 39.796875 72.90625 
L 67.578125 0 
L 57.328125 0 
L 50.6875 18.703125 
L 17.828125 18.703125 
L 11.1875 0 
L 0.78125 0 
z
" id="DejaVuSans-65"/>
      <path d="M 8.5 21.578125 
L 8.5 54.6875 
L 17.484375 54.6875 
L 17.484375 21.921875 
Q 17.484375 14.15625 20.5 10.265625 
Q 23.53125 6.390625 29.59375 6.390625 
Q 36.859375 6.390625 41.078125 11.03125 
Q 45.3125 15.671875 45.3125 23.6875 
L 45.3125 54.6875 
L 54.296875 54.6875 
L 54.296875 0 
L 45.3125 0 
L 45.3125 8.40625 
Q 42.046875 3.421875 37.71875 1 
Q 33.40625 -1.421875 27.6875 -1.421875 
Q 18.265625 -1.421875 13.375 4.4375 
Q 8.5 10.296875 8.5 21.578125 
z
M 31.109375 56 
z
" id="DejaVuSans-117"/>
     </defs>
     <g transform="translate(1961.207812 100.396563)scale(0.1 -0.1)">
      <use xlink:href="#DejaVuSans-86"/>
      <use x="68.298828" xlink:href="#DejaVuSans-97"/>
      <use x="129.578125" xlink:href="#DejaVuSans-108"/>
      <use x="157.361328" xlink:href="#DejaVuSans-105"/>
      <use x="185.144531" xlink:href="#DejaVuSans-100"/>
      <use x="248.621094" xlink:href="#DejaVuSans-97"/>
      <use x="309.900391" xlink:href="#DejaVuSans-116"/>
      <use x="349.109375" xlink:href="#DejaVuSans-105"/>
      <use x="376.892578" xlink:href="#DejaVuSans-111"/>
      <use x="438.074219" xlink:href="#DejaVuSans-110"/>
      <use x="501.453125" xlink:href="#DejaVuSans-32"/>
      <use x="533.240234" xlink:href="#DejaVuSans-65"/>
      <use x="601.632812" xlink:href="#DejaVuSans-99"/>
      <use x="656.613281" xlink:href="#DejaVuSans-116"/>
      <use x="695.822266" xlink:href="#DejaVuSans-117"/>
      <use x="759.201172" xlink:href="#DejaVuSans-97"/>
      <use x="820.480469" xlink:href="#DejaVuSans-108"/>
     </g>
    </g>
    <g id="line2d_35">
     <path d="M 1933.207812 111.574687 
L 1953.207812 111.574687 
" style="fill:none;stroke:#2ca02c;stroke-linecap:square;stroke-opacity:0.8;stroke-width:1.2;"/>
    </g>
    <g id="line2d_36"/>
    <g id="text_16">
     <!-- Test Prediction -->
     <defs>
      <path d="M -0.296875 72.90625 
L 61.375 72.90625 
L 61.375 64.59375 
L 35.5 64.59375 
L 35.5 0 
L 25.59375 0 
L 25.59375 64.59375 
L -0.296875 64.59375 
z
" id="DejaVuSans-84"/>
      <path d="M 44.28125 53.078125 
L 44.28125 44.578125 
Q 40.484375 46.53125 36.375 47.5 
Q 32.28125 48.484375 27.875 48.484375 
Q 21.1875 48.484375 17.84375 46.4375 
Q 14.5 44.390625 14.5 40.28125 
Q 14.5 37.15625 16.890625 35.375 
Q 19.28125 33.59375 26.515625 31.984375 
L 29.59375 31.296875 
Q 39.15625 29.25 43.1875 25.515625 
Q 47.21875 21.78125 47.21875 15.09375 
Q 47.21875 7.46875 41.1875 3.015625 
Q 35.15625 -1.421875 24.609375 -1.421875 
Q 20.21875 -1.421875 15.453125 -0.5625 
Q 10.6875 0.296875 5.421875 2 
L 5.421875 11.28125 
Q 10.40625 8.6875 15.234375 7.390625 
Q 20.0625 6.109375 24.8125 6.109375 
Q 31.15625 6.109375 34.5625 8.28125 
Q 37.984375 10.453125 37.984375 14.40625 
Q 37.984375 18.0625 35.515625 20.015625 
Q 33.0625 21.96875 24.703125 23.78125 
L 21.578125 24.515625 
Q 13.234375 26.265625 9.515625 29.90625 
Q 5.8125 33.546875 5.8125 39.890625 
Q 5.8125 47.609375 11.28125 51.796875 
Q 16.75 56 26.8125 56 
Q 31.78125 56 36.171875 55.265625 
Q 40.578125 54.546875 44.28125 53.078125 
z
" id="DejaVuSans-115"/>
     </defs>
     <g transform="translate(1961.207812 115.074687)scale(0.1 -0.1)">
      <use xlink:href="#DejaVuSans-84"/>
      <use x="60.818359" xlink:href="#DejaVuSans-101"/>
      <use x="122.341797" xlink:href="#DejaVuSans-115"/>
      <use x="174.441406" xlink:href="#DejaVuSans-116"/>
      <use x="213.650391" xlink:href="#DejaVuSans-32"/>
      <use x="245.4375" xlink:href="#DejaVuSans-80"/>
      <use x="305.724609" xlink:href="#DejaVuSans-114"/>
      <use x="346.806641" xlink:href="#DejaVuSans-101"/>
      <use x="408.330078" xlink:href="#DejaVuSans-100"/>
      <use x="471.806641" xlink:href="#DejaVuSans-105"/>
      <use x="499.589844" xlink:href="#DejaVuSans-99"/>
      <use x="554.570312" xlink:href="#DejaVuSans-116"/>
      <use x="593.779297" xlink:href="#DejaVuSans-105"/>
      <use x="621.5625" xlink:href="#DejaVuSans-111"/>
      <use x="682.744141" xlink:href="#DejaVuSans-110"/>
     </g>
    </g>
    <g id="line2d_37">
     <path d="M 1933.207812 126.252813 
L 1953.207812 126.252813 
" style="fill:none;stroke:#d62728;stroke-linecap:square;stroke-opacity:0.8;stroke-width:0.8;"/>
    </g>
    <g id="line2d_38"/>
    <g id="text_17">
     <!-- Test Actual -->
     <g transform="translate(1961.207812 129.752813)scale(0.1 -0.1)">
      <use xlink:href="#DejaVuSans-84"/>
      <use x="60.818359" xlink:href="#DejaVuSans-101"/>
      <use x="122.341797" xlink:href="#DejaVuSans-115"/>
      <use x="174.441406" xlink:href="#DejaVuSans-116"/>
      <use x="213.650391" xlink:href="#DejaVuSans-32"/>
      <use x="245.4375" xlink:href="#DejaVuSans-65"/>
      <use x="313.830078" xlink:href="#DejaVuSans-99"/>
      <use x="368.810547" xlink:href="#DejaVuSans-116"/>
      <use x="408.019531" xlink:href="#DejaVuSans-117"/>
      <use x="471.398438" xlink:href="#DejaVuSans-97"/>
      <use x="532.677734" xlink:href="#DejaVuSans-108"/>
     </g>
    </g>
   </g>
  </g>
 </g>
 <defs>
  <clipPath id="p92c76eddd7">
   <rect height="434.88" width="1785.6" x="288" y="69.12"/>
  </clipPath>
 </defs>
</svg>
